<svg width="31" height="30" viewBox="0 0 31 30" fill="none" xmlns="http://www.w3.org/2000/svg">
<mask id="mask0_1338_18183" style="mask-type:alpha" maskUnits="userSpaceOnUse" x="0" y="0" width="31" height="30">
<rect width="31" height="30" fill="#D9D9D9"/>
</mask>
<g mask="url(#mask0_1338_18183)">
<path d="M20.7657 24.5618V19.4953H24.1439C24.5919 19.4953 25.0215 19.311 25.3383 18.9829C25.655 18.6548 25.833 18.2099 25.833 17.7459V5.49948C25.833 5.03549 25.655 4.5905 25.3383 4.26241C25.0215 3.93432 24.5919 3.75 24.1439 3.75H5.56378C5.1158 3.75 4.68617 3.93432 4.3694 4.26241C4.05263 4.5905 3.87467 5.03549 3.87467 5.49948V17.7459C3.87467 18.2099 4.05263 18.6548 4.3694 18.9829C4.68617 19.311 5.1158 19.4953 5.56378 19.4953H14.8538L20.0445 24.8715C20.1035 24.9328 20.1788 24.9746 20.2608 24.9916C20.3428 25.0085 20.4279 24.9998 20.5051 24.9667C20.5824 24.9335 20.6484 24.8773 20.6948 24.8052C20.7412 24.7332 20.7658 24.6485 20.7657 24.5618Z" stroke="#666666" stroke-width="2"/>
<path d="M20.7656 14.2484H8.94191M20.7656 9H8.94191" stroke="#666666" stroke-width="2" stroke-linecap="round"/>
</g>
</svg>
