<svg width="46" height="46" viewBox="0 0 46 46" fill="none" xmlns="http://www.w3.org/2000/svg">
<path opacity="0.21" fill-rule="evenodd" clip-rule="evenodd" d="M46 23C46 35.7025 35.7025 46 23 46C10.2975 46 0 35.7025 0 23C0 10.2975 10.2975 0 23 0C35.7025 0 46 10.2975 46 23Z" fill="#FF6F61"/>
<path d="M28.6115 22.8594H17.0253C14.4292 22.8594 12.3184 24.8327 12.3184 27.2549V32.9973H33.3184V27.2549C33.3184 24.8327 31.2075 22.8594 28.6115 22.8594ZM24.234 23.5835L24.0385 25.7559H21.5982L21.4027 23.5835H24.234ZM24.2666 29.5359L22.8184 30.7199L21.3701 29.5359L21.6018 26.4801H24.0349L24.2666 29.5359ZM13.0425 32.2732V27.2549C13.0425 25.2309 14.8275 23.5835 17.0253 23.5835H20.6785L20.903 26.118L20.6459 29.8582L22.8184 31.6685L24.9908 29.8582L24.7337 26.118L24.9582 23.5835H28.6115C30.8092 23.5835 32.5942 25.2309 32.5942 27.2549V32.2732H13.0425Z" fill="#D34A3D"/>
<path d="M22.818 22.1379C23.8205 22.1379 24.8006 21.8406 25.6342 21.2837C26.4677 20.7267 27.1174 19.935 27.5011 19.0088C27.8848 18.0825 27.9851 17.0633 27.7896 16.0801C27.594 15.0968 27.1112 14.1936 26.4023 13.4847C25.6934 12.7758 24.7902 12.293 23.8069 12.0974C22.8236 11.9018 21.8044 12.0022 20.8782 12.3859C19.9519 12.7695 19.1603 13.4192 18.6033 14.2528C18.0463 15.0864 17.749 16.0664 17.749 17.069C17.749 18.4133 18.2831 19.7027 19.2337 20.6533C20.1843 21.6039 21.4736 22.1379 22.818 22.1379ZM20.1713 20.5086C20.9289 19.922 21.8598 19.6037 22.818 19.6037C23.7761 19.6037 24.7071 19.922 25.4647 20.5086C24.7071 21.0952 23.7761 21.4135 22.818 21.4135C21.8598 21.4135 20.9289 21.0952 20.1713 20.5086ZM22.818 12.7241C23.6613 12.726 24.4859 12.9732 25.1911 13.4357C25.8963 13.8982 26.4517 14.5559 26.7895 15.3286C27.1273 16.1013 27.233 16.9557 27.0935 17.7874C26.9541 18.6191 26.5756 19.3923 26.0042 20.0126C25.104 19.2798 23.9787 18.8798 22.818 18.8798C21.6573 18.8798 20.532 19.2798 19.6318 20.0126C19.0604 19.3923 18.6819 18.6191 18.5425 17.7874C18.403 16.9557 18.5086 16.1013 18.8464 15.3286C19.1843 14.5559 19.7396 13.8982 20.4449 13.4357C21.1501 12.9732 21.9747 12.726 22.818 12.7241Z" fill="#D34A3D"/>
</svg>
