<svg width="47" height="46" viewBox="0 0 47 46" fill="none" xmlns="http://www.w3.org/2000/svg">
<path d="M21.2473 21.8878C20.2972 21.8878 19.3684 21.5978 18.5784 21.0546C17.7884 20.5113 17.1727 19.7392 16.8091 18.8358C16.4455 17.9325 16.3504 16.9384 16.5357 15.9794C16.7211 15.0204 17.1786 14.1394 17.8505 13.448C18.5223 12.7566 19.3783 12.2858 20.3101 12.095C21.242 11.9042 22.2079 12.0021 23.0857 12.3763C23.9635 12.7505 24.7138 13.3842 25.2416 14.1972C25.7695 15.0102 26.0512 15.9661 26.0512 16.9439C26.0512 18.2551 25.5451 19.5126 24.6442 20.4397C23.7433 21.3669 22.5214 21.8878 21.2473 21.8878ZM21.2473 13.469C20.5687 13.469 19.9053 13.6762 19.341 14.0642C18.7767 14.4522 18.3369 15.0037 18.0772 15.649C17.8175 16.2943 17.7495 17.0043 17.8819 17.6893C18.0143 18.3743 18.3411 19.0036 18.821 19.4974C19.3009 19.9913 19.9123 20.3276 20.5779 20.4639C21.2435 20.6001 21.9335 20.5302 22.5605 20.2629C23.1875 19.9957 23.7234 19.543 24.1004 18.9623C24.4774 18.3816 24.6787 17.6988 24.6787 17.0004C24.6787 16.5366 24.5899 16.0774 24.4175 15.649C24.2451 15.2206 23.9923 14.8313 23.6737 14.5034C23.355 14.1754 22.9768 13.9153 22.5605 13.7379C22.1441 13.5604 21.6979 13.469 21.2473 13.469ZM25.0699 22.7424C21.3561 21.8818 17.4707 22.2961 14.0072 23.9218C13.5308 24.156 13.1289 24.5246 12.8483 24.9848C12.5676 25.4449 12.4198 25.9776 12.4219 26.5209V30.7232C12.4219 30.816 12.4396 30.9078 12.4741 30.9935C12.5086 31.0792 12.5592 31.157 12.6229 31.2226C12.6866 31.2882 12.7623 31.3402 12.8455 31.3757C12.9288 31.4112 13.018 31.4295 13.1082 31.4295C13.1983 31.4295 13.2875 31.4112 13.3708 31.3757C13.4541 31.3402 13.5297 31.2882 13.5934 31.2226C13.6572 31.157 13.7077 31.0792 13.7422 30.9935C13.7767 30.9078 13.7944 30.816 13.7944 30.7232V26.5209C13.7885 26.246 13.8606 25.9752 14.002 25.7418C14.1434 25.5085 14.348 25.3227 14.5905 25.2072C16.6769 24.2156 18.9492 23.7069 21.2473 23.717C22.535 23.7155 23.8182 23.8719 25.0699 24.1832V22.7424ZM25.1659 29.459H29.3796V30.4478H25.1659V29.459Z" fill="#45A170"/>
<path d="M32.7354 25.2601H29.1874V26.6727H32.0491V32.5841H22.3247V26.6727H26.6482V26.9693C26.6482 27.1566 26.7205 27.3362 26.8492 27.4687C26.9779 27.6011 27.1525 27.6756 27.3345 27.6756C27.5165 27.6756 27.691 27.6011 27.8197 27.4687C27.9484 27.3362 28.0207 27.1566 28.0207 26.9693V24.2219C28.0207 24.0346 27.9484 23.8549 27.8197 23.7225C27.691 23.59 27.5165 23.5156 27.3345 23.5156C27.1525 23.5156 26.9779 23.59 26.8492 23.7225C26.7205 23.8549 26.6482 24.0346 26.6482 24.2219V25.2601H21.6384C21.4564 25.2601 21.2819 25.3345 21.1532 25.467C21.0245 25.5994 20.9521 25.7791 20.9521 25.9664V33.2904C20.9521 33.4777 21.0245 33.6574 21.1532 33.7898C21.2819 33.9223 21.4564 33.9967 21.6384 33.9967H32.7354C32.9174 33.9967 33.092 33.9223 33.2207 33.7898C33.3494 33.6574 33.4217 33.4777 33.4217 33.2904V25.9664C33.4217 25.7791 33.3494 25.5994 33.2207 25.467C33.092 25.3345 32.9174 25.2601 32.7354 25.2601Z" fill="#45A170"/>
<path opacity="0.21" fill-rule="evenodd" clip-rule="evenodd" d="M46.1211 23C46.1211 35.7025 35.8236 46 23.1211 46C10.4185 46 0.121094 35.7025 0.121094 23C0.121094 10.2975 10.4185 0 23.1211 0C35.8236 0 46.1211 10.2975 46.1211 23Z" fill="#4AD991"/>
</svg>
