<svg width="47" height="46" viewBox="0 0 47 46" fill="none" xmlns="http://www.w3.org/2000/svg">
<path opacity="0.21" fill-rule="evenodd" clip-rule="evenodd" d="M46.5605 23C46.5605 35.7025 36.2631 46 23.5605 46C10.858 46 0.560547 35.7025 0.560547 23C0.560547 10.2975 10.858 0 23.5605 0C36.2631 0 46.5605 10.2975 46.5605 23Z" fill="#8280FF"/>
<path opacity="0.587821" fill-rule="evenodd" clip-rule="evenodd" d="M16.6475 18.5432C16.6475 20.884 18.506 22.7817 20.7987 22.7817C23.0913 22.7817 24.9499 20.884 24.9499 18.5432C24.9499 16.2023 23.0913 14.3047 20.7987 14.3047C18.506 14.3047 16.6475 16.2023 16.6475 18.5432ZM27.0251 22.7809C27.0251 24.5366 28.419 25.9598 30.1385 25.9598C31.858 25.9598 33.2519 24.5366 33.2519 22.7809C33.2519 21.0253 31.858 19.6021 30.1385 19.6021C28.419 19.6021 27.0251 21.0253 27.0251 22.7809Z" fill="#8280FF"/>
<path fill-rule="evenodd" clip-rule="evenodd" d="M20.781 24.8984C15.881 24.8984 11.8609 27.4696 11.4587 32.5269C11.4368 32.8024 11.9527 33.3754 12.213 33.3754H29.3567C30.1363 33.3754 30.1484 32.7349 30.1363 32.5277C29.8322 27.3284 25.7498 24.8984 20.781 24.8984ZM29.7243 27.0181C31.0269 28.7889 31.7988 30.99 31.7988 33.3752H35.8007C36.3638 33.3752 36.3725 32.8947 36.3638 32.7394C36.1465 28.8824 33.2597 27.0574 29.7243 27.0181Z" fill="#8280FF"/>
</svg>
