<svg width="47" height="46" viewBox="0 0 47 46" fill="none" xmlns="http://www.w3.org/2000/svg">
<path opacity="0.21" fill-rule="evenodd" clip-rule="evenodd" d="M46.6816 23C46.6816 35.7025 36.3842 46 23.6816 46C10.9791 46 0.681641 35.7025 0.681641 23C0.681641 10.2975 10.9791 0 23.6816 0C36.3842 0 46.6816 10.2975 46.6816 23Z" fill="#FEC53D"/>
<path d="M28.2853 26.4632C30.3958 26.4632 32.1067 24.7523 32.1067 22.6417C32.1067 20.5312 30.3958 18.8203 28.2853 18.8203C26.1748 18.8203 24.4639 20.5312 24.4639 22.6417C24.4639 24.7523 26.1748 26.4632 28.2853 26.4632Z" fill="#E7AD26"/>
<path d="M28.3931 27.1799H28.1074C26.716 27.1913 25.3739 27.6967 24.3207 28.6061C23.2675 29.5154 22.5716 30.7694 22.3574 32.1442C22.3574 32.3942 22.4289 33.0014 23.3217 33.0014H33.036C33.9289 33.0014 34.0003 32.4657 34.0003 32.1442C33.8457 30.7696 33.1868 29.5011 32.1511 28.5841C31.1153 27.6672 29.7764 27.1668 28.3931 27.1799Z" fill="#E7AD26"/>
<path d="M23.0357 26.4643C23.1786 26.3214 23.0714 26.2143 23.0714 26.2143C22.3555 25.1604 21.97 23.9169 21.9643 22.6429C21.9481 21.3379 22.3485 20.0618 23.1071 19C23.1071 18.9905 23.1109 18.9814 23.1176 18.9747C23.1243 18.968 23.1334 18.9643 23.1429 18.9643C23.2339 18.8535 23.2843 18.7148 23.2857 18.5714V14.7143C23.2732 14.529 23.1939 14.3545 23.0626 14.2231C22.9312 14.0918 22.7567 14.0125 22.5714 14H13.7143C13.524 14.0157 13.346 14.1007 13.2143 14.239C13.0826 14.3773 13.0064 14.5591 13 14.75V31.25H19.9643C20.4169 29.3531 21.4997 27.6659 23.0357 26.4643ZM16.9643 29.2143C16.9572 29.4109 16.8759 29.5976 16.7368 29.7368C16.5976 29.8759 16.4109 29.9572 16.2143 29.9643H15.4643C15.2676 29.9572 15.081 29.8759 14.9418 29.7368C14.8027 29.5976 14.7214 29.4109 14.7143 29.2143V28.4643C14.7214 28.2676 14.8027 28.081 14.9418 27.9418C15.081 27.8027 15.2676 27.7214 15.4643 27.7143H16.2143C16.4109 27.7214 16.5976 27.8027 16.7368 27.9418C16.8759 28.081 16.9572 28.2676 16.9643 28.4643V29.2143ZM16.9643 25.4643C16.9572 25.6609 16.8759 25.8476 16.7368 25.9868C16.5976 26.1259 16.4109 26.2072 16.2143 26.2143H15.4643C15.2676 26.2072 15.081 26.1259 14.9418 25.9868C14.8027 25.8476 14.7214 25.6609 14.7143 25.4643V24.7143C14.7214 24.5176 14.8027 24.331 14.9418 24.1918C15.081 24.0527 15.2676 23.9714 15.4643 23.9643H16.2143C16.4109 23.9714 16.5976 24.0527 16.7368 24.1918C16.8759 24.331 16.9572 24.5176 16.9643 24.7143V25.4643ZM16.9643 21.7143C16.9572 21.9109 16.8759 22.0976 16.7368 22.2368C16.5976 22.3759 16.4109 22.4572 16.2143 22.4643H15.4643C15.2676 22.4572 15.081 22.3759 14.9418 22.2368C14.8027 22.0976 14.7214 21.9109 14.7143 21.7143V20.9643C14.7214 20.7676 14.8027 20.581 14.9418 20.4418C15.081 20.3027 15.2676 20.2214 15.4643 20.2143H16.2143C16.4109 20.2214 16.5976 20.3027 16.7368 20.4418C16.8759 20.581 16.9572 20.7676 16.9643 20.9643V21.7143ZM16.9643 17.9643C16.9572 18.1609 16.8759 18.3476 16.7368 18.4868C16.5976 18.6259 16.4109 18.7072 16.2143 18.7143H15.4643C15.2676 18.7072 15.081 18.6259 14.9418 18.4868C14.8027 18.3476 14.7214 18.1609 14.7143 17.9643V17.2143C14.7214 17.0176 14.8027 16.831 14.9418 16.6918C15.081 16.5527 15.2676 16.4714 15.4643 16.4643H16.2143C16.4109 16.4714 16.5976 16.5527 16.7368 16.6918C16.8759 16.831 16.9572 17.0176 16.9643 17.2143V17.9643ZM21.2143 25.4643C21.2072 25.6609 21.1259 25.8476 20.9868 25.9868C20.8476 26.1259 20.6609 26.2072 20.4643 26.2143H19.7143C19.5176 26.2072 19.331 26.1259 19.1918 25.9868C19.0527 25.8476 18.9714 25.6609 18.9643 25.4643V24.7143C18.9714 24.5176 19.0527 24.331 19.1918 24.1918C19.331 24.0527 19.5176 23.9714 19.7143 23.9643H20.4643C20.6609 23.9714 20.8476 24.0527 20.9868 24.1918C21.1259 24.331 21.2072 24.5176 21.2143 24.7143V25.4643ZM21.2143 21.7143C21.2072 21.9109 21.1259 22.0976 20.9868 22.2368C20.8476 22.3759 20.6609 22.4572 20.4643 22.4643H19.7143C19.5176 22.4572 19.331 22.3759 19.1918 22.2368C19.0527 22.0976 18.9714 21.9109 18.9643 21.7143V20.9643C18.9714 20.7676 19.0527 20.581 19.1918 20.4418C19.331 20.3027 19.5176 20.2214 19.7143 20.2143H20.4643C20.6609 20.2214 20.8476 20.3027 20.9868 20.4418C21.1259 20.581 21.2072 20.7676 21.2143 20.9643V21.7143ZM21.2143 17.9643C21.2072 18.1609 21.1259 18.3476 20.9868 18.4868C20.8476 18.6259 20.6609 18.7072 20.4643 18.7143H19.7143C19.5176 18.7072 19.331 18.6259 19.1918 18.4868C19.0527 18.3476 18.9714 18.1609 18.9643 17.9643V17.2143C18.9714 17.0176 19.0527 16.831 19.1918 16.6918C19.331 16.5527 19.5176 16.4714 19.7143 16.4643H20.4643C20.6609 16.4714 20.8476 16.5527 20.9868 16.6918C21.1259 16.831 21.2072 17.0176 21.2143 17.2143V17.9643Z" fill="#E7AD26"/>
</svg>
