<svg width="28" height="27" viewBox="0 0 28 27" fill="none" xmlns="http://www.w3.org/2000/svg">
<g clip-path="url(#clip0_3165_56227)">
<path d="M18.5 18L14 13.5L9.5 18" stroke="#ADB2BA" stroke-width="3" stroke-linecap="round" stroke-linejoin="round"/>
<path d="M14 13.5V23.625" stroke="#ADB2BA" stroke-width="3" stroke-linecap="round" stroke-linejoin="round"/>
<path d="M23.4389 20.686C24.5361 20.0878 25.403 19.1412 25.9025 17.9957C26.402 16.8501 26.5059 15.5709 26.1976 14.3598C25.8894 13.1487 25.1866 12.0747 24.2001 11.3074C23.2137 10.54 21.9999 10.1231 20.7501 10.1222H19.3326C18.9921 8.80513 18.3574 7.58236 17.4763 6.54585C16.5952 5.50934 15.4906 4.68607 14.2455 4.13792C13.0004 3.58977 11.6473 3.33101 10.2878 3.3811C8.92828 3.43119 7.59784 3.78882 6.39646 4.42711C5.19509 5.0654 4.15404 5.96773 3.35159 7.06627C2.54914 8.1648 2.00616 9.43096 1.76349 10.7696C1.52082 12.1081 1.58476 13.4843 1.9505 14.7947C2.31625 16.105 2.97429 17.3153 3.87514 18.3347" stroke="#ADB2BA" stroke-width="3" stroke-linecap="round" stroke-linejoin="round"/>
<path d="M18.5 18L14 13.5L9.5 18" stroke="#ADB2BA" stroke-width="3" stroke-linecap="round" stroke-linejoin="round"/>
</g>
<defs>
<clipPath id="clip0_3165_56227">
<rect width="27" height="27" fill="white" transform="translate(0.5)"/>
</clipPath>
</defs>
</svg>
