<svg width="16" height="16" viewBox="0 0 16 16" fill="none" xmlns="http://www.w3.org/2000/svg">
<path d="M9.33333 5.33073V3.9974C9.33333 3.64377 9.19286 3.30464 8.94281 3.05459C8.69276 2.80454 8.35362 2.66406 8 2.66406H3.33333C2.97971 2.66406 2.64057 2.80454 2.39052 3.05459C2.14048 3.30464 2 3.64377 2 3.9974V11.9974C2 12.351 2.14048 12.6902 2.39052 12.9402C2.64057 13.1903 2.97971 13.3307 3.33333 13.3307H8C8.35362 13.3307 8.69276 13.1903 8.94281 12.9402C9.19286 12.6902 9.33333 12.351 9.33333 11.9974V10.6641M6 7.9974H14M14 7.9974L12 5.9974M14 7.9974L12 9.9974" stroke="#E26B71" stroke-width="1.25" stroke-linecap="round" stroke-linejoin="round"/>
</svg>
