<svg width="15" height="14" viewBox="0 0 15 14" fill="none" xmlns="http://www.w3.org/2000/svg">
<path d="M6.53227 11.9735C7.87673 11.9732 9.18245 11.5285 10.2415 10.7103L13.5713 14L14.6423 12.9418L11.3125 9.65213C12.1412 8.60569 12.5916 7.31538 12.5919 5.98674C12.5919 2.6858 9.87339 0 6.53227 0C3.19115 0 0.472656 2.6858 0.472656 5.98674C0.472656 9.28768 3.19115 11.9735 6.53227 11.9735ZM6.53227 1.49669C9.03868 1.49669 11.077 3.51048 11.077 5.98674C11.077 8.46301 9.03868 10.4768 6.53227 10.4768C4.02586 10.4768 1.98756 8.46301 1.98756 5.98674C1.98756 3.51048 4.02586 1.49669 6.53227 1.49669Z" fill="#5A5881"/>
</svg>
