<svg width="531" height="580" viewBox="0 0 531 580" fill="none" xmlns="http://www.w3.org/2000/svg">
<path d="M209 579.219C324.428 579.219 418 525.194 418 458.551C418 391.908 324.428 337.883 209 337.883C93.5725 337.883 0 391.908 0 458.551C0 525.194 93.5725 579.219 209 579.219Z" fill="#F0F0F0"/>
<path d="M165.752 549.979C205.556 549.979 237.823 531.351 237.823 508.372C237.823 485.394 205.556 466.766 165.752 466.766C125.949 466.766 93.6816 485.394 93.6816 508.372C93.6816 531.351 125.949 549.979 165.752 549.979Z" fill="#E0E0E0"/>
<path d="M370.706 456.304L362.252 451.424C362.252 451.424 360.185 433.327 361.56 419.31C363.494 399.616 376.215 375.911 391.385 381.483C406.555 387.054 384.43 407.103 379.507 423.808C374.583 440.513 370.706 456.304 370.706 456.304Z" fill="#BA68C8"/>
<path opacity="0.15" d="M370.706 456.304L362.252 451.424C362.252 451.424 360.185 433.327 361.56 419.31C363.494 399.616 376.215 375.911 391.385 381.483C406.555 387.054 384.43 407.103 379.507 423.808C374.583 440.513 370.706 456.304 370.706 456.304Z" fill="black"/>
<path d="M366.261 454.255C366.396 454.248 366.522 454.188 366.614 454.089C366.705 453.989 366.753 453.858 366.749 453.723C365.267 409.96 387.055 387.942 387.268 387.729C387.364 387.632 387.419 387.502 387.419 387.365C387.419 387.229 387.364 387.098 387.268 387.001C387.221 386.954 387.165 386.916 387.103 386.891C387.042 386.865 386.975 386.852 386.909 386.852C386.842 386.852 386.776 386.865 386.714 386.891C386.652 386.916 386.596 386.954 386.549 387.001C386.319 387.214 364.22 409.552 365.719 453.758C365.722 453.827 365.738 453.894 365.766 453.956C365.795 454.018 365.835 454.074 365.886 454.12C365.936 454.167 365.995 454.202 366.06 454.225C366.124 454.249 366.192 454.259 366.261 454.255Z" fill="white"/>
<path d="M376.02 459.347L370.005 455.878C370.005 455.878 368.976 443.458 375.071 428.377C380.393 415.248 393.523 404.345 400.141 406.634C406.759 408.922 406.59 413.615 403.361 418.539C400.132 423.462 380.518 435.182 376.02 459.347Z" fill="#BA68C8"/>
<path d="M372.844 458.044C372.98 458.041 373.109 457.987 373.205 457.891C373.301 457.795 373.356 457.665 373.359 457.529C373.234 429.851 399.219 411.15 399.485 410.964C399.54 410.926 399.587 410.877 399.623 410.82C399.659 410.763 399.683 410.7 399.694 410.633C399.705 410.567 399.702 410.499 399.686 410.434C399.67 410.369 399.641 410.307 399.6 410.254C399.522 410.144 399.403 410.07 399.271 410.047C399.138 410.024 399.001 410.053 398.89 410.13C398.624 410.316 372.214 429.336 372.329 457.529C372.329 457.666 372.384 457.797 372.48 457.893C372.577 457.99 372.708 458.044 372.844 458.044Z" fill="white"/>
<path d="M57.8854 445.436L65.6922 440.166C65.6922 440.166 69.1254 419.762 65.9317 401.762C61.4428 376.514 43.9929 368.122 37.783 370.783C31.573 373.445 30.2423 380.959 41.8372 395.366C48.7125 403.838 57.6459 421.927 57.8854 445.436Z" fill="#BA68C8"/>
<g opacity="0.15">
<path d="M57.8854 445.436L65.6922 440.166C65.6922 440.166 69.1254 419.762 65.9317 401.762C61.4428 376.514 43.9929 368.122 37.783 370.783C31.573 373.445 30.2423 380.959 41.8372 395.366C48.7125 403.838 57.6459 421.927 57.8854 445.436Z" fill="black"/>
</g>
<path d="M60.5644 435.327H60.4845C60.4048 435.322 60.327 435.3 60.2563 435.263C60.1855 435.226 60.1234 435.174 60.074 435.111C60.0246 435.049 59.989 434.976 59.9696 434.899C59.9501 434.821 59.9472 434.74 59.9611 434.662C62.7822 410.895 52.7487 385.098 41.8281 374.833C41.723 374.727 41.6641 374.584 41.6641 374.434C41.6641 374.285 41.723 374.141 41.8281 374.035C41.8801 373.982 41.9423 373.94 42.0108 373.911C42.0794 373.882 42.153 373.867 42.2273 373.867C42.3017 373.867 42.3753 373.882 42.4438 373.911C42.5124 373.94 42.5745 373.982 42.6265 374.035C53.7512 384.485 63.971 410.709 61.1144 434.821C61.0977 434.957 61.0331 435.083 60.9324 435.175C60.8316 435.268 60.7012 435.322 60.5644 435.327Z" fill="white"/>
<path d="M37.4454 459.229C36.2034 459.974 32.5839 457.286 31.5815 456.639C29.8634 455.517 28.4639 453.971 27.5184 452.15C26.4576 450.085 26.064 447.741 26.3917 445.443C26.5734 444.243 26.8372 443.058 27.1813 441.894C27.4918 440.732 27.8023 439.57 28.0684 438.399C28.4618 437.26 28.6129 436.051 28.512 434.851C28.166 432.482 26.028 430.858 24.0763 429.466C21.9294 427.913 19.6406 425.864 19.6406 423.007C19.7501 420.763 20.6091 418.62 22.0802 416.922C23.4109 415.147 25.0078 413.604 26.2054 411.75C27.1419 410.465 27.6199 408.903 27.5627 407.314C27.4085 406.334 27.0585 405.396 26.5337 404.555C25.4868 402.71 24.1295 401.006 23.3932 399.046C22.6569 397.085 22.7101 394.566 24.2803 393.102C25.5312 391.904 27.4385 391.709 29.1685 391.789C30.7986 391.951 32.3732 392.469 33.7816 393.306C38.368 395.746 41.0649 401.068 45.9175 402.923C47.7894 403.632 49.8298 403.757 51.7726 404.236C53.7155 404.715 55.7204 405.664 56.6519 407.429C58.4882 410.933 55.2857 415.351 56.5986 419.068C57.7697 422.369 61.0343 423.575 62.8796 426.529C63.6285 427.841 63.9393 429.358 63.7667 430.858C63.6626 433.392 63.0943 435.885 62.09 438.213C60.935 440.627 59.6313 442.968 58.1866 445.221C58.1866 445.221 37.6317 459.114 37.4454 459.229Z" fill="#BA68C8"/>
<path d="M49.4393 451.869C49.3647 451.868 49.2911 451.852 49.2227 451.822C49.1542 451.793 49.0923 451.75 49.0404 451.696C48.9885 451.643 48.9477 451.58 48.9202 451.51C48.8928 451.441 48.8792 451.367 48.8804 451.292C49.3772 428.83 38.3235 404.274 30.499 397.177C30.3878 397.077 30.3207 396.937 30.3124 396.787C30.3041 396.637 30.3552 396.491 30.4546 396.379C30.5067 396.326 30.5688 396.283 30.6373 396.255C30.7059 396.226 30.7795 396.211 30.8538 396.211C30.9282 396.211 31.0018 396.226 31.0703 396.255C31.1389 396.283 31.201 396.326 31.253 396.379C39.2373 403.564 50.5127 428.546 50.0071 451.319C50.0059 451.392 49.9903 451.465 49.9611 451.532C49.932 451.6 49.8898 451.66 49.8371 451.712C49.7844 451.763 49.7221 451.803 49.6539 451.83C49.5856 451.857 49.5127 451.87 49.4393 451.869Z" fill="white"/>
<path d="M45.2971 424.506C45.2447 424.519 45.1898 424.519 45.1374 424.506C37.8807 422.412 28.8851 422.199 28.7964 422.19C28.7222 422.189 28.649 422.173 28.5811 422.144C28.5131 422.114 28.4518 422.071 28.4006 422.017C28.3494 421.964 28.3094 421.9 28.2829 421.831C28.2564 421.762 28.244 421.688 28.2464 421.614C28.245 421.539 28.2592 421.464 28.288 421.395C28.3168 421.326 28.3597 421.264 28.4139 421.212C28.4681 421.16 28.5325 421.12 28.6029 421.095C28.6733 421.069 28.7483 421.059 28.823 421.064C28.9117 421.064 38.0492 421.285 45.4479 423.415C45.5909 423.458 45.7111 423.556 45.7825 423.687C45.8539 423.818 45.8708 423.972 45.8294 424.115C45.7948 424.229 45.7243 424.329 45.6283 424.399C45.5323 424.47 45.4161 424.507 45.2971 424.506Z" fill="white"/>
<path d="M254.384 430.01L251.022 428.067C250.462 427.703 249.995 427.212 249.661 426.634C249.326 426.056 249.133 425.407 249.097 424.74V284.999C249.133 284.333 249.326 283.685 249.659 283.107C249.991 282.529 250.455 282.038 251.013 281.672L344.472 227.717C345.068 227.415 345.726 227.258 346.393 227.258C347.061 227.258 347.718 227.415 348.314 227.717L351.676 229.659C352.236 230.023 352.703 230.514 353.037 231.092C353.372 231.67 353.565 232.319 353.601 232.986V372.728C353.564 373.393 353.372 374.041 353.039 374.619C352.706 375.197 352.242 375.689 351.685 376.054L258.225 430.019C257.63 430.321 256.971 430.478 256.304 430.476C255.636 430.475 254.978 430.315 254.384 430.01Z" fill="#455A64"/>
<path d="M353.603 232.676C353.47 231.682 352.662 231.318 351.695 231.877L258.227 285.842C257.662 286.196 257.195 286.687 256.87 287.27L249.657 283.109C249.98 282.522 250.447 282.028 251.015 281.672L344.474 227.717C345.069 227.415 345.727 227.258 346.395 227.258C347.062 227.258 347.72 227.415 348.315 227.717L351.678 229.659C352.197 229.994 352.638 230.436 352.97 230.957C353.302 231.478 353.518 232.064 353.603 232.676Z" fill="#455A64"/>
<path d="M257.898 430.17C257.33 430.4 256.72 430.505 256.108 430.479C255.496 430.453 254.896 430.296 254.35 430.019L250.979 428.067C250.421 427.701 249.957 427.21 249.624 426.632C249.292 426.054 249.099 425.406 249.062 424.74V284.999C249.085 284.332 249.278 283.682 249.621 283.109L256.834 287.27C256.483 287.843 256.288 288.497 256.266 289.169V428.91C256.302 430.01 256.993 430.516 257.898 430.17Z" fill="#263238"/>
<path d="M256.301 289.188V428.912C256.301 430.136 257.188 430.633 258.226 430.021L351.685 376.056C352.243 375.691 352.707 375.199 353.04 374.621C353.373 374.043 353.565 373.395 353.602 372.73V232.988C353.602 231.764 352.715 231.267 351.685 231.879L258.226 285.844C257.663 286.209 257.195 286.703 256.861 287.284C256.526 287.866 256.334 288.518 256.301 289.188Z" fill="#37474F"/>
<path d="M234.478 342.408C233.271 341.689 227.674 338.505 227.381 338.336C227.153 338.2 226.958 338.014 226.811 337.793C226.664 337.572 226.569 337.32 226.533 337.057C226.496 336.794 226.519 336.526 226.6 336.273C226.68 336.02 226.817 335.788 226.999 335.595L249.098 311.891L256.301 316.025L234.212 339.747C234.038 339.931 233.906 340.151 233.825 340.391C233.743 340.631 233.714 340.886 233.74 341.138C233.765 341.39 233.844 341.634 233.971 341.853C234.098 342.072 234.271 342.261 234.478 342.408Z" fill="#455A64"/>
<path d="M256.301 316.055L234.212 339.75C233.966 340.012 233.806 340.342 233.752 340.697C233.699 341.052 233.754 341.415 233.91 341.737C234.067 342.06 234.318 342.328 234.63 342.505C234.942 342.683 235.3 342.761 235.658 342.731L256.301 341.028V316.055Z" fill="#37474F"/>
<path d="M304.952 273.397C315.846 267.107 324.673 272.208 324.673 284.788C324.673 297.367 315.846 312.652 304.952 318.942C294.058 325.232 285.231 320.131 285.231 307.56C285.231 294.99 294.058 279.687 304.952 273.397Z" fill="#BA68C8"/>
<path d="M304.81 283.297C308.359 281.256 311.207 282.906 311.207 286.987C311.086 289.205 310.444 291.364 309.332 293.288C308.221 295.211 306.672 296.846 304.81 298.059C301.262 300.099 298.405 298.449 298.405 294.368C298.527 292.149 299.171 289.99 300.284 288.066C301.396 286.143 302.947 284.508 304.81 283.297Z" fill="white"/>
<path d="M317.425 305.043C317.425 298.345 312.714 295.621 306.912 298.975L303.284 301.068C297.482 304.422 292.771 312.601 292.771 319.281V321.117C293.867 321.468 295.01 321.644 296.16 321.641C299.273 321.535 302.303 320.618 304.952 318.979C309.995 315.873 314.261 311.655 317.425 306.648V305.043Z" fill="white"/>
<path d="M292.461 381.202L317.443 366.778C318.507 366.166 319.368 366.662 319.368 367.887V375.933C319.332 376.6 319.139 377.249 318.804 377.827C318.469 378.405 318.003 378.896 317.443 379.26L292.461 393.684C291.397 394.297 290.536 393.8 290.536 392.576V384.529C290.572 383.862 290.766 383.213 291.1 382.635C291.435 382.057 291.901 381.566 292.461 381.202Z" fill="#BA68C8"/>
<path d="M280.229 363.231L329.651 334.683C330.919 333.947 331.957 334.541 331.957 336.014V339.003C331.914 339.803 331.683 340.582 331.282 341.275C330.881 341.969 330.322 342.558 329.651 342.996L280.202 371.544C278.933 372.28 277.904 371.685 277.904 370.213V367.25C277.945 366.444 278.177 365.658 278.581 364.96C278.985 364.261 279.55 363.668 280.229 363.231Z" fill="#FAFAFA"/>
<path d="M286.011 342.573C286.685 342.183 287.208 342.12 287.581 342.395C287.954 342.67 288.14 343.283 288.14 344.223C288.159 345.081 287.967 345.931 287.581 346.698C287.232 347.391 286.686 347.966 286.011 348.348L284.68 349.12V351.985C284.677 352.084 284.653 352.181 284.609 352.269C284.578 352.35 284.522 352.418 284.449 352.464L283.775 352.855C283.752 352.872 283.724 352.881 283.695 352.881C283.667 352.881 283.638 352.872 283.615 352.855C283.568 352.795 283.545 352.718 283.553 352.642V344.347C283.553 344.249 283.574 344.152 283.615 344.063C283.649 343.984 283.704 343.917 283.775 343.868L286.011 342.573ZM284.68 347.514L285.966 346.769C286.277 346.594 286.539 346.344 286.729 346.042C286.931 345.685 287.029 345.28 287.013 344.871C287.013 344.391 286.916 344.116 286.729 344.037C286.598 344.005 286.461 344.003 286.328 344.032C286.196 344.062 286.072 344.121 285.966 344.205L284.68 344.95V347.514Z" fill="#FAFAFA"/>
<path d="M291.858 339.196C291.946 339.143 292.017 339.143 292.062 339.196C292.119 339.276 292.158 339.366 292.177 339.462L294.226 346.4C294.226 346.4 294.226 346.453 294.226 346.48C294.225 346.578 294.201 346.676 294.155 346.763C294.124 346.844 294.068 346.912 293.996 346.959L293.392 347.305C293.286 347.367 293.206 347.376 293.162 347.305C293.119 347.26 293.088 347.205 293.073 347.145L292.709 345.93L290.048 347.455L289.693 349.088C289.668 349.176 289.635 349.262 289.595 349.345C289.551 349.453 289.469 349.541 289.365 349.593L288.762 349.939C288.739 349.958 288.711 349.968 288.682 349.968C288.653 349.968 288.624 349.958 288.602 349.939C288.555 349.882 288.533 349.809 288.54 349.735C288.535 349.703 288.535 349.67 288.54 349.638L290.58 340.341C290.605 340.204 290.643 340.07 290.696 339.941C290.739 339.848 290.81 339.771 290.9 339.72L291.858 339.196ZM292.319 344.572L291.432 341.441L290.545 345.628L292.319 344.572Z" fill="#FAFAFA"/>
<path d="M297.331 335.911C297.628 335.724 297.966 335.611 298.316 335.583C298.563 335.561 298.812 335.617 299.026 335.743C299.22 335.869 299.372 336.051 299.46 336.266C299.557 336.484 299.611 336.719 299.62 336.958C299.626 337.057 299.605 337.155 299.558 337.242C299.527 337.322 299.471 337.39 299.398 337.437L298.813 337.774C298.715 337.827 298.644 337.836 298.6 337.774C298.545 337.738 298.499 337.689 298.467 337.632C298.431 337.552 298.38 337.481 298.316 337.421C298.252 337.362 298.176 337.316 298.094 337.286C297.824 337.248 297.55 337.318 297.331 337.481C297.187 337.574 297.051 337.678 296.923 337.792C296.791 337.913 296.675 338.05 296.577 338.2C296.483 338.344 296.405 338.499 296.347 338.661C296.294 338.816 296.267 338.977 296.267 339.14C296.256 339.29 296.284 339.439 296.347 339.575C296.374 339.623 296.412 339.663 296.459 339.692C296.505 339.722 296.558 339.739 296.613 339.744C296.777 339.772 296.945 339.772 297.109 339.744L297.881 339.575C298.169 339.49 298.469 339.454 298.768 339.469C298.982 339.468 299.191 339.536 299.363 339.664C299.525 339.8 299.643 339.983 299.7 340.187C299.787 340.474 299.826 340.774 299.815 341.074C299.815 341.471 299.758 341.865 299.647 342.245C299.538 342.636 299.38 343.012 299.176 343.363C298.962 343.723 298.706 344.056 298.414 344.357C298.115 344.666 297.775 344.932 297.402 345.146C297.129 345.313 296.829 345.43 296.515 345.492C296.26 345.541 295.996 345.52 295.752 345.43C295.53 345.327 295.347 345.156 295.229 344.942C295.084 344.668 295.005 344.365 294.998 344.055C294.997 343.954 295.018 343.854 295.06 343.762C295.099 343.687 295.158 343.623 295.229 343.576L295.814 343.239C295.903 343.186 295.974 343.168 296.027 343.195C296.08 343.221 296.116 343.265 296.151 343.345C296.188 343.437 296.236 343.523 296.293 343.603C296.348 343.68 296.426 343.739 296.515 343.771C296.632 343.798 296.753 343.798 296.87 343.771C297.058 343.727 297.238 343.652 297.402 343.549C297.574 343.451 297.738 343.338 297.89 343.212C298.188 342.976 298.426 342.672 298.582 342.325C298.653 342.147 298.689 341.958 298.689 341.766C298.697 341.697 298.691 341.626 298.671 341.559C298.651 341.492 298.618 341.43 298.573 341.376C298.525 341.334 298.469 341.302 298.407 341.284C298.346 341.265 298.282 341.261 298.218 341.269C298.017 341.278 297.817 341.311 297.624 341.367C297.393 341.42 297.127 341.482 296.817 341.536C296.579 341.595 296.333 341.613 296.089 341.589C295.897 341.576 295.716 341.498 295.575 341.367C295.421 341.217 295.314 341.026 295.264 340.817C295.193 340.509 295.16 340.193 295.167 339.877C295.166 339.486 295.223 339.097 295.335 338.723C295.441 338.338 295.596 337.969 295.796 337.623C295.988 337.28 296.221 336.962 296.488 336.674C296.732 336.381 297.016 336.124 297.331 335.911Z" fill="#FAFAFA"/>
<path d="M303.16 332.545C303.455 332.351 303.793 332.236 304.145 332.207C304.392 332.186 304.64 332.242 304.854 332.367C305.044 332.497 305.192 332.679 305.28 332.891C305.377 333.109 305.431 333.344 305.44 333.583C305.45 333.681 305.428 333.781 305.378 333.866C305.346 333.947 305.29 334.015 305.218 334.062L304.632 334.399C304.544 334.452 304.473 334.47 304.42 334.399C304.363 334.363 304.319 334.31 304.295 334.248C304.214 334.092 304.078 333.972 303.914 333.911C303.782 333.891 303.647 333.899 303.517 333.932C303.388 333.966 303.266 334.025 303.16 334.106C303.012 334.196 302.872 334.3 302.743 334.416C302.614 334.538 302.501 334.675 302.406 334.825C302.308 334.967 302.23 335.122 302.175 335.286C302.12 335.44 302.09 335.601 302.086 335.765C302.076 335.914 302.103 336.064 302.166 336.2C302.194 336.247 302.232 336.287 302.278 336.317C302.325 336.346 302.378 336.364 302.432 336.368C302.597 336.397 302.765 336.397 302.929 336.368L303.701 336.2C303.99 336.119 304.289 336.083 304.588 336.093C304.802 336.091 305.011 336.16 305.183 336.288C305.345 336.427 305.465 336.608 305.529 336.812C305.607 337.101 305.643 337.4 305.635 337.699C305.634 338.095 305.578 338.489 305.466 338.87C305.358 339.261 305.2 339.637 304.996 339.988C304.782 340.351 304.526 340.687 304.233 340.99C303.934 341.292 303.597 341.554 303.231 341.771C302.957 341.936 302.657 342.054 302.344 342.117C302.091 342.165 301.831 342.144 301.59 342.055C301.363 341.955 301.176 341.783 301.057 341.567C300.912 341.294 300.835 340.989 300.836 340.68C300.825 340.581 300.847 340.481 300.898 340.396C300.929 340.315 300.985 340.247 301.057 340.201L301.643 339.863C301.732 339.81 301.811 339.792 301.856 339.819C301.887 339.833 301.914 339.854 301.935 339.88C301.957 339.906 301.972 339.937 301.98 339.97C302.02 340.059 302.068 340.145 302.122 340.227C302.18 340.305 302.261 340.364 302.353 340.396C302.469 340.423 302.591 340.423 302.707 340.396C302.896 340.351 303.076 340.276 303.24 340.174C303.408 340.074 303.568 339.961 303.719 339.837C303.875 339.715 304.012 339.572 304.127 339.411C304.242 339.258 304.337 339.091 304.411 338.914C304.482 338.736 304.518 338.547 304.517 338.355C304.526 338.286 304.52 338.215 304.5 338.148C304.48 338.081 304.447 338.019 304.402 337.965C304.354 337.923 304.297 337.891 304.236 337.873C304.175 337.855 304.11 337.85 304.047 337.859C303.849 337.871 303.653 337.903 303.461 337.956C303.231 338.009 302.956 338.071 302.654 338.125C302.414 338.184 302.165 338.202 301.918 338.178C301.725 338.168 301.543 338.089 301.403 337.956C301.253 337.805 301.148 337.614 301.102 337.406C301.023 337.102 300.987 336.789 300.995 336.475C300.998 336.081 301.055 335.69 301.164 335.312C301.274 334.929 301.428 334.56 301.625 334.212C301.817 333.867 302.053 333.548 302.326 333.263C302.565 332.982 302.846 332.739 303.16 332.545Z" fill="#FAFAFA"/>
<path d="M309.627 333.652L308.908 337.901C308.887 338.029 308.851 338.154 308.802 338.274C308.767 338.37 308.702 338.451 308.616 338.505L307.941 338.895C307.853 338.948 307.79 338.948 307.746 338.895C307.687 338.822 307.652 338.732 307.649 338.638L306.584 331.141C306.584 331.141 306.584 331.07 306.584 331.044C306.587 330.945 306.611 330.848 306.655 330.76C306.689 330.681 306.744 330.613 306.815 330.565L307.427 330.21C307.478 330.189 307.535 330.189 307.586 330.21C307.64 330.21 307.675 330.281 307.693 330.423L308.394 335.471L309.006 331.682C309.022 331.588 309.049 331.496 309.086 331.407C309.121 331.295 309.197 331.2 309.299 331.141L309.982 330.742C310.079 330.689 310.15 330.698 310.195 330.742C310.233 330.799 310.26 330.862 310.274 330.928L310.895 334.007L311.596 328.152C311.605 328.037 311.638 327.925 311.694 327.823C311.735 327.757 311.79 327.7 311.854 327.655L312.466 327.3C312.489 327.283 312.517 327.273 312.546 327.273C312.574 327.273 312.602 327.283 312.625 327.3C312.651 327.329 312.67 327.363 312.682 327.399C312.694 327.436 312.699 327.475 312.696 327.513C312.7 327.548 312.7 327.584 312.696 327.619L311.632 336.34C311.614 336.468 311.581 336.593 311.534 336.713C311.494 336.807 311.426 336.888 311.339 336.943L310.656 337.334C310.576 337.378 310.514 337.378 310.47 337.334C310.425 337.252 310.389 337.166 310.363 337.076L309.627 333.652Z" fill="#FAFAFA"/>
<path d="M313.779 329.899C313.799 329.407 313.858 328.918 313.957 328.435C314.058 327.964 314.213 327.506 314.418 327.069C314.614 326.645 314.864 326.248 315.163 325.889C315.467 325.533 315.83 325.233 316.237 325.002C316.549 324.79 316.915 324.67 317.292 324.656C317.574 324.659 317.844 324.77 318.046 324.967C318.261 325.208 318.416 325.497 318.499 325.81C318.613 326.217 318.676 326.637 318.685 327.06C318.685 327.22 318.685 327.397 318.685 327.593C318.685 327.788 318.685 327.992 318.685 328.205C318.685 328.418 318.685 328.622 318.685 328.817C318.685 329.012 318.685 329.198 318.685 329.367C318.666 329.856 318.607 330.343 318.508 330.822C318.405 331.292 318.254 331.75 318.055 332.188C317.854 332.611 317.6 333.007 317.301 333.368C316.998 333.721 316.638 334.02 316.237 334.255C315.917 334.466 315.546 334.585 315.163 334.601C315.025 334.604 314.888 334.579 314.76 334.527C314.632 334.475 314.515 334.398 314.418 334.299C314.187 334.051 314.027 333.744 313.957 333.412C313.851 333.003 313.792 332.584 313.779 332.161C313.779 332.002 313.779 331.824 313.779 331.629C313.779 331.434 313.779 331.23 313.779 331.017C313.779 330.804 313.779 330.609 313.779 330.405C313.779 330.201 313.77 330.059 313.779 329.899ZM317.559 327.779C317.578 327.562 317.554 327.343 317.487 327.136C317.42 326.928 317.311 326.737 317.168 326.572C316.938 326.368 316.618 326.377 316.237 326.572C315.823 326.816 315.494 327.182 315.296 327.619C315.045 328.136 314.911 328.703 314.906 329.278C314.906 329.606 314.906 329.97 314.906 330.369C314.906 330.769 314.906 331.123 314.906 331.443C314.886 331.66 314.911 331.879 314.978 332.086C315.045 332.293 315.153 332.485 315.296 332.649C315.527 332.845 315.846 332.827 316.237 332.605C316.644 332.36 316.968 331.998 317.168 331.567C317.42 331.053 317.553 330.489 317.559 329.917C317.559 329.58 317.559 329.216 317.559 328.817C317.559 328.418 317.567 328.098 317.559 327.779Z" fill="#FAFAFA"/>
<path d="M322.552 321.453C323.253 321.053 323.777 320.991 324.14 321.284C324.356 321.521 324.516 321.804 324.61 322.11C324.703 322.417 324.728 322.741 324.682 323.058C324.689 323.661 324.596 324.26 324.407 324.833C324.226 325.365 323.946 325.859 323.582 326.287L324.735 328.798C324.739 328.839 324.739 328.881 324.735 328.922C324.735 329.002 324.717 329.081 324.682 329.153C324.657 329.217 324.614 329.273 324.557 329.313L323.848 329.721C323.732 329.783 323.652 329.792 323.599 329.721C323.552 329.674 323.513 329.62 323.484 329.561L322.393 327.192L321.284 327.831V330.83C321.285 330.928 321.263 331.025 321.222 331.113C321.185 331.191 321.13 331.258 321.062 331.309L320.388 331.699C320.365 331.718 320.337 331.728 320.308 331.728C320.279 331.728 320.251 331.718 320.228 331.699C320.203 331.672 320.183 331.64 320.171 331.604C320.159 331.569 320.154 331.532 320.157 331.495V323.2C320.16 323.101 320.184 323.005 320.228 322.916C320.259 322.836 320.315 322.768 320.388 322.721L322.552 321.453ZM321.302 326.225L322.552 325.551C322.858 325.38 323.119 325.14 323.315 324.85C323.521 324.508 323.62 324.113 323.599 323.715C323.599 323.236 323.502 322.97 323.315 322.916C323.045 322.88 322.772 322.95 322.552 323.111L321.346 323.803L321.302 326.225Z" fill="#FAFAFA"/>
<path d="M328.496 318.045C328.818 317.835 329.187 317.707 329.57 317.673C329.847 317.662 330.118 317.761 330.324 317.948C330.559 318.195 330.721 318.502 330.794 318.835C330.913 319.275 330.979 319.727 330.989 320.183C330.989 320.804 330.989 321.443 330.989 322.091C330.971 322.619 330.905 323.144 330.794 323.661C330.692 324.141 330.538 324.608 330.332 325.054C330.134 325.463 329.884 325.845 329.587 326.189C329.291 326.542 328.937 326.842 328.54 327.076L326.438 328.221C326.416 328.239 326.387 328.25 326.358 328.25C326.329 328.25 326.301 328.239 326.278 328.221C326.252 328.194 326.233 328.162 326.22 328.126C326.208 328.091 326.204 328.054 326.207 328.017V319.722C326.21 319.623 326.234 319.526 326.278 319.438C326.31 319.358 326.365 319.289 326.438 319.243L328.496 318.045ZM329.862 320.804C329.858 320.564 329.823 320.325 329.756 320.094C329.715 319.92 329.625 319.76 329.499 319.633C329.443 319.577 329.376 319.534 329.303 319.505C329.23 319.476 329.151 319.462 329.073 319.465C328.851 319.479 328.636 319.553 328.452 319.678L327.334 320.316V326.1L328.496 325.435C328.721 325.304 328.922 325.136 329.09 324.938C329.256 324.744 329.396 324.529 329.507 324.299C329.618 324.055 329.701 323.799 329.756 323.537C329.818 323.263 329.853 322.983 329.862 322.703C329.889 322.055 329.889 321.425 329.862 320.804Z" fill="#FAFAFA"/>
<path d="M206.674 189.278C208.205 189.618 209.681 190.174 211.056 190.928C212.374 191.636 213.554 192.573 214.543 193.695C215.489 194.775 216.191 196.046 216.601 197.421C217.02 198.894 217.05 200.449 216.69 201.937C216.452 203.116 215.985 204.238 215.315 205.237C214.703 206.092 213.974 206.856 213.15 207.508C212.341 208.137 211.477 208.692 210.569 209.167L208.014 210.524C207.244 210.926 206.513 211.398 205.831 211.935C205.214 212.408 204.741 213.044 204.465 213.771C204.33 214.103 204.106 214.392 203.817 214.605C203.681 214.711 203.522 214.785 203.353 214.82C203.184 214.855 203.009 214.852 202.842 214.809L199.08 213.975C198.899 213.937 198.727 213.864 198.575 213.759C198.423 213.653 198.293 213.519 198.193 213.363C198.087 213.218 198.016 213.05 197.987 212.873C197.958 212.696 197.97 212.514 198.024 212.343C198.327 211.178 198.861 210.086 199.595 209.132C200.264 208.287 201.039 207.533 201.901 206.887C202.741 206.272 203.631 205.729 204.563 205.264C205.45 204.811 206.337 204.377 207.109 203.942C207.827 203.556 208.502 203.095 209.122 202.567C209.667 202.111 210.045 201.487 210.196 200.793C210.337 200.19 210.33 199.562 210.176 198.962C210.021 198.363 209.724 197.81 209.309 197.35C208.271 196.218 206.885 195.465 205.37 195.212C202.567 194.591 200.201 195.535 198.273 198.042C198.087 198.316 197.852 198.554 197.581 198.743C197.275 198.895 196.921 198.921 196.596 198.814L192.595 197.927C192.31 197.872 192.058 197.706 191.894 197.466C191.807 197.337 191.748 197.192 191.722 197.039C191.696 196.886 191.704 196.729 191.744 196.579C192.084 195.346 192.717 194.214 193.589 193.279C194.572 192.194 195.741 191.293 197.04 190.617C198.46 189.874 199.991 189.365 201.573 189.109C203.268 188.833 205.001 188.89 206.674 189.278ZM202.425 217.826C202.777 217.908 203.082 218.125 203.276 218.43C203.47 218.735 203.537 219.104 203.463 219.458L202.504 223.805C202.472 223.987 202.402 224.16 202.298 224.313C202.194 224.466 202.059 224.595 201.901 224.692C201.753 224.794 201.584 224.865 201.407 224.898C201.23 224.932 201.048 224.928 200.872 224.887L196.578 223.902C196.396 223.872 196.222 223.802 196.069 223.698C195.916 223.594 195.787 223.458 195.691 223.299C195.592 223.149 195.524 222.981 195.492 222.804C195.46 222.627 195.464 222.445 195.505 222.27L196.472 217.923C196.555 217.571 196.771 217.264 197.076 217.069C197.381 216.874 197.749 216.804 198.104 216.876L202.425 217.826Z" fill="#BA68C8"/>
<path d="M211.411 230.896C212.48 230.725 213.566 230.704 214.64 230.834C215.666 230.956 216.663 231.256 217.586 231.721C218.464 232.177 219.238 232.812 219.857 233.584C220.413 234.34 220.805 235.205 221.007 236.122C221.208 237.038 221.216 237.987 221.028 238.907C220.859 239.614 220.587 240.293 220.221 240.921C219.868 241.532 219.458 242.108 218.996 242.642C218.544 243.174 218.109 243.68 217.71 244.168C217.319 244.622 216.972 245.112 216.672 245.632C216.391 246.087 216.249 246.614 216.264 247.149C216.256 247.398 216.186 247.642 216.06 247.858C215.996 247.958 215.911 248.042 215.812 248.107C215.712 248.171 215.6 248.213 215.483 248.231L212.822 248.657C212.698 248.679 212.57 248.677 212.446 248.649C212.323 248.622 212.206 248.57 212.103 248.497C211.998 248.431 211.911 248.341 211.848 248.235C211.784 248.128 211.747 248.008 211.74 247.885C211.628 247.059 211.688 246.22 211.917 245.419C212.126 244.709 212.424 244.03 212.804 243.396C213.177 242.788 213.605 242.215 214.082 241.684C214.552 241.152 214.969 240.655 215.377 240.176C215.741 239.748 216.057 239.281 216.317 238.783C216.548 238.354 216.632 237.862 216.557 237.381C216.49 236.958 216.322 236.557 216.067 236.213C215.812 235.868 215.478 235.59 215.093 235.403C214.139 234.942 213.06 234.811 212.023 235.03C211.085 235.168 210.212 235.592 209.525 236.244C208.837 236.897 208.368 237.747 208.182 238.676C208.13 238.9 208.04 239.113 207.916 239.306C207.758 239.475 207.543 239.579 207.313 239.599L204.509 240.051C204.312 240.089 204.108 240.048 203.942 239.936C203.856 239.877 203.784 239.801 203.731 239.712C203.677 239.624 203.643 239.525 203.631 239.422C203.548 238.541 203.685 237.654 204.03 236.84C204.381 235.893 204.898 235.016 205.556 234.25C206.278 233.411 207.128 232.692 208.076 232.121C209.098 231.501 210.231 231.085 211.411 230.896ZM215.989 250.28C216.111 250.261 216.236 250.266 216.356 250.295C216.476 250.324 216.59 250.376 216.69 250.449C216.794 250.517 216.883 250.608 216.95 250.713C217.018 250.819 217.062 250.937 217.08 251.061L217.577 254.104C217.615 254.351 217.555 254.603 217.409 254.805C217.263 255.008 217.043 255.145 216.796 255.186L213.824 255.674C213.578 255.712 213.326 255.652 213.124 255.505C213.021 255.436 212.933 255.345 212.868 255.24C212.802 255.134 212.759 255.016 212.742 254.893L212.245 251.85C212.223 251.728 212.226 251.603 212.255 251.482C212.284 251.361 212.338 251.248 212.414 251.15C212.483 251.047 212.574 250.96 212.679 250.894C212.785 250.828 212.903 250.785 213.026 250.768L215.989 250.28Z" fill="#BA68C8"/>
<g opacity="0.2">
<path d="M211.411 230.881C212.48 230.709 213.566 230.688 214.64 230.819C215.666 230.94 216.663 231.241 217.586 231.706C218.464 232.161 219.238 232.796 219.857 233.569C220.413 234.325 220.805 235.189 221.007 236.106C221.208 237.023 221.216 237.972 221.028 238.891C220.859 239.599 220.587 240.277 220.221 240.905C219.868 241.516 219.458 242.092 218.996 242.626C218.544 243.159 218.109 243.664 217.71 244.152C217.319 244.607 216.972 245.097 216.672 245.616C216.391 246.071 216.249 246.598 216.264 247.133C216.256 247.383 216.186 247.627 216.06 247.843C215.996 247.942 215.911 248.027 215.812 248.091C215.712 248.155 215.6 248.198 215.483 248.215L212.822 248.641C212.698 248.664 212.57 248.661 212.446 248.634C212.323 248.606 212.206 248.555 212.103 248.481C211.998 248.416 211.911 248.326 211.848 248.219C211.784 248.113 211.747 247.993 211.74 247.869C211.628 247.044 211.688 246.204 211.917 245.403C212.126 244.694 212.424 244.014 212.804 243.38C213.177 242.772 213.605 242.199 214.082 241.668C214.552 241.136 214.969 240.639 215.377 240.16C215.741 239.732 216.057 239.265 216.317 238.767C216.548 238.339 216.632 237.846 216.557 237.366C216.49 236.942 216.322 236.542 216.067 236.197C215.812 235.853 215.478 235.575 215.093 235.387C214.139 234.927 213.06 234.796 212.023 235.015C211.085 235.152 210.212 235.576 209.525 236.229C208.837 236.881 208.368 237.731 208.182 238.661C208.13 238.884 208.04 239.098 207.916 239.291C207.758 239.459 207.543 239.563 207.313 239.583L204.509 240.036C204.312 240.074 204.108 240.032 203.942 239.921C203.856 239.862 203.784 239.786 203.731 239.697C203.677 239.608 203.643 239.509 203.631 239.406C203.548 238.526 203.685 237.638 204.03 236.824C204.381 235.877 204.898 235 205.556 234.234C206.278 233.395 207.128 232.676 208.076 232.105C209.098 231.485 210.231 231.069 211.411 230.881ZM215.989 250.265C216.111 250.245 216.236 250.25 216.356 250.279C216.476 250.308 216.59 250.36 216.69 250.433C216.794 250.502 216.883 250.592 216.95 250.697C217.018 250.803 217.062 250.921 217.08 251.045L217.577 254.088C217.615 254.335 217.555 254.587 217.409 254.79C217.263 254.992 217.043 255.129 216.796 255.17L213.824 255.658C213.578 255.696 213.326 255.636 213.124 255.49C213.021 255.42 212.933 255.33 212.868 255.224C212.802 255.119 212.759 255.001 212.742 254.878L212.245 251.835C212.223 251.713 212.226 251.587 212.255 251.466C212.284 251.346 212.338 251.232 212.414 251.134C212.483 251.031 212.574 250.944 212.679 250.878C212.785 250.812 212.903 250.77 213.026 250.752L215.989 250.265Z" fill="black"/>
</g>
<path d="M236.499 235.678C236.62 235.762 236.723 235.87 236.801 235.995C236.879 236.12 236.93 236.259 236.952 236.405C236.98 236.549 236.978 236.698 236.946 236.842C236.914 236.985 236.853 237.12 236.766 237.239L234.654 240.211C234.57 240.332 234.462 240.434 234.337 240.512C234.212 240.59 234.072 240.641 233.927 240.663C233.782 240.692 233.634 240.69 233.49 240.658C233.347 240.626 233.211 240.564 233.093 240.477L230.183 238.41C230.062 238.327 229.96 238.219 229.883 238.094C229.807 237.969 229.758 237.828 229.74 237.683C229.711 237.538 229.713 237.39 229.745 237.246C229.777 237.103 229.839 236.967 229.926 236.849L232.064 233.877C232.237 233.636 232.498 233.473 232.79 233.423C233.082 233.373 233.382 233.441 233.625 233.611L236.499 235.678ZM248.777 215.549C249.838 216.292 250.783 217.189 251.581 218.21C252.359 219.16 252.96 220.241 253.355 221.404C253.723 222.517 253.847 223.698 253.719 224.864C253.568 226.107 253.098 227.29 252.353 228.297C251.799 229.111 251.087 229.805 250.259 230.337C249.53 230.794 248.738 231.141 247.908 231.366C247.099 231.578 246.274 231.72 245.442 231.792L243.082 232.005C242.374 232.062 241.674 232.183 240.988 232.369C240.356 232.512 239.778 232.832 239.321 233.291C239.114 233.501 238.853 233.649 238.566 233.717C238.43 233.756 238.287 233.762 238.148 233.734C238.009 233.707 237.879 233.646 237.768 233.557L235.195 231.73C234.95 231.554 234.781 231.291 234.725 230.994C234.692 230.85 234.693 230.7 234.729 230.557C234.764 230.413 234.833 230.28 234.929 230.169C235.53 229.389 236.281 228.737 237.138 228.252C237.91 227.831 238.733 227.512 239.587 227.303C240.411 227.103 241.251 226.976 242.097 226.922C242.931 226.868 243.712 226.806 244.439 226.735C245.105 226.677 245.762 226.546 246.4 226.345C246.957 226.159 247.438 225.794 247.766 225.307C248.063 224.896 248.255 224.419 248.328 223.917C248.401 223.415 248.351 222.903 248.183 222.424C247.763 221.242 246.961 220.233 245.903 219.558C243.987 218.192 241.896 218.148 239.631 219.425C239.403 219.57 239.151 219.673 238.886 219.727C238.748 219.737 238.61 219.719 238.479 219.675C238.348 219.631 238.227 219.561 238.123 219.47L235.391 217.527C235.292 217.461 235.207 217.376 235.141 217.277C235.076 217.178 235.031 217.067 235.009 216.95C234.988 216.83 234.992 216.706 235.021 216.587C235.05 216.468 235.103 216.356 235.178 216.258C235.822 215.432 236.66 214.777 237.617 214.351C238.705 213.858 239.869 213.558 241.059 213.464C242.369 213.354 243.687 213.459 244.963 213.774C246.34 214.106 247.637 214.709 248.777 215.549Z" fill="#BA68C8"/>
<g opacity="0.6">
<path d="M236.499 235.678C236.619 235.762 236.722 235.87 236.8 235.995C236.878 236.12 236.929 236.259 236.951 236.405C236.979 236.549 236.977 236.698 236.945 236.842C236.913 236.985 236.852 237.12 236.765 237.239L234.653 240.211C234.569 240.332 234.461 240.434 234.336 240.512C234.211 240.59 234.071 240.641 233.926 240.663C233.781 240.692 233.633 240.69 233.489 240.658C233.346 240.626 233.211 240.564 233.092 240.477L230.182 238.41C230.061 238.327 229.959 238.219 229.882 238.094C229.806 237.969 229.757 237.828 229.739 237.683C229.71 237.538 229.712 237.39 229.744 237.246C229.776 237.103 229.838 236.967 229.925 236.849L232.063 233.877C232.236 233.636 232.497 233.473 232.789 233.423C233.081 233.373 233.381 233.441 233.624 233.611L236.499 235.678ZM248.776 215.549C249.837 216.292 250.782 217.189 251.58 218.21C252.358 219.16 252.959 220.241 253.354 221.404C253.722 222.517 253.846 223.698 253.718 224.864C253.567 226.107 253.097 227.29 252.352 228.297C251.798 229.111 251.086 229.805 250.258 230.337C249.529 230.794 248.737 231.141 247.907 231.366C247.098 231.578 246.273 231.72 245.441 231.792L243.081 232.005C242.373 232.062 241.673 232.183 240.987 232.369C240.355 232.512 239.777 232.832 239.32 233.291C239.113 233.501 238.852 233.649 238.566 233.717C238.429 233.756 238.286 233.762 238.147 233.734C238.008 233.707 237.878 233.646 237.767 233.557L235.194 231.73C234.949 231.554 234.78 231.291 234.724 230.994C234.691 230.85 234.692 230.7 234.728 230.557C234.763 230.413 234.832 230.28 234.928 230.169C235.529 229.389 236.28 228.737 237.137 228.252C237.909 227.831 238.732 227.512 239.586 227.303C240.41 227.103 241.25 226.976 242.096 226.922C242.93 226.868 243.711 226.806 244.438 226.735C245.104 226.677 245.761 226.546 246.399 226.345C246.956 226.159 247.437 225.794 247.765 225.307C248.062 224.896 248.254 224.419 248.327 223.917C248.4 223.415 248.35 222.903 248.182 222.424C247.762 221.242 246.96 220.233 245.902 219.558C243.986 218.192 241.895 218.148 239.63 219.425C239.402 219.57 239.15 219.673 238.885 219.727C238.747 219.737 238.609 219.719 238.478 219.675C238.347 219.631 238.226 219.561 238.122 219.47L235.39 217.527C235.291 217.461 235.206 217.376 235.14 217.277C235.075 217.178 235.03 217.067 235.008 216.95C234.987 216.83 234.991 216.706 235.02 216.587C235.049 216.468 235.102 216.356 235.177 216.258C235.821 215.432 236.659 214.777 237.616 214.351C238.704 213.858 239.868 213.558 241.058 213.464C242.368 213.354 243.686 213.459 244.962 213.774C246.339 214.106 247.636 214.709 248.776 215.549Z" fill="white"/>
</g>
<path d="M170.437 314.217H138.917V237.852C138.917 231.219 141.552 224.858 146.242 220.169C150.932 215.479 157.293 212.844 163.925 212.844H166.835C173.468 212.844 179.829 215.479 184.519 220.169C189.209 224.858 191.843 231.219 191.843 237.852V292.854C191.832 298.524 189.571 303.958 185.558 307.962C181.545 311.967 176.107 314.217 170.437 314.217Z" fill="#263238"/>
<path d="M135.849 498.062C135.292 501.227 134.995 504.431 134.962 507.644C134.847 513.463 133.782 515.53 133.64 520.303C133.472 525.759 134.421 527.799 136.63 530.869C138.839 533.938 144.614 536.715 147.116 531.534C149.617 526.353 149.254 522.955 148.464 517.606C147.657 512.07 147.577 509.01 147.08 504.796C146.672 501.079 146.193 498.249 146.193 498.249L135.849 498.062Z" fill="#263238"/>
<path d="M152.365 459.401L133.203 459.055C133.487 471.847 135.519 486.05 135.865 498.089C135.935 500.351 135.811 515.645 136.663 520.267C137.949 527.258 146.235 526.308 146.679 522.13C147.122 517.952 146.146 500.094 146.173 498.248C146.093 490.548 149.722 477.551 151.593 463.73C151.673 463.065 152.277 460.066 152.365 459.401Z" fill="#FFA8A7"/>
<path d="M176.984 488.103C176.984 488.103 176.23 487.695 176.097 488.502C175.911 489.46 175.627 491.439 175.21 493.018C174.66 495.209 174.198 498.82 174.527 500.612C174.855 502.404 179.024 504.693 181.73 505.526C185.065 506.556 188.106 508.365 190.602 510.805C193.263 513.324 199.056 515.702 203.021 515.675C207.679 515.675 210.926 514.123 212.461 511.63C213.995 509.137 211.059 508.835 205.736 505.42L201.611 502.759C193.174 497.249 190.078 494.304 187.71 488.795L176.984 488.103Z" fill="#263238"/>
<path d="M187.781 484.689C187.64 480.733 190.372 447.102 190.372 447.102L172.177 455.396C176.071 478.657 176.905 484.148 176.967 487.954C176.887 488.273 176.855 488.602 176.87 488.93C176.87 493.445 181.988 495.885 185.963 498.901C189.341 501.548 192.942 503.899 196.724 505.927C199.616 507.373 205.489 507.507 206.216 505.652C201.372 501.953 194.328 496.417 190.478 492.195C188.598 490.207 187.923 488.655 187.781 484.689Z" fill="#FFA8A7"/>
<path d="M141.055 334.578C134.065 349.917 134.065 361.787 135.227 381.366C136.256 399.33 137.968 415.165 137.968 415.165C137.702 418.35 133.275 424.569 132.699 438.657C132.166 451.822 133.586 468.562 133.586 468.562C133.586 468.562 143.53 474.071 150.885 468.509C150.885 468.509 157.982 434.629 160.058 418.146C161.832 403.766 165.026 385.393 165.026 385.393L171.741 418.049C170.292 422.682 169.241 427.431 168.601 432.243C167.66 441.939 173.09 460.977 173.09 460.977C173.09 460.977 183.363 464.038 189.635 458.475C189.635 458.475 191.977 427.523 192.855 415.849C194.026 400.208 191.56 357.874 189.635 335.456L141.055 334.578Z" fill="#455A64"/>
<path d="M165.044 385.357L167.803 360.748C167.803 360.748 180.17 359.098 185.776 353.828C184.172 356.339 182.034 358.465 179.515 360.057C176.996 361.648 174.157 362.666 171.201 363.037L167.209 385.934L171.742 418.039L165.044 385.357Z" fill="#263238"/>
<path d="M215.123 328.519C215.633 324.028 215.859 319.509 215.797 314.99C215.522 311.087 214.821 310.448 209.365 303.537C202.002 294.196 195.712 285.795 189.059 277.447C184.303 271.485 179.3 270.571 174.439 270.837C171.032 271.024 177.685 287.409 181.03 297.106L200.13 317.669C200.722 318.481 200.993 319.482 200.893 320.482L199.74 337.976L205.462 345.641C205.462 345.641 214.129 338.171 215.123 328.519Z" fill="#FFA8A7"/>
<path d="M156.022 271.377C152.322 271.634 145.598 272.264 145.598 272.264C141.721 274.428 140.736 276.211 140.018 281.357C139.707 283.557 141.499 289.403 143.034 297.716L145.944 313.125L145.624 320.772C144.116 325.438 140.701 331.231 137.685 339.775C152.5 348.043 164.92 348.353 176.186 346.872C184.774 345.763 189.325 343.687 190.842 341.629C190.522 333.192 189.955 327.976 189.777 319.158C189.715 315.458 189.937 311.715 190.088 307.456C195.845 302.719 195.916 294.841 192.749 289.714C185.448 277.888 178.342 270.445 173.64 270.826L156.022 271.377Z" fill="#BA68C8"/>
<path opacity="0.6" d="M156.022 271.377C152.322 271.634 145.598 272.264 145.598 272.264C141.721 274.428 140.736 276.211 140.018 281.357C139.707 283.557 141.499 289.403 143.034 297.716L145.944 313.125L145.624 320.772C144.116 325.438 140.701 331.231 137.685 339.775C152.5 348.043 164.92 348.353 176.186 346.872C184.774 345.763 189.325 343.687 190.842 341.629C190.522 333.192 189.955 327.976 189.777 319.158C189.715 315.458 189.937 311.715 190.088 307.456C195.845 302.719 195.916 294.841 192.749 289.714C185.448 277.888 178.342 270.445 173.64 270.826L156.022 271.377Z" fill="white"/>
<path opacity="0.1" d="M178.617 307.574C178.617 307.574 171.857 312.826 164.13 310.085C161.961 309.401 160.004 308.169 158.45 306.508C156.896 304.846 155.797 302.812 155.259 300.602C155.259 300.602 154.443 309.429 164.175 312.436C173.605 315.337 178.617 307.574 178.617 307.574Z" fill="black"/>
<path d="M187.79 247.146C187.497 259.956 183.354 263.115 181.261 264.002C179.167 264.889 175.157 264.356 171.254 263.709V271.445C171.254 271.445 175.761 276.164 175.423 279.686C175.086 283.208 168.326 283.607 163.287 280.156C160.507 278.247 157.992 275.976 155.809 273.405C155.39 272.909 155.16 272.28 155.161 271.631V253.533C155.161 253.533 153.023 255.796 149.244 253.205C148.429 252.685 147.73 252 147.194 251.196C146.657 250.391 146.294 249.483 146.127 248.53C145.96 247.577 145.993 246.6 146.225 245.661C146.456 244.722 146.88 243.841 147.47 243.074C149.12 241.131 153.307 240.998 155.312 243.961C156.448 246.17 156.598 248.397 157.867 247.51C161.238 245.079 159.428 239.526 163.5 236.864C164.837 236.167 166.225 235.574 167.652 235.09C174.918 232.579 181.216 230.468 182.733 225.5C185.59 227.132 188.145 232.038 187.79 247.146Z" fill="#FFA8A7"/>
<path d="M173.462 258.59C174.393 258.59 175.147 257.835 175.147 256.904C175.147 255.973 174.393 255.219 173.462 255.219C172.531 255.219 171.776 255.973 171.776 256.904C171.776 257.835 172.531 258.59 173.462 258.59Z" fill="#B16668"/>
<path d="M172.344 245.214C172.344 245.561 172.242 245.9 172.05 246.19C171.859 246.479 171.587 246.707 171.268 246.843C170.949 246.98 170.597 247.019 170.255 246.958C169.914 246.896 169.598 246.736 169.347 246.497C169.095 246.257 168.92 245.949 168.841 245.611C168.763 245.273 168.786 244.92 168.907 244.594C169.028 244.269 169.241 243.986 169.521 243.781C169.801 243.576 170.135 243.457 170.481 243.44C170.722 243.428 170.962 243.465 171.188 243.548C171.413 243.632 171.62 243.761 171.794 243.927C171.968 244.093 172.107 244.293 172.201 244.514C172.296 244.735 172.345 244.973 172.344 245.214Z" fill="#263238"/>
<path d="M185.785 245.387C185.803 245.604 185.778 245.822 185.71 246.029C185.643 246.237 185.536 246.428 185.394 246.593C185.252 246.759 185.078 246.894 184.883 246.991C184.688 247.089 184.476 247.146 184.259 247.161C184.04 247.181 183.819 247.154 183.61 247.083C183.402 247.011 183.212 246.896 183.051 246.745C182.891 246.594 182.765 246.41 182.681 246.207C182.597 246.003 182.557 245.784 182.564 245.564C182.542 245.345 182.564 245.124 182.629 244.914C182.695 244.705 182.802 244.51 182.946 244.344C183.089 244.177 183.265 244.041 183.462 243.945C183.66 243.848 183.875 243.793 184.095 243.783C184.314 243.773 184.534 243.807 184.739 243.885C184.945 243.962 185.133 244.081 185.291 244.234C185.449 244.386 185.575 244.57 185.66 244.773C185.745 244.975 185.787 245.193 185.785 245.413V245.387Z" fill="#263238"/>
<path d="M170.064 249.773C168.534 249.773 167.067 249.166 165.984 248.085C164.901 247.004 164.291 245.537 164.289 244.007C164.289 240.086 168.334 240.086 170.064 240.086C171.794 240.086 175.831 240.086 175.831 244.007C175.828 245.536 175.22 247.001 174.139 248.082C173.058 249.163 171.593 249.771 170.064 249.773ZM170.064 240.991C166.516 240.991 165.203 241.878 165.203 244.007C165.203 245.301 165.717 246.542 166.632 247.457C167.547 248.372 168.788 248.886 170.082 248.886C171.376 248.886 172.617 248.372 173.532 247.457C174.447 246.542 174.961 245.301 174.961 244.007C174.926 241.834 173.56 240.991 170.064 240.991Z" fill="#455A64"/>
<path d="M184.712 249.773C183.182 249.773 181.714 249.166 180.631 248.085C179.548 247.004 178.939 245.537 178.937 244.007C178.937 240.086 182.982 240.086 184.712 240.086C186.442 240.086 190.478 240.086 190.478 244.007C190.476 245.536 189.868 247.001 188.787 248.082C187.706 249.163 186.24 249.771 184.712 249.773ZM184.712 240.991C181.216 240.991 179.85 241.878 179.85 244.007C179.85 245.301 180.364 246.542 181.279 247.457C182.194 248.372 183.435 248.886 184.73 248.886C186.024 248.886 187.265 248.372 188.18 247.457C189.095 246.542 189.609 245.301 189.609 244.007C189.573 241.834 188.207 240.991 184.712 240.991Z" fill="#455A64"/>
<path d="M176.727 242.141L177.01 252.919L182.679 251.163L176.727 242.141Z" fill="#F28F8F"/>
<path d="M171.244 263.739C167.128 263.198 158.656 260.767 157.334 257.414C157.866 259.109 158.903 260.601 160.306 261.69C162.834 263.864 171.244 266.303 171.244 266.303V263.739Z" fill="#F28F8F"/>
<path d="M171.45 236.908L167.688 239.206C167.392 238.689 167.306 238.078 167.448 237.5C167.59 236.922 167.949 236.421 168.451 236.101C168.699 235.95 168.975 235.851 169.263 235.81C169.55 235.77 169.843 235.787 170.123 235.863C170.403 235.938 170.665 236.07 170.893 236.249C171.121 236.429 171.311 236.653 171.45 236.908Z" fill="#263238"/>
<path d="M186.751 239.466L182.563 238.002C182.645 237.725 182.781 237.467 182.966 237.244C183.15 237.022 183.378 236.839 183.636 236.708C183.893 236.576 184.175 236.499 184.464 236.481C184.752 236.462 185.041 236.503 185.314 236.601C185.875 236.803 186.338 237.213 186.605 237.746C186.873 238.279 186.925 238.895 186.751 239.466Z" fill="#263238"/>
<path d="M175.379 244.458C175.319 244.458 175.26 244.446 175.204 244.423C175.149 244.399 175.098 244.365 175.056 244.322C175.014 244.279 174.981 244.228 174.959 244.172C174.937 244.117 174.926 244.057 174.927 243.997C174.927 243.26 176.382 242.781 177.695 242.781C179.008 242.781 179.85 243.26 179.85 243.997C179.823 244.093 179.765 244.178 179.685 244.238C179.605 244.299 179.507 244.331 179.407 244.331C179.307 244.331 179.209 244.299 179.129 244.238C179.049 244.178 178.991 244.093 178.963 243.997C178.963 243.908 178.511 243.686 177.721 243.686C177.086 243.673 176.453 243.781 175.858 244.005C175.858 244.067 175.846 244.128 175.822 244.185C175.797 244.242 175.761 244.293 175.717 244.335C175.672 244.378 175.619 244.41 175.561 244.431C175.503 244.453 175.441 244.462 175.379 244.458Z" fill="#455A64"/>
<path d="M164.759 244.071H164.706L154.566 243.184C154.092 242.714 153.528 242.346 152.907 242.102L164.813 243.202C164.932 243.217 165.04 243.279 165.115 243.373C165.19 243.468 165.224 243.588 165.212 243.707C165.191 243.811 165.134 243.905 165.052 243.971C164.969 244.038 164.865 244.073 164.759 244.071Z" fill="#455A64"/>
<path d="M123.126 254.646C126.444 250.21 128.706 246.866 131.731 243.113C133.452 240.957 134.553 239.414 136.167 237.205C137.303 235.679 137.941 234.392 139.237 233.922C140.636 233.349 141.897 232.484 142.936 231.385C143.575 230.679 144.167 229.932 144.71 229.149C146.612 226.59 148.87 224.317 151.417 222.398C154.078 220.393 157.05 218.85 159.792 216.942C161.424 215.798 163.172 213.9 161.184 212.125C160.575 211.612 159.845 211.261 159.064 211.105C154.229 210.058 150.024 211.717 145.296 212.924C143.242 213.436 141.233 214.116 139.29 214.955C138.334 215.333 137.438 215.847 136.628 216.481C135.497 217.622 134.57 218.948 133.887 220.402C131.82 224.093 127.384 227.393 124.28 230.312C120.651 233.727 117.404 236.859 113.261 240.62C109.535 244.018 105.889 247.141 102.474 250.849C99.6438 253.909 100.699 256.305 101.072 257.139C103.379 261.876 105.96 263.579 109.056 266.516C114.379 271.599 132.787 286.228 138.882 291.063C140.191 292.091 141.22 293.434 141.871 294.966L143.042 297.672C149.998 298.949 154.637 288.508 148.88 275.937C147.926 273.904 146.47 272.148 144.648 270.836C137.374 265.54 123.126 254.646 123.126 254.646Z" fill="#FFA8A7"/>
<path d="M123.126 254.648C120.912 257.372 117.962 259.401 114.627 260.495C114.627 260.495 119.063 261.63 125.14 256.174L123.126 254.648Z" fill="#F28F8F"/>
<path d="M213.313 319.275L212.177 318.3C212.008 318.188 211.814 318.117 211.612 318.094C211.41 318.071 211.206 318.096 211.015 318.166L198.693 321.52C198.072 321.727 197.504 322.065 197.026 322.513C196.548 322.96 196.173 323.505 195.925 324.11L187.054 349.686C186.947 349.895 186.905 350.13 186.933 350.363C186.962 350.595 187.059 350.814 187.213 350.99L188.384 352.002C188.555 352.119 188.751 352.194 188.957 352.218C189.162 352.243 189.371 352.217 189.564 352.144L201.904 348.79C202.525 348.583 203.094 348.245 203.571 347.798C204.049 347.351 204.425 346.806 204.672 346.2C206.447 341.17 211.769 325.654 213.544 320.624C213.757 319.994 213.65 319.515 213.313 319.275Z" fill="#455A64"/>
<path d="M188.216 350.658L197.087 325.082C197.334 324.477 197.709 323.933 198.187 323.487C198.665 323.041 199.234 322.705 199.855 322.501L212.169 319.147C213.313 318.837 213.943 319.493 213.535 320.611C211.76 325.641 206.438 341.157 204.663 346.187C204.416 346.793 204.04 347.338 203.563 347.785C203.085 348.232 202.516 348.571 201.896 348.778L189.582 352.166C188.447 352.433 187.834 351.776 188.216 350.658Z" fill="#BA68C8"/>
<path d="M198.515 323.221C197.874 323.706 197.378 324.356 197.078 325.102L188.206 350.669C188.105 350.872 188.062 351.1 188.084 351.326C188.106 351.551 188.192 351.767 188.331 351.946L187.23 351.006C187.073 350.832 186.972 350.613 186.942 350.38C186.912 350.147 186.954 349.911 187.062 349.702L195.933 324.126C196.214 323.43 196.669 322.819 197.255 322.352L198.515 323.221Z" fill="#37474F"/>
<path d="M209.932 330.93C209.045 333.529 205.967 335.268 200.875 336.474C195.783 337.681 192.97 343.084 193.778 344.725C194.585 346.366 202.817 347.901 206.109 347.431C209.4 346.96 212.7 342.205 213.703 340.733C214.705 339.26 215.858 328.987 214.803 327.576C213.747 326.166 211.52 326.388 211.52 326.388L209.932 330.93Z" fill="#F28F8F"/>
<path d="M40.08 4.08L32.28 32H25.68L20.44 12.12L14.96 32L8.4 32.04L0.88 4.08H6.88L11.8 25.76L17.48 4.08H23.72L29.08 25.64L34.04 4.08H40.08ZM64.3366 20.44C64.3366 21.24 64.2832 21.96 64.1766 22.6H47.9766C48.1099 24.2 48.6699 25.4533 49.6566 26.36C50.6432 27.2667 51.8566 27.72 53.2966 27.72C55.3766 27.72 56.8566 26.8267 57.7366 25.04H63.7766C63.1366 27.1733 61.9099 28.9333 60.0966 30.32C58.2832 31.68 56.0566 32.36 53.4166 32.36C51.2832 32.36 49.3632 31.8933 47.6566 30.96C45.9766 30 44.6566 28.6533 43.6966 26.92C42.7632 25.1867 42.2966 23.1867 42.2966 20.92C42.2966 18.6267 42.7632 16.6133 43.6966 14.88C44.6299 13.1467 45.9366 11.8133 47.6166 10.88C49.2966 9.94667 51.2299 9.48 53.4166 9.48C55.5232 9.48 57.4032 9.93333 59.0566 10.84C60.7366 11.7467 62.0299 13.04 62.9366 14.72C63.8699 16.3733 64.3366 18.28 64.3366 20.44ZM58.5366 18.84C58.5099 17.4 57.9899 16.2533 56.9766 15.4C55.9632 14.52 54.7232 14.08 53.2566 14.08C51.8699 14.08 50.6966 14.5067 49.7366 15.36C48.8032 16.1867 48.2299 17.3467 48.0166 18.84H58.5366ZM74.0241 2.4V32H68.4241V2.4H74.0241ZM78.1169 20.92C78.1169 18.6267 78.5835 16.6267 79.5169 14.92C80.4502 13.1867 81.7435 11.8533 83.3969 10.92C85.0502 9.96 86.9435 9.48 89.0769 9.48C91.8235 9.48 94.0902 10.1733 95.8769 11.56C97.6902 12.92 98.9035 14.84 99.5169 17.32H93.4769C93.1569 16.36 92.6102 15.6133 91.8369 15.08C91.0902 14.52 90.1569 14.24 89.0369 14.24C87.4369 14.24 86.1702 14.8267 85.2369 16C84.3035 17.1467 83.8369 18.7867 83.8369 20.92C83.8369 23.0267 84.3035 24.6667 85.2369 25.84C86.1702 26.9867 87.4369 27.56 89.0369 27.56C91.3035 27.56 92.7835 26.5467 93.4769 24.52H99.5169C98.9035 26.92 97.6902 28.8267 95.8769 30.24C94.0635 31.6533 91.7969 32.36 89.0769 32.36C86.9435 32.36 85.0502 31.8933 83.3969 30.96C81.7435 30 80.4502 28.6667 79.5169 26.96C78.5835 25.2267 78.1169 23.2133 78.1169 20.92ZM113.459 32.36C111.326 32.36 109.406 31.8933 107.699 30.96C105.993 30 104.646 28.6533 103.659 26.92C102.699 25.1867 102.219 23.1867 102.219 20.92C102.219 18.6533 102.713 16.6533 103.699 14.92C104.713 13.1867 106.086 11.8533 107.819 10.92C109.553 9.96 111.486 9.48 113.619 9.48C115.753 9.48 117.686 9.96 119.419 10.92C121.153 11.8533 122.513 13.1867 123.499 14.92C124.513 16.6533 125.019 18.6533 125.019 20.92C125.019 23.1867 124.499 25.1867 123.459 26.92C122.446 28.6533 121.059 30 119.299 30.96C117.566 31.8933 115.619 32.36 113.459 32.36ZM113.459 27.48C114.473 27.48 115.419 27.24 116.299 26.76C117.206 26.2533 117.926 25.5067 118.459 24.52C118.993 23.5333 119.259 22.3333 119.259 20.92C119.259 18.8133 118.699 17.2 117.579 16.08C116.486 14.9333 115.139 14.36 113.539 14.36C111.939 14.36 110.593 14.9333 109.499 16.08C108.433 17.2 107.899 18.8133 107.899 20.92C107.899 23.0267 108.419 24.6533 109.459 25.8C110.526 26.92 111.859 27.48 113.459 27.48ZM156.647 9.52C159.367 9.52 161.554 10.36 163.207 12.04C164.887 13.6933 165.727 16.0133 165.727 19V32H160.127V19.76C160.127 18.0267 159.687 16.7067 158.807 15.8C157.927 14.8667 156.727 14.4 155.207 14.4C153.687 14.4 152.474 14.8667 151.567 15.8C150.687 16.7067 150.247 18.0267 150.247 19.76V32H144.647V19.76C144.647 18.0267 144.207 16.7067 143.327 15.8C142.447 14.8667 141.247 14.4 139.727 14.4C138.181 14.4 136.954 14.8667 136.047 15.8C135.167 16.7067 134.727 18.0267 134.727 19.76V32H129.127V9.84H134.727V12.52C135.447 11.5867 136.367 10.8533 137.487 10.32C138.634 9.78666 139.887 9.52 141.247 9.52C142.981 9.52 144.527 9.89333 145.887 10.64C147.247 11.36 148.301 12.4 149.047 13.76C149.767 12.48 150.807 11.4533 152.167 10.68C153.554 9.90667 155.047 9.52 156.647 9.52ZM191.641 20.44C191.641 21.24 191.588 21.96 191.481 22.6H175.281C175.415 24.2 175.975 25.4533 176.961 26.36C177.948 27.2667 179.161 27.72 180.601 27.72C182.681 27.72 184.161 26.8267 185.041 25.04H191.081C190.441 27.1733 189.215 28.9333 187.401 30.32C185.588 31.68 183.361 32.36 180.721 32.36C178.588 32.36 176.668 31.8933 174.961 30.96C173.281 30 171.961 28.6533 171.001 26.92C170.068 25.1867 169.601 23.1867 169.601 20.92C169.601 18.6267 170.068 16.6133 171.001 14.88C171.935 13.1467 173.241 11.8133 174.921 10.88C176.601 9.94667 178.535 9.48 180.721 9.48C182.828 9.48 184.708 9.93333 186.361 10.84C188.041 11.7467 189.335 13.04 190.241 14.72C191.175 16.3733 191.641 18.28 191.641 20.44ZM185.841 18.84C185.815 17.4 185.295 16.2533 184.281 15.4C183.268 14.52 182.028 14.08 180.561 14.08C179.175 14.08 178.001 14.5067 177.041 15.36C176.108 16.1867 175.535 17.3467 175.321 18.84H185.841ZM211.78 14.44V25.16C211.78 25.9067 211.953 26.4533 212.3 26.8C212.673 27.12 213.287 27.28 214.14 27.28H216.74V32H213.22C208.5 32 206.14 29.7067 206.14 25.12V14.44H203.5V9.84H206.14V4.36H211.78V9.84H216.74V14.44H211.78ZM230.608 32.36C228.474 32.36 226.554 31.8933 224.848 30.96C223.141 30 221.794 28.6533 220.808 26.92C219.848 25.1867 219.368 23.1867 219.368 20.92C219.368 18.6533 219.861 16.6533 220.848 14.92C221.861 13.1867 223.234 11.8533 224.968 10.92C226.701 9.96 228.634 9.48 230.768 9.48C232.901 9.48 234.834 9.96 236.568 10.92C238.301 11.8533 239.661 13.1867 240.648 14.92C241.661 16.6533 242.168 18.6533 242.168 20.92C242.168 23.1867 241.648 25.1867 240.608 26.92C239.594 28.6533 238.208 30 236.448 30.96C234.714 31.8933 232.768 32.36 230.608 32.36ZM230.608 27.48C231.621 27.48 232.568 27.24 233.448 26.76C234.354 26.2533 235.074 25.5067 235.608 24.52C236.141 23.5333 236.408 22.3333 236.408 20.92C236.408 18.8133 235.848 17.2 234.728 16.08C233.634 14.9333 232.288 14.36 230.688 14.36C229.088 14.36 227.741 14.9333 226.648 16.08C225.581 17.2 225.048 18.8133 225.048 20.92C225.048 23.0267 225.568 24.6533 226.608 25.8C227.674 26.92 229.008 27.48 230.608 27.48Z" fill="white"/>
<path d="M265.447 32.28C263.5 32.28 261.74 31.9467 260.167 31.28C258.62 30.6133 257.394 29.6533 256.487 28.4C255.58 27.1467 255.114 25.6667 255.087 23.96H261.087C261.167 25.1067 261.567 26.0133 262.287 26.68C263.034 27.3467 264.047 27.68 265.327 27.68C266.634 27.68 267.66 27.3733 268.407 26.76C269.154 26.12 269.527 25.2933 269.527 24.28C269.527 23.4533 269.274 22.7733 268.767 22.24C268.26 21.7067 267.62 21.2933 266.847 21C266.1 20.68 265.06 20.3333 263.727 19.96C261.914 19.4267 260.434 18.9067 259.287 18.4C258.167 17.8667 257.194 17.08 256.367 16.04C255.567 14.9733 255.167 13.56 255.167 11.8C255.167 10.1467 255.58 8.70667 256.407 7.48C257.234 6.25333 258.394 5.32 259.887 4.68C261.38 4.01333 263.087 3.68 265.007 3.68C267.887 3.68 270.22 4.38667 272.007 5.8C273.82 7.18667 274.82 9.13333 275.007 11.64H268.847C268.794 10.68 268.38 9.89333 267.607 9.28C266.86 8.64 265.86 8.32 264.607 8.32C263.514 8.32 262.634 8.6 261.967 9.16C261.327 9.72 261.007 10.5333 261.007 11.6C261.007 12.3467 261.247 12.9733 261.727 13.48C262.234 13.96 262.847 14.36 263.567 14.68C264.314 14.9733 265.354 15.32 266.687 15.72C268.5 16.2533 269.98 16.7867 271.127 17.32C272.274 17.8533 273.26 18.6533 274.087 19.72C274.914 20.7867 275.327 22.1867 275.327 23.92C275.327 25.4133 274.94 26.8 274.167 28.08C273.394 29.36 272.26 30.3867 270.767 31.16C269.274 31.9067 267.5 32.28 265.447 32.28ZM301.102 9.84V32H295.462V29.2C294.742 30.16 293.795 30.92 292.622 31.48C291.475 32.0133 290.222 32.28 288.862 32.28C287.129 32.28 285.595 31.92 284.262 31.2C282.929 30.4533 281.875 29.3733 281.102 27.96C280.355 26.52 279.982 24.8133 279.982 22.84V9.84H285.582V22.04C285.582 23.8 286.022 25.16 286.902 26.12C287.782 27.0533 288.982 27.52 290.502 27.52C292.049 27.52 293.262 27.0533 294.142 26.12C295.022 25.16 295.462 23.8 295.462 22.04V9.84H301.102ZM312.227 13.04C312.947 12.0267 313.934 11.1867 315.187 10.52C316.467 9.82667 317.921 9.48 319.547 9.48C321.441 9.48 323.147 9.94667 324.667 10.88C326.214 11.8133 327.427 13.1467 328.307 14.88C329.214 16.5867 329.667 18.5733 329.667 20.84C329.667 23.1067 329.214 25.12 328.307 26.88C327.427 28.6133 326.214 29.96 324.667 30.92C323.147 31.88 321.441 32.36 319.547 32.36C317.921 32.36 316.481 32.0267 315.227 31.36C314.001 30.6933 313.001 29.8533 312.227 28.84V42.56H306.627V9.84H312.227V13.04ZM323.947 20.84C323.947 19.5067 323.667 18.36 323.107 17.4C322.574 16.4133 321.854 15.6667 320.947 15.16C320.067 14.6533 319.107 14.4 318.067 14.4C317.054 14.4 316.094 14.6667 315.187 15.2C314.307 15.7067 313.587 16.4533 313.027 17.44C312.494 18.4267 312.227 19.5867 312.227 20.92C312.227 22.2533 312.494 23.4133 313.027 24.4C313.587 25.3867 314.307 26.1467 315.187 26.68C316.094 27.1867 317.054 27.44 318.067 27.44C319.107 27.44 320.067 27.1733 320.947 26.64C321.854 26.1067 322.574 25.3467 323.107 24.36C323.667 23.3733 323.947 22.2 323.947 20.84ZM354.337 20.44C354.337 21.24 354.283 21.96 354.177 22.6H337.977C338.11 24.2 338.67 25.4533 339.657 26.36C340.643 27.2667 341.857 27.72 343.297 27.72C345.377 27.72 346.857 26.8267 347.737 25.04H353.777C353.137 27.1733 351.91 28.9333 350.097 30.32C348.283 31.68 346.057 32.36 343.417 32.36C341.283 32.36 339.363 31.8933 337.657 30.96C335.977 30 334.657 28.6533 333.697 26.92C332.763 25.1867 332.297 23.1867 332.297 20.92C332.297 18.6267 332.763 16.6133 333.697 14.88C334.63 13.1467 335.937 11.8133 337.617 10.88C339.297 9.94667 341.23 9.48 343.417 9.48C345.523 9.48 347.403 9.93333 349.057 10.84C350.737 11.7467 352.03 13.04 352.937 14.72C353.87 16.3733 354.337 18.28 354.337 20.44ZM348.537 18.84C348.51 17.4 347.99 16.2533 346.977 15.4C345.963 14.52 344.723 14.08 343.257 14.08C341.87 14.08 340.697 14.5067 339.737 15.36C338.803 16.1867 338.23 17.3467 338.017 18.84H348.537ZM364.024 13.28C364.744 12.1067 365.677 11.1867 366.824 10.52C367.997 9.85333 369.331 9.52 370.824 9.52V15.4H369.344C367.584 15.4 366.251 15.8133 365.344 16.64C364.464 17.4667 364.024 18.9067 364.024 20.96V32H358.424V9.84H364.024V13.28ZM401.247 26.68H390.127L388.287 32H382.407L392.447 4.04H398.967L409.007 32H403.087L401.247 26.68ZM399.727 22.2L395.687 10.52L391.647 22.2H399.727ZM411.32 20.84C411.32 18.6 411.76 16.6133 412.64 14.88C413.547 13.1467 414.773 11.8133 416.32 10.88C417.867 9.94667 419.587 9.48 421.48 9.48C422.92 9.48 424.293 9.8 425.6 10.44C426.907 11.0533 427.947 11.88 428.72 12.92V2.4H434.4V32H428.72V28.72C428.027 29.8133 427.053 30.6933 425.8 31.36C424.547 32.0267 423.093 32.36 421.44 32.36C419.573 32.36 417.867 31.88 416.32 30.92C414.773 29.96 413.547 28.6133 412.64 26.88C411.76 25.12 411.32 23.1067 411.32 20.84ZM428.76 20.92C428.76 19.56 428.493 18.4 427.96 17.44C427.427 16.4533 426.707 15.7067 425.8 15.2C424.893 14.6667 423.92 14.4 422.88 14.4C421.84 14.4 420.88 14.6533 420 15.16C419.12 15.6667 418.4 16.4133 417.84 17.4C417.307 18.36 417.04 19.5067 417.04 20.84C417.04 22.1733 417.307 23.3467 417.84 24.36C418.4 25.3467 419.12 26.1067 420 26.64C420.907 27.1733 421.867 27.44 422.88 27.44C423.92 27.44 424.893 27.1867 425.8 26.68C426.707 26.1467 427.427 25.4 427.96 24.44C428.493 23.4533 428.76 22.28 428.76 20.92ZM467.389 9.52C470.109 9.52 472.296 10.36 473.949 12.04C475.629 13.6933 476.469 16.0133 476.469 19V32H470.869V19.76C470.869 18.0267 470.429 16.7067 469.549 15.8C468.669 14.8667 467.469 14.4 465.949 14.4C464.429 14.4 463.216 14.8667 462.309 15.8C461.429 16.7067 460.989 18.0267 460.989 19.76V32H455.389V19.76C455.389 18.0267 454.949 16.7067 454.069 15.8C453.189 14.8667 451.989 14.4 450.469 14.4C448.923 14.4 447.696 14.8667 446.789 15.8C445.909 16.7067 445.469 18.0267 445.469 19.76V32H439.869V9.84H445.469V12.52C446.189 11.5867 447.109 10.8533 448.229 10.32C449.376 9.78666 450.629 9.52 451.989 9.52C453.723 9.52 455.269 9.89333 456.629 10.64C457.989 11.36 459.043 12.4 459.789 13.76C460.509 12.48 461.549 11.4533 462.909 10.68C464.296 9.90667 465.789 9.52 467.389 9.52ZM484.623 7.2C483.637 7.2 482.81 6.89333 482.143 6.28C481.503 5.64 481.183 4.85333 481.183 3.92C481.183 2.98667 481.503 2.21333 482.143 1.6C482.81 0.959998 483.637 0.639998 484.623 0.639998C485.61 0.639998 486.423 0.959998 487.063 1.6C487.73 2.21333 488.063 2.98667 488.063 3.92C488.063 4.85333 487.73 5.64 487.063 6.28C486.423 6.89333 485.61 7.2 484.623 7.2ZM487.383 9.84V32H481.783V9.84H487.383ZM505.196 9.52C507.836 9.52 509.97 10.36 511.596 12.04C513.223 13.6933 514.036 16.0133 514.036 19V32H508.436V19.76C508.436 18 507.996 16.6533 507.116 15.72C506.236 14.76 505.036 14.28 503.516 14.28C501.97 14.28 500.743 14.76 499.836 15.72C498.956 16.6533 498.516 18 498.516 19.76V32H492.916V9.84H498.516V12.6C499.263 11.64 500.21 10.8933 501.356 10.36C502.53 9.8 503.81 9.52 505.196 9.52ZM526.602 3.6L525.962 22.92H521.242L520.562 3.6H526.602ZM523.722 32.28C522.708 32.28 521.868 31.9733 521.202 31.36C520.562 30.72 520.242 29.9333 520.242 29C520.242 28.0667 520.562 27.2933 521.202 26.68C521.868 26.04 522.708 25.72 523.722 25.72C524.708 25.72 525.522 26.04 526.162 26.68C526.802 27.2933 527.122 28.0667 527.122 29C527.122 29.9333 526.802 30.72 526.162 31.36C525.522 31.9733 524.708 32.28 523.722 32.28Z" fill="#D692FA"/>
<path d="M14.43 72.666L9.436 82.214V88H7.434V82.214L2.418 72.666H4.64L8.424 80.432L12.208 72.666H14.43ZM21.7997 88.198C20.6703 88.198 19.6437 87.9413 18.7197 87.428C17.8103 86.9147 17.0917 86.1887 16.5637 85.25C16.0503 84.2967 15.7937 83.1967 15.7937 81.95C15.7937 80.718 16.0577 79.6327 16.5857 78.694C17.1283 77.7407 17.8617 77.0147 18.7857 76.516C19.7097 76.0027 20.7437 75.746 21.8877 75.746C23.0317 75.746 24.0657 76.0027 24.9897 76.516C25.9137 77.0147 26.6397 77.7333 27.1677 78.672C27.7103 79.6107 27.9817 80.7033 27.9817 81.95C27.9817 83.1967 27.703 84.2967 27.1457 85.25C26.603 86.1887 25.8623 86.9147 24.9237 87.428C23.985 87.9413 22.9437 88.198 21.7997 88.198ZM21.7997 86.438C22.5183 86.438 23.193 86.2693 23.8237 85.932C24.4543 85.5947 24.9603 85.0887 25.3417 84.414C25.7377 83.7393 25.9357 82.918 25.9357 81.95C25.9357 80.982 25.745 80.1607 25.3637 79.486C24.9823 78.8113 24.4837 78.3127 23.8677 77.99C23.2517 77.6527 22.5843 77.484 21.8657 77.484C21.1323 77.484 20.4577 77.6527 19.8417 77.99C19.2403 78.3127 18.7563 78.8113 18.3897 79.486C18.023 80.1607 17.8397 80.982 17.8397 81.95C17.8397 82.9327 18.0157 83.7613 18.3677 84.436C18.7343 85.1107 19.2183 85.6167 19.8197 85.954C20.421 86.2767 21.081 86.438 21.7997 86.438ZM41.3059 75.944V88H39.3039V86.218C38.9226 86.834 38.3873 87.318 37.6979 87.67C37.0233 88.0073 36.2753 88.176 35.4539 88.176C34.5153 88.176 33.6719 87.9853 32.9239 87.604C32.1759 87.208 31.5819 86.6213 31.1419 85.844C30.7166 85.0667 30.5039 84.1207 30.5039 83.006V75.944H32.4839V82.742C32.4839 83.93 32.7846 84.8467 33.3859 85.492C33.9873 86.1227 34.8086 86.438 35.8499 86.438C36.9206 86.438 37.7639 86.108 38.3799 85.448C38.9959 84.788 39.3039 83.8273 39.3039 82.566V75.944H41.3059ZM46.6882 77.902C47.0402 77.2127 47.5389 76.6773 48.1842 76.296C48.8442 75.9147 49.6435 75.724 50.5822 75.724V77.792H50.0542C47.8102 77.792 46.6882 79.0093 46.6882 81.444V88H44.6862V75.944H46.6882V77.902ZM58.0105 81.95C58.0105 80.7033 58.2598 79.618 58.7585 78.694C59.2571 77.7553 59.9465 77.0293 60.8265 76.516C61.7211 76.0027 62.7405 75.746 63.8845 75.746C65.3658 75.746 66.5831 76.1053 67.5365 76.824C68.5045 77.5427 69.1425 78.54 69.4505 79.816H67.2945C67.0891 79.0827 66.6858 78.5033 66.0845 78.078C65.4978 77.6527 64.7645 77.44 63.8845 77.44C62.7405 77.44 61.8165 77.836 61.1125 78.628C60.4085 79.4053 60.0565 80.5127 60.0565 81.95C60.0565 83.402 60.4085 84.524 61.1125 85.316C61.8165 86.108 62.7405 86.504 63.8845 86.504C64.7645 86.504 65.4978 86.2987 66.0845 85.888C66.6711 85.4773 67.0745 84.8907 67.2945 84.128H69.4505C69.1278 85.36 68.4825 86.35 67.5145 87.098C66.5465 87.8313 65.3365 88.198 63.8845 88.198C62.7405 88.198 61.7211 87.9413 60.8265 87.428C59.9465 86.9147 59.2571 86.1887 58.7585 85.25C58.2598 84.3113 58.0105 83.2113 58.0105 81.95ZM77.3797 88.198C76.2504 88.198 75.2237 87.9413 74.2997 87.428C73.3904 86.9147 72.6717 86.1887 72.1437 85.25C71.6304 84.2967 71.3737 83.1967 71.3737 81.95C71.3737 80.718 71.6377 79.6327 72.1657 78.694C72.7084 77.7407 73.4417 77.0147 74.3657 76.516C75.2897 76.0027 76.3237 75.746 77.4677 75.746C78.6117 75.746 79.6457 76.0027 80.5697 76.516C81.4937 77.0147 82.2197 77.7333 82.7477 78.672C83.2904 79.6107 83.5617 80.7033 83.5617 81.95C83.5617 83.1967 83.2831 84.2967 82.7257 85.25C82.1831 86.1887 81.4424 86.9147 80.5037 87.428C79.5651 87.9413 78.5237 88.198 77.3797 88.198ZM77.3797 86.438C78.0984 86.438 78.7731 86.2693 79.4037 85.932C80.0344 85.5947 80.5404 85.0887 80.9217 84.414C81.3177 83.7393 81.5157 82.918 81.5157 81.95C81.5157 80.982 81.3251 80.1607 80.9437 79.486C80.5624 78.8113 80.0637 78.3127 79.4477 77.99C78.8317 77.6527 78.1644 77.484 77.4457 77.484C76.7124 77.484 76.0377 77.6527 75.4217 77.99C74.8204 78.3127 74.3364 78.8113 73.9697 79.486C73.6031 80.1607 73.4197 80.982 73.4197 81.95C73.4197 82.9327 73.5957 83.7613 73.9477 84.436C74.3144 85.1107 74.7984 85.6167 75.3997 85.954C76.0011 86.2767 76.6611 86.438 77.3797 86.438ZM100.692 75.724C101.631 75.724 102.467 75.922 103.2 76.318C103.933 76.6993 104.513 77.2787 104.938 78.056C105.363 78.8333 105.576 79.7793 105.576 80.894V88H103.596V81.18C103.596 79.9773 103.295 79.0607 102.694 78.43C102.107 77.7847 101.308 77.462 100.296 77.462C99.2547 77.462 98.426 77.7993 97.81 78.474C97.194 79.134 96.886 80.0947 96.886 81.356V88H94.906V81.18C94.906 79.9773 94.6053 79.0607 94.004 78.43C93.4173 77.7847 92.618 77.462 91.606 77.462C90.5647 77.462 89.736 77.7993 89.12 78.474C88.504 79.134 88.196 80.0947 88.196 81.356V88H86.194V75.944H88.196V77.682C88.592 77.0513 89.12 76.5673 89.78 76.23C90.4547 75.8927 91.1953 75.724 92.002 75.724C93.014 75.724 93.9087 75.9513 94.686 76.406C95.4633 76.8607 96.0427 77.528 96.424 78.408C96.7613 77.5573 97.3187 76.8973 98.096 76.428C98.8733 75.9587 99.7387 75.724 100.692 75.724ZM123.358 75.724C124.297 75.724 125.133 75.922 125.866 76.318C126.599 76.6993 127.179 77.2787 127.604 78.056C128.029 78.8333 128.242 79.7793 128.242 80.894V88H126.262V81.18C126.262 79.9773 125.961 79.0607 125.36 78.43C124.773 77.7847 123.974 77.462 122.962 77.462C121.921 77.462 121.092 77.7993 120.476 78.474C119.86 79.134 119.552 80.0947 119.552 81.356V88H117.572V81.18C117.572 79.9773 117.271 79.0607 116.67 78.43C116.083 77.7847 115.284 77.462 114.272 77.462C113.231 77.462 112.402 77.7993 111.786 78.474C111.17 79.134 110.862 80.0947 110.862 81.356V88H108.86V75.944H110.862V77.682C111.258 77.0513 111.786 76.5673 112.446 76.23C113.121 75.8927 113.861 75.724 114.668 75.724C115.68 75.724 116.575 75.9513 117.352 76.406C118.129 76.8607 118.709 77.528 119.09 78.408C119.427 77.5573 119.985 76.8973 120.762 76.428C121.539 75.9587 122.405 75.724 123.358 75.724ZM130.778 81.928C130.778 80.696 131.027 79.618 131.526 78.694C132.025 77.7553 132.707 77.0293 133.572 76.516C134.452 76.0027 135.427 75.746 136.498 75.746C137.554 75.746 138.471 75.9733 139.248 76.428C140.025 76.8827 140.605 77.4547 140.986 78.144V75.944H143.01V88H140.986V85.756C140.59 86.46 139.996 87.0467 139.204 87.516C138.427 87.9707 137.517 88.198 136.476 88.198C135.405 88.198 134.437 87.934 133.572 87.406C132.707 86.878 132.025 86.1373 131.526 85.184C131.027 84.2307 130.778 83.1453 130.778 81.928ZM140.986 81.95C140.986 81.0407 140.803 80.2487 140.436 79.574C140.069 78.8993 139.571 78.386 138.94 78.034C138.324 77.6673 137.642 77.484 136.894 77.484C136.146 77.484 135.464 77.66 134.848 78.012C134.232 78.364 133.741 78.8773 133.374 79.552C133.007 80.2267 132.824 81.0187 132.824 81.928C132.824 82.852 133.007 83.6587 133.374 84.348C133.741 85.0227 134.232 85.5433 134.848 85.91C135.464 86.262 136.146 86.438 136.894 86.438C137.642 86.438 138.324 86.262 138.94 85.91C139.571 85.5433 140.069 85.0227 140.436 84.348C140.803 83.6587 140.986 82.8593 140.986 81.95ZM152.267 75.724C153.734 75.724 154.922 76.1713 155.831 77.066C156.741 77.946 157.195 79.222 157.195 80.894V88H155.215V81.18C155.215 79.9773 154.915 79.0607 154.313 78.43C153.712 77.7847 152.891 77.462 151.849 77.462C150.793 77.462 149.95 77.792 149.319 78.452C148.703 79.112 148.395 80.0727 148.395 81.334V88H146.393V75.944H148.395V77.66C148.791 77.044 149.327 76.5673 150.001 76.23C150.691 75.8927 151.446 75.724 152.267 75.724ZM159.717 81.928C159.717 80.696 159.967 79.618 160.465 78.694C160.964 77.7553 161.646 77.0293 162.511 76.516C163.391 76.0027 164.374 75.746 165.459 75.746C166.398 75.746 167.271 75.966 168.077 76.406C168.884 76.8313 169.5 77.396 169.925 78.1V71.72H171.949V88H169.925V85.734C169.529 86.4527 168.943 87.0467 168.165 87.516C167.388 87.9707 166.479 88.198 165.437 88.198C164.367 88.198 163.391 87.934 162.511 87.406C161.646 86.878 160.964 86.1373 160.465 85.184C159.967 84.2307 159.717 83.1453 159.717 81.928ZM169.925 81.95C169.925 81.0407 169.742 80.2487 169.375 79.574C169.009 78.8993 168.51 78.386 167.879 78.034C167.263 77.6673 166.581 77.484 165.833 77.484C165.085 77.484 164.403 77.66 163.787 78.012C163.171 78.364 162.68 78.8773 162.313 79.552C161.947 80.2267 161.763 81.0187 161.763 81.928C161.763 82.852 161.947 83.6587 162.313 84.348C162.68 85.0227 163.171 85.5433 163.787 85.91C164.403 86.262 165.085 86.438 165.833 86.438C166.581 86.438 167.263 86.262 167.879 85.91C168.51 85.5433 169.009 85.0227 169.375 84.348C169.742 83.6587 169.925 82.8593 169.925 81.95ZM180.45 81.95C180.45 80.7033 180.699 79.618 181.198 78.694C181.697 77.7553 182.386 77.0293 183.266 76.516C184.161 76.0027 185.18 75.746 186.324 75.746C187.805 75.746 189.023 76.1053 189.976 76.824C190.944 77.5427 191.582 78.54 191.89 79.816H189.734C189.529 79.0827 189.125 78.5033 188.524 78.078C187.937 77.6527 187.204 77.44 186.324 77.44C185.18 77.44 184.256 77.836 183.552 78.628C182.848 79.4053 182.496 80.5127 182.496 81.95C182.496 83.402 182.848 84.524 183.552 85.316C184.256 86.108 185.18 86.504 186.324 86.504C187.204 86.504 187.937 86.2987 188.524 85.888C189.111 85.4773 189.514 84.8907 189.734 84.128H191.89C191.567 85.36 190.922 86.35 189.954 87.098C188.986 87.8313 187.776 88.198 186.324 88.198C185.18 88.198 184.161 87.9413 183.266 87.428C182.386 86.9147 181.697 86.1887 181.198 85.25C180.699 84.3113 180.45 83.2113 180.45 81.95ZM205.561 81.51C205.561 81.8913 205.539 82.2947 205.495 82.72H195.859C195.933 83.908 196.336 84.8393 197.069 85.514C197.817 86.174 198.719 86.504 199.775 86.504C200.641 86.504 201.359 86.306 201.931 85.91C202.518 85.4993 202.929 84.9567 203.163 84.282H205.319C204.997 85.4407 204.351 86.3867 203.383 87.12C202.415 87.8387 201.213 88.198 199.775 88.198C198.631 88.198 197.605 87.9413 196.695 87.428C195.801 86.9147 195.097 86.1887 194.583 85.25C194.07 84.2967 193.813 83.1967 193.813 81.95C193.813 80.7033 194.063 79.6107 194.561 78.672C195.06 77.7333 195.757 77.0147 196.651 76.516C197.561 76.0027 198.602 75.746 199.775 75.746C200.919 75.746 201.931 75.9953 202.811 76.494C203.691 76.9927 204.366 77.682 204.835 78.562C205.319 79.4273 205.561 80.41 205.561 81.51ZM203.493 81.092C203.493 80.3293 203.325 79.6767 202.987 79.134C202.65 78.5767 202.188 78.1587 201.601 77.88C201.029 77.5867 200.391 77.44 199.687 77.44C198.675 77.44 197.81 77.7627 197.091 78.408C196.387 79.0533 195.984 79.948 195.881 81.092H203.493ZM214.078 75.724C215.544 75.724 216.732 76.1713 217.642 77.066C218.551 77.946 219.006 79.222 219.006 80.894V88H217.026V81.18C217.026 79.9773 216.725 79.0607 216.124 78.43C215.522 77.7847 214.701 77.462 213.66 77.462C212.604 77.462 211.76 77.792 211.13 78.452C210.514 79.112 210.206 80.0727 210.206 81.334V88H208.204V75.944H210.206V77.66C210.602 77.044 211.137 76.5673 211.812 76.23C212.501 75.8927 213.256 75.724 214.078 75.724ZM224.718 77.594V84.7C224.718 85.2867 224.843 85.7047 225.092 85.954C225.341 86.1887 225.774 86.306 226.39 86.306H227.864V88H226.06C224.945 88 224.109 87.7433 223.552 87.23C222.995 86.7167 222.716 85.8733 222.716 84.7V77.594H221.154V75.944H222.716V72.908H224.718V75.944H227.864V77.594H224.718ZM241.29 81.51C241.29 81.8913 241.268 82.2947 241.224 82.72H231.588C231.661 83.908 232.064 84.8393 232.798 85.514C233.546 86.174 234.448 86.504 235.504 86.504C236.369 86.504 237.088 86.306 237.66 85.91C238.246 85.4993 238.657 84.9567 238.892 84.282H241.048C240.725 85.4407 240.08 86.3867 239.112 87.12C238.144 87.8387 236.941 88.198 235.504 88.198C234.36 88.198 233.333 87.9413 232.424 87.428C231.529 86.9147 230.825 86.1887 230.312 85.25C229.798 84.2967 229.542 83.1967 229.542 81.95C229.542 80.7033 229.791 79.6107 230.29 78.672C230.788 77.7333 231.485 77.0147 232.38 76.516C233.289 76.0027 234.33 75.746 235.504 75.746C236.648 75.746 237.66 75.9953 238.54 76.494C239.42 76.9927 240.094 77.682 240.564 78.562C241.048 79.4273 241.29 80.41 241.29 81.51ZM239.222 81.092C239.222 80.3293 239.053 79.6767 238.716 79.134C238.378 78.5767 237.916 78.1587 237.33 77.88C236.758 77.5867 236.12 77.44 235.416 77.44C234.404 77.44 233.538 77.7627 232.82 78.408C232.116 79.0533 231.712 79.948 231.61 81.092H239.222ZM245.934 77.902C246.286 77.2127 246.785 76.6773 247.43 76.296C248.09 75.9147 248.89 75.724 249.828 75.724V77.792H249.3C247.056 77.792 245.934 79.0093 245.934 81.444V88H243.932V75.944H245.934V77.902ZM262.911 77.594H260.381V88H258.379V77.594H256.817V75.944H258.379V75.086C258.379 73.7367 258.723 72.754 259.413 72.138C260.117 71.5073 261.239 71.192 262.779 71.192V72.864C261.899 72.864 261.275 73.04 260.909 73.392C260.557 73.7293 260.381 74.294 260.381 75.086V75.944H262.911V77.594ZM270.503 88.198C269.373 88.198 268.347 87.9413 267.423 87.428C266.513 86.9147 265.795 86.1887 265.267 85.25C264.753 84.2967 264.497 83.1967 264.497 81.95C264.497 80.718 264.761 79.6327 265.289 78.694C265.831 77.7407 266.565 77.0147 267.489 76.516C268.413 76.0027 269.447 75.746 270.591 75.746C271.735 75.746 272.769 76.0027 273.693 76.516C274.617 77.0147 275.343 77.7333 275.871 78.672C276.413 79.6107 276.685 80.7033 276.685 81.95C276.685 83.1967 276.406 84.2967 275.849 85.25C275.306 86.1887 274.565 86.9147 273.627 87.428C272.688 87.9413 271.647 88.198 270.503 88.198ZM270.503 86.438C271.221 86.438 271.896 86.2693 272.527 85.932C273.157 85.5947 273.663 85.0887 274.045 84.414C274.441 83.7393 274.639 82.918 274.639 81.95C274.639 80.982 274.448 80.1607 274.067 79.486C273.685 78.8113 273.187 78.3127 272.571 77.99C271.955 77.6527 271.287 77.484 270.569 77.484C269.835 77.484 269.161 77.6527 268.545 77.99C267.943 78.3127 267.459 78.8113 267.093 79.486C266.726 80.1607 266.543 80.982 266.543 81.95C266.543 82.9327 266.719 83.7613 267.071 84.436C267.437 85.1107 267.921 85.6167 268.523 85.954C269.124 86.2767 269.784 86.438 270.503 86.438ZM281.319 77.902C281.671 77.2127 282.17 76.6773 282.815 76.296C283.475 75.9147 284.274 75.724 285.213 75.724V77.792H284.685C282.441 77.792 281.319 79.0093 281.319 81.444V88H279.317V75.944H281.319V77.902ZM304.081 75.944V88H302.079V86.218C301.698 86.834 301.163 87.318 300.473 87.67C299.799 88.0073 299.051 88.176 298.229 88.176C297.291 88.176 296.447 87.9853 295.699 87.604C294.951 87.208 294.357 86.6213 293.917 85.844C293.492 85.0667 293.279 84.1207 293.279 83.006V75.944H295.259V82.742C295.259 83.93 295.56 84.8467 296.161 85.492C296.763 86.1227 297.584 86.438 298.625 86.438C299.696 86.438 300.539 86.108 301.155 85.448C301.771 84.788 302.079 83.8273 302.079 82.566V75.944H304.081ZM309.464 71.72V88H307.462V71.72H309.464ZM315.318 77.594V84.7C315.318 85.2867 315.442 85.7047 315.692 85.954C315.941 86.1887 316.374 86.306 316.99 86.306H318.464V88H316.66C315.545 88 314.709 87.7433 314.152 87.23C313.594 86.7167 313.316 85.8733 313.316 84.7V77.594H311.754V75.944H313.316V72.908H315.318V75.944H318.464V77.594H315.318ZM321.923 73.986C321.542 73.986 321.219 73.854 320.955 73.59C320.691 73.326 320.559 73.0033 320.559 72.622C320.559 72.2407 320.691 71.918 320.955 71.654C321.219 71.39 321.542 71.258 321.923 71.258C322.29 71.258 322.598 71.39 322.847 71.654C323.111 71.918 323.243 72.2407 323.243 72.622C323.243 73.0033 323.111 73.326 322.847 73.59C322.598 73.854 322.29 73.986 321.923 73.986ZM322.891 75.944V88H320.889V75.944H322.891ZM340.801 75.724C341.74 75.724 342.576 75.922 343.309 76.318C344.043 76.6993 344.622 77.2787 345.047 78.056C345.473 78.8333 345.685 79.7793 345.685 80.894V88H343.705V81.18C343.705 79.9773 343.405 79.0607 342.803 78.43C342.217 77.7847 341.417 77.462 340.405 77.462C339.364 77.462 338.535 77.7993 337.919 78.474C337.303 79.134 336.995 80.0947 336.995 81.356V88H335.015V81.18C335.015 79.9773 334.715 79.0607 334.113 78.43C333.527 77.7847 332.727 77.462 331.715 77.462C330.674 77.462 329.845 77.7993 329.229 78.474C328.613 79.134 328.305 80.0947 328.305 81.356V88H326.303V75.944H328.305V77.682C328.701 77.0513 329.229 76.5673 329.889 76.23C330.564 75.8927 331.305 75.724 332.111 75.724C333.123 75.724 334.018 75.9513 334.795 76.406C335.573 76.8607 336.152 77.528 336.533 78.408C336.871 77.5573 337.428 76.8973 338.205 76.428C338.983 75.9587 339.848 75.724 340.801 75.724ZM348.221 81.928C348.221 80.696 348.471 79.618 348.969 78.694C349.468 77.7553 350.15 77.0293 351.015 76.516C351.895 76.0027 352.871 75.746 353.941 75.746C354.997 75.746 355.914 75.9733 356.691 76.428C357.469 76.8827 358.048 77.4547 358.429 78.144V75.944H360.453V88H358.429V85.756C358.033 86.46 357.439 87.0467 356.647 87.516C355.87 87.9707 354.961 88.198 353.919 88.198C352.849 88.198 351.881 87.934 351.015 87.406C350.15 86.878 349.468 86.1373 348.969 85.184C348.471 84.2307 348.221 83.1453 348.221 81.928ZM358.429 81.95C358.429 81.0407 358.246 80.2487 357.879 79.574C357.513 78.8993 357.014 78.386 356.383 78.034C355.767 77.6673 355.085 77.484 354.337 77.484C353.589 77.484 352.907 77.66 352.291 78.012C351.675 78.364 351.184 78.8773 350.817 79.552C350.451 80.2267 350.267 81.0187 350.267 81.928C350.267 82.852 350.451 83.6587 350.817 84.348C351.184 85.0227 351.675 85.5433 352.291 85.91C352.907 86.262 353.589 86.438 354.337 86.438C355.085 86.438 355.767 86.262 356.383 85.91C357.014 85.5433 357.513 85.0227 357.879 84.348C358.246 83.6587 358.429 82.8593 358.429 81.95ZM366.279 77.594V84.7C366.279 85.2867 366.403 85.7047 366.653 85.954C366.902 86.1887 367.335 86.306 367.951 86.306H369.425V88H367.621C366.506 88 365.67 87.7433 365.113 87.23C364.555 86.7167 364.277 85.8733 364.277 84.7V77.594H362.715V75.944H364.277V72.908H366.279V75.944H369.425V77.594H366.279ZM382.85 81.51C382.85 81.8913 382.828 82.2947 382.784 82.72H373.148C373.222 83.908 373.625 84.8393 374.358 85.514C375.106 86.174 376.008 86.504 377.064 86.504C377.93 86.504 378.648 86.306 379.22 85.91C379.807 85.4993 380.218 84.9567 380.452 84.282H382.608C382.286 85.4407 381.64 86.3867 380.672 87.12C379.704 87.8387 378.502 88.198 377.064 88.198C375.92 88.198 374.894 87.9413 373.984 87.428C373.09 86.9147 372.386 86.1887 371.872 85.25C371.359 84.2967 371.102 83.1967 371.102 81.95C371.102 80.7033 371.352 79.6107 371.85 78.672C372.349 77.7333 373.046 77.0147 373.94 76.516C374.85 76.0027 375.891 75.746 377.064 75.746C378.208 75.746 379.22 75.9953 380.1 76.494C380.98 76.9927 381.655 77.682 382.124 78.562C382.608 79.4273 382.85 80.41 382.85 81.51ZM380.782 81.092C380.782 80.3293 380.614 79.6767 380.276 79.134C379.939 78.5767 379.477 78.1587 378.89 77.88C378.318 77.5867 377.68 77.44 376.976 77.44C375.964 77.44 375.099 77.7627 374.38 78.408C373.676 79.0533 373.273 79.948 373.17 81.092H380.782ZM390.61 81.95C390.61 80.7033 390.859 79.618 391.358 78.694C391.857 77.7553 392.546 77.0293 393.426 76.516C394.321 76.0027 395.34 75.746 396.484 75.746C397.965 75.746 399.183 76.1053 400.136 76.824C401.104 77.5427 401.742 78.54 402.05 79.816H399.894C399.689 79.0827 399.285 78.5033 398.684 78.078C398.097 77.6527 397.364 77.44 396.484 77.44C395.34 77.44 394.416 77.836 393.712 78.628C393.008 79.4053 392.656 80.5127 392.656 81.95C392.656 83.402 393.008 84.524 393.712 85.316C394.416 86.108 395.34 86.504 396.484 86.504C397.364 86.504 398.097 86.2987 398.684 85.888C399.271 85.4773 399.674 84.8907 399.894 84.128H402.05C401.727 85.36 401.082 86.35 400.114 87.098C399.146 87.8313 397.936 88.198 396.484 88.198C395.34 88.198 394.321 87.9413 393.426 87.428C392.546 86.9147 391.857 86.1887 391.358 85.25C390.859 84.3113 390.61 83.2113 390.61 81.95ZM409.979 88.198C408.85 88.198 407.823 87.9413 406.899 87.428C405.99 86.9147 405.271 86.1887 404.743 85.25C404.23 84.2967 403.973 83.1967 403.973 81.95C403.973 80.718 404.237 79.6327 404.765 78.694C405.308 77.7407 406.041 77.0147 406.965 76.516C407.889 76.0027 408.923 75.746 410.067 75.746C411.211 75.746 412.245 76.0027 413.169 76.516C414.093 77.0147 414.819 77.7333 415.347 78.672C415.89 79.6107 416.161 80.7033 416.161 81.95C416.161 83.1967 415.883 84.2967 415.325 85.25C414.783 86.1887 414.042 86.9147 413.103 87.428C412.165 87.9413 411.123 88.198 409.979 88.198ZM409.979 86.438C410.698 86.438 411.373 86.2693 412.003 85.932C412.634 85.5947 413.14 85.0887 413.521 84.414C413.917 83.7393 414.115 82.918 414.115 81.95C414.115 80.982 413.925 80.1607 413.543 79.486C413.162 78.8113 412.663 78.3127 412.047 77.99C411.431 77.6527 410.764 77.484 410.045 77.484C409.312 77.484 408.637 77.6527 408.021 77.99C407.42 78.3127 406.936 78.8113 406.569 79.486C406.203 80.1607 406.019 80.982 406.019 81.95C406.019 82.9327 406.195 83.7613 406.547 84.436C406.914 85.1107 407.398 85.6167 407.999 85.954C408.601 86.2767 409.261 86.438 409.979 86.438ZM424.668 75.724C426.134 75.724 427.322 76.1713 428.232 77.066C429.141 77.946 429.596 79.222 429.596 80.894V88H427.616V81.18C427.616 79.9773 427.315 79.0607 426.714 78.43C426.112 77.7847 425.291 77.462 424.25 77.462C423.194 77.462 422.35 77.792 421.72 78.452C421.104 79.112 420.796 80.0727 420.796 81.334V88H418.794V75.944H420.796V77.66C421.192 77.044 421.727 76.5673 422.402 76.23C423.091 75.8927 423.846 75.724 424.668 75.724ZM435.308 77.594V84.7C435.308 85.2867 435.433 85.7047 435.682 85.954C435.931 86.1887 436.364 86.306 436.98 86.306H438.454V88H436.65C435.535 88 434.699 87.7433 434.142 87.23C433.585 86.7167 433.306 85.8733 433.306 84.7V77.594H431.744V75.944H433.306V72.908H435.308V75.944H438.454V77.594H435.308ZM442.882 77.902C443.234 77.2127 443.732 76.6773 444.378 76.296C445.038 75.9147 445.837 75.724 446.776 75.724V77.792H446.248C444.004 77.792 442.882 79.0093 442.882 81.444V88H440.88V75.944H442.882V77.902ZM454.345 88.198C453.215 88.198 452.189 87.9413 451.265 87.428C450.355 86.9147 449.637 86.1887 449.109 85.25C448.595 84.2967 448.339 83.1967 448.339 81.95C448.339 80.718 448.603 79.6327 449.131 78.694C449.673 77.7407 450.407 77.0147 451.331 76.516C452.255 76.0027 453.289 75.746 454.433 75.746C455.577 75.746 456.611 76.0027 457.535 76.516C458.459 77.0147 459.185 77.7333 459.713 78.672C460.255 79.6107 460.527 80.7033 460.527 81.95C460.527 83.1967 460.248 84.2967 459.691 85.25C459.148 86.1887 458.407 86.9147 457.469 87.428C456.53 87.9413 455.489 88.198 454.345 88.198ZM454.345 86.438C455.063 86.438 455.738 86.2693 456.369 85.932C456.999 85.5947 457.505 85.0887 457.887 84.414C458.283 83.7393 458.481 82.918 458.481 81.95C458.481 80.982 458.29 80.1607 457.909 79.486C457.527 78.8113 457.029 78.3127 456.413 77.99C455.797 77.6527 455.129 77.484 454.411 77.484C453.677 77.484 453.003 77.6527 452.387 77.99C451.785 78.3127 451.301 78.8113 450.935 79.486C450.568 80.1607 450.385 80.982 450.385 81.95C450.385 82.9327 450.561 83.7613 450.913 84.436C451.279 85.1107 451.763 85.6167 452.365 85.954C452.966 86.2767 453.626 86.438 454.345 86.438ZM465.161 71.72V88H463.159V71.72H465.161ZM469.211 88.132C468.83 88.132 468.507 88 468.243 87.736C467.979 87.472 467.847 87.1493 467.847 86.768C467.847 86.3867 467.979 86.064 468.243 85.8C468.507 85.536 468.83 85.404 469.211 85.404C469.578 85.404 469.886 85.536 470.135 85.8C470.399 86.064 470.531 86.3867 470.531 86.768C470.531 87.1493 470.399 87.472 470.135 87.736C469.886 88 469.578 88.132 469.211 88.132Z" fill="white"/>
</svg>
