<svg width="24" height="25" viewBox="0 0 24 25" fill="none" xmlns="http://www.w3.org/2000/svg">
<path d="M19.8822 5.37767L19.1463 4.64173C18.9383 4.43374 18.5543 4.46575 18.3143 4.75369L15.7541 7.29766C14.602 6.80172 13.3382 6.56172 12.0101 6.56172C8.05798 6.57766 4.6342 8.88163 2.98608 12.1938C2.89006 12.4018 2.89006 12.6578 2.98608 12.8337C3.75402 14.4018 4.90609 15.6978 6.34609 16.6737L4.2501 18.8017C4.0101 19.0417 3.97809 19.4257 4.13813 19.6337L4.87408 20.3696C5.08207 20.5776 5.46606 20.5456 5.70606 20.2577L19.754 6.20979C20.058 5.96992 20.09 5.58596 19.882 5.37795L19.8822 5.37767ZM12.8581 10.2096C12.5861 10.1455 12.2981 10.0656 12.0261 10.0656C10.6661 10.0656 9.57818 11.1536 9.57818 12.5135C9.57818 12.7855 9.64219 13.0735 9.72215 13.3455L8.65003 14.4015C8.33008 13.8416 8.15409 13.2175 8.15409 12.5136C8.15409 10.3856 9.86611 8.67355 11.9941 8.67355C12.6982 8.67355 13.3221 8.84954 13.8821 9.1695L12.8581 10.2096Z" fill="#666666" fill-opacity="0.8"/>
<path d="M21.0347 12.194C20.4747 11.074 19.7386 10.066 18.8267 9.25L15.8507 12.194V12.514C15.8507 14.6419 14.1387 16.354 12.0107 16.354H11.6907L9.80273 18.2419C10.5068 18.3859 11.2427 18.4819 11.9627 18.4819C15.9149 18.4819 19.3386 16.178 20.9868 12.8498C21.1307 12.6258 21.1307 12.4019 21.0347 12.1938L21.0347 12.194Z" fill="#666666" fill-opacity="0.8"/>
</svg>
