<svg width="23" height="23" viewBox="0 0 23 23" fill="none" xmlns="http://www.w3.org/2000/svg">
<path d="M11.5 22C17.299 22 22 17.299 22 11.5C22 5.70101 17.299 1 11.5 1C5.70101 1 1 5.70101 1 11.5C1 17.299 5.70101 22 11.5 22Z" stroke="white"/>
<path d="M11.5 16.75V17.275V17.8" stroke="white" stroke-linecap="round"/>
<path d="M11.5 5.20312V5.72813V6.25313" stroke="white" stroke-linecap="round"/>
<path d="M14.6496 8.875C14.6496 7.42525 13.2394 6.25 11.4996 6.25C9.75986 6.25 8.34961 7.42525 8.34961 8.875C8.34961 10.3247 9.75986 11.5 11.4996 11.5C13.2394 11.5 14.6496 12.6753 14.6496 14.125C14.6496 15.5747 13.2394 16.75 11.4996 16.75C9.75986 16.75 8.34961 15.5747 8.34961 14.125" stroke="white" stroke-linecap="round"/>
</svg>
