<svg width="23" height="22" viewBox="0 0 23 22" fill="none" xmlns="http://www.w3.org/2000/svg">
<path d="M13.1812 11.6344C11.931 11.37 10.6536 11.2371 9.37232 11.2385C9.37254 11.2385 9.37275 11.2385 9.37297 11.2385L13.1812 11.6344ZM13.1812 11.6344V10.7361C9.34877 9.95842 5.35285 10.3719 1.78488 11.9179C1.32149 12.1286 0.932392 12.4591 0.661402 12.8693C0.390134 13.28 0.247958 13.7541 0.250022 14.2366L0.250027 14.2377L0.250024 18.3581C0.250024 18.4144 0.261673 18.4704 0.284672 18.5232C0.307685 18.576 0.341786 18.6248 0.385685 18.6665C0.429611 18.7083 0.482441 18.742 0.541467 18.7652C0.600508 18.7885 0.664196 18.8006 0.72879 18.8006C0.793384 18.8006 0.857072 18.7885 0.916118 18.7652C0.97514 18.742 1.02797 18.7083 1.0719 18.6665C1.11579 18.6248 1.1499 18.576 1.17291 18.5232C1.19591 18.4704 1.20756 18.4144 1.20756 18.3581V14.2405L13.1812 11.6344ZM9.37195 9.44495C8.40969 9.44495 7.46999 9.17375 6.67179 8.66695C5.8737 8.16022 5.25367 7.44131 4.88808 6.60262C4.52257 5.76411 4.42716 4.84224 4.61331 3.953C4.79948 3.06365 5.25936 2.24489 5.93695 1.60102C6.61468 0.957022 7.47967 0.517126 8.42316 0.338795C9.36668 0.160458 10.3445 0.252086 11.2326 0.601623C12.1206 0.951128 12.8775 1.54219 13.4091 2.29816C13.9405 3.05396 14.2233 3.94111 14.2233 4.84747C14.2233 6.06256 13.7155 7.23063 12.8069 8.09393C11.898 8.95763 10.6626 9.44495 9.37195 9.44495ZM9.37195 1.19039C8.60458 1.19039 7.85348 1.40656 7.21355 1.81287C6.57349 2.21926 6.07263 2.79818 5.77632 3.47794C5.47993 4.15788 5.40215 4.90686 5.55344 5.62959C5.70471 6.35222 6.07772 7.01415 6.62317 7.53245C7.16847 8.05061 7.86173 8.40216 8.61465 8.54447C9.36752 8.68678 10.148 8.61384 10.8579 8.33442C11.5679 8.05496 12.1768 7.58092 12.6062 6.97033C13.0357 6.35956 13.2658 5.64006 13.2658 4.90287C13.2658 4.41352 13.1643 3.92929 12.9676 3.47794C12.7709 3.02663 12.4829 2.61741 12.1207 2.2733C11.7586 1.92922 11.3294 1.6569 10.8579 1.47133C10.3865 1.28576 9.88157 1.19039 9.37195 1.19039ZM13.7832 17.3685H17.7578V17.838H13.7832V17.3685Z" fill="white" fill-opacity="0.58" stroke="white" stroke-width="0.5"/>
<path d="M21.0927 14.3923V14.1423H20.8427H18.0538V13.2573H21.5715C21.7025 13.2573 21.8257 13.3069 21.9146 13.3914C22.0031 13.4755 22.0503 13.5867 22.0503 13.6998V20.881C22.0503 20.9941 22.0031 21.1054 21.9146 21.1895C21.8257 21.274 21.7025 21.3235 21.5715 21.3235H9.78736C9.65638 21.3235 9.53317 21.274 9.44425 21.1895C9.35577 21.1054 9.30859 20.9941 9.30859 20.881V13.6998C9.30859 13.5867 9.35577 13.4755 9.44425 13.3914C9.53317 13.3069 9.65638 13.2573 9.78736 13.2573H15.1073H15.3573V13.0073V11.9894C15.3573 11.8763 15.4045 11.765 15.493 11.6809C15.5819 11.5964 15.7051 11.5469 15.8361 11.5469C15.9671 11.5469 16.0903 11.5964 16.1792 11.6809C16.2677 11.765 16.3149 11.8763 16.3149 11.9894V14.6832C16.3149 14.7963 16.2677 14.9075 16.1792 14.9916C16.0903 15.0761 15.9671 15.1257 15.8361 15.1257C15.7051 15.1257 15.5819 15.0761 15.493 14.9916C15.4045 14.9075 15.3573 14.7963 15.3573 14.6832V14.3923V14.1423H15.1073H10.5161H10.2661V14.3923V20.1885V20.4385H10.5161H20.8427H21.0927V20.1885V14.3923Z" fill="white" fill-opacity="0.58" stroke="white" stroke-width="0.5"/>
</svg>
