<svg width="23" height="22" viewBox="0 0 23 22" fill="none" xmlns="http://www.w3.org/2000/svg">
<path d="M11.4997 17.9208V20.9979V17.9208ZM15.5382 16.3823V19.4594V16.3823ZM7.46124 16.3823V19.4594V16.3823ZM4.63431 7.53568C4.52721 7.53568 4.42449 7.49515 4.34875 7.42302C4.27302 7.35089 4.23047 7.25305 4.23047 7.15104C4.23047 7.04903 4.27302 6.9512 4.34875 6.87906C4.42449 6.80693 4.52721 6.76641 4.63431 6.76641M4.63431 7.53568C4.74142 7.53568 4.84414 7.49515 4.91988 7.42302C4.99561 7.35089 5.03816 7.25305 5.03816 7.15104C5.03816 7.04903 4.99561 6.9512 4.91988 6.87906C4.84414 6.80693 4.74142 6.76641 4.63431 6.76641M18.3651 7.53568C18.258 7.53568 18.1553 7.49515 18.0795 7.42302C18.0038 7.35089 17.9612 7.25305 17.9612 7.15104C17.9612 7.04903 18.0038 6.9512 18.0795 6.87906C18.1553 6.80693 18.258 6.76641 18.3651 6.76641M18.3651 7.53568C18.4722 7.53568 18.5749 7.49515 18.6506 7.42302C18.7264 7.35089 18.7689 7.25305 18.7689 7.15104C18.7689 7.04903 18.7264 6.9512 18.6506 6.87906C18.5749 6.80693 18.4722 6.76641 18.3651 6.76641M13.2185 5.44172C13.1265 5.19112 12.9547 4.97407 12.7272 4.82075C12.4996 4.66744 12.2275 4.58548 11.9488 4.58629H10.9069C10.6114 4.58729 10.3266 4.69194 10.107 4.88025C9.88739 5.06855 9.74831 5.32731 9.71633 5.6071C9.68436 5.88689 9.76173 6.16809 9.93366 6.39698C10.1056 6.62588 10.36 6.78642 10.6484 6.84795L12.2363 7.18027C12.5597 7.24894 12.8451 7.42867 13.0381 7.68512C13.2311 7.94157 13.3181 8.25675 13.2825 8.57045C13.247 8.88414 13.0913 9.17436 12.8452 9.38564C12.5992 9.59692 12.2801 9.71446 11.9488 9.71579H11.0506C10.7719 9.7166 10.4998 9.63464 10.2722 9.48133C10.0447 9.32801 9.87295 9.11096 9.78093 8.86036M11.4997 4.58629V3.30469V4.58629ZM11.4997 10.9974V9.71579V10.9974Z" fill="white" fill-opacity="0.58"/>
<path d="M11.4997 17.9208V20.9979M15.5382 16.3823V19.4594M7.46124 16.3823V19.4594M13.2185 5.44172C13.1265 5.19112 12.9547 4.97407 12.7272 4.82075C12.4996 4.66744 12.2275 4.58548 11.9488 4.58629H10.9069C10.6114 4.58729 10.3266 4.69194 10.107 4.88025C9.88739 5.06855 9.74831 5.32731 9.71634 5.6071C9.68436 5.88689 9.76173 6.16809 9.93366 6.39698C10.1056 6.62588 10.36 6.78642 10.6484 6.84795L12.2363 7.18027C12.5597 7.24894 12.8451 7.42867 13.0381 7.68512C13.2311 7.94157 13.3181 8.25675 13.2825 8.57045C13.247 8.88414 13.0913 9.17436 12.8452 9.38564C12.5992 9.59692 12.2801 9.71446 11.9488 9.71579H11.0506C10.7719 9.7166 10.4998 9.63464 10.2722 9.48133C10.0447 9.32801 9.87295 9.11096 9.78093 8.86036M11.4997 4.58629V3.30469M11.4997 10.9974V9.71579M4.63431 7.53568C4.52721 7.53568 4.42449 7.49515 4.34875 7.42302C4.27302 7.35089 4.23047 7.25305 4.23047 7.15104C4.23047 7.04903 4.27302 6.9512 4.34875 6.87906C4.42449 6.80693 4.52721 6.76641 4.63431 6.76641C4.74142 6.76641 4.84414 6.80693 4.91988 6.87906C4.99561 6.9512 5.03816 7.04903 5.03816 7.15104C5.03816 7.25305 4.99561 7.35089 4.91988 7.42302C4.84414 7.49515 4.74142 7.53568 4.63431 7.53568ZM18.3651 7.53568C18.258 7.53568 18.1553 7.49515 18.0795 7.42302C18.0038 7.35089 17.9612 7.25305 17.9612 7.15104C17.9612 7.04903 18.0038 6.9512 18.0795 6.87906C18.1553 6.80693 18.258 6.76641 18.3651 6.76641C18.4722 6.76641 18.5749 6.80693 18.6506 6.87906C18.7264 6.9512 18.7689 7.04903 18.7689 7.15104C18.7689 7.25305 18.7264 7.35089 18.6506 7.42302C18.5749 7.49515 18.4722 7.53568 18.3651 7.53568Z" stroke="white" stroke-width="1.8" stroke-linecap="round" stroke-linejoin="round"/>
<path d="M20.3846 1H2.61538C2.18696 1 1.77608 1.1621 1.47314 1.45063C1.17019 1.73916 1 2.13049 1 2.53854V11.7698C1 12.1778 1.17019 12.5692 1.47314 12.8577C1.77608 13.1462 2.18696 13.3083 2.61538 13.3083H20.3846C20.813 13.3083 21.2239 13.1462 21.5269 12.8577C21.8298 12.5692 22 12.1778 22 11.7698V2.53854C22 2.13049 21.8298 1.73916 21.5269 1.45063C21.2239 1.1621 20.813 1 20.3846 1Z" fill="white" fill-opacity="0.58" stroke="white" stroke-width="1.8" stroke-linecap="round" stroke-linejoin="round"/>
</svg>
