<svg width="24" height="23" viewBox="0 0 24 23" fill="none" xmlns="http://www.w3.org/2000/svg">
<path d="M5.59928 15.0421H10.3994C10.9675 15.0421 11.5136 15.2737 11.9174 15.6883C12.3214 16.1032 12.5495 16.6672 12.5495 17.2566V18.6496H11.4494V17.2566C11.4494 16.9745 11.3404 16.7027 11.1442 16.5013C10.9478 16.2996 10.68 16.1851 10.3994 16.1851H5.59928C5.31863 16.1851 5.05085 16.2996 4.85447 16.5013C4.65832 16.7027 4.54926 16.9745 4.54926 17.2566V18.6496H3.44922V17.2566C3.44922 16.6672 3.67731 16.1032 4.08128 15.6883L3.90218 15.5139L4.08128 15.6883C4.48504 15.2737 5.03122 15.0421 5.59928 15.0421ZM9.63577 13.2106C9.15078 13.5434 8.58131 13.7206 7.99934 13.7206C7.2191 13.7206 6.46943 13.4023 5.91564 12.8337C5.36164 12.2648 5.04926 11.4918 5.04926 10.6845C5.04926 10.0826 5.22311 9.49468 5.54811 8.99521C5.87307 8.49581 6.33425 8.1076 6.87257 7.87863C7.41081 7.64969 8.00268 7.58991 8.57361 7.70652C9.14459 7.82315 9.67 8.1112 10.083 8.53532C10.4961 8.95952 10.7782 9.50076 10.8925 10.091C11.0068 10.6812 10.9481 11.2929 10.724 11.8485C10.4999 12.404 10.1208 12.8778 9.63577 13.2106ZM9.02971 9.11223C8.72532 8.90338 8.36674 8.79147 7.99934 8.79147C7.50651 8.79147 7.03524 8.99257 6.68883 9.34828C6.34265 9.70377 6.1493 10.1845 6.1493 10.6845C6.1493 11.0575 6.25697 11.4226 6.45941 11.7337C6.6619 12.0449 6.95039 12.2884 7.28918 12.4325C7.62804 12.5766 8.00132 12.6145 8.36152 12.5409C8.72167 12.4673 9.05156 12.2859 9.30984 12.0207C9.56805 11.7556 9.74318 11.4185 9.81407 11.0526C9.88495 10.6867 9.84863 10.3073 9.70943 9.96222C9.57021 9.61708 9.33402 9.32102 9.02971 9.11223Z" fill="white" fill-opacity="0.58" stroke="white" stroke-width="0.5"/>
<path d="M20.8005 21.6046H21.0505V21.3546V14.2109H22.1505V21.3546C22.1505 21.7261 22.0067 22.0812 21.7528 22.3419C21.4991 22.6025 21.1564 22.7476 20.8005 22.7476H1.60004C1.24416 22.7476 0.901468 22.6025 0.647745 22.342C0.393803 22.0812 0.25 21.7261 0.25 21.3546V4.92428C0.25 4.55272 0.393802 4.19767 0.647745 3.9369C0.901468 3.67636 1.24416 3.53125 1.60004 3.53125H10.9503V4.67428H1.60004H1.35004V4.92428V21.3546V21.6046H1.60004H20.8005Z" fill="white" fill-opacity="0.58" stroke="white" stroke-width="0.5"/>
<path d="M15.0055 10.0396L14.2232 9.23629L15.2454 8.18665L15.3845 8.04378L15.2761 7.87637C15.0103 7.46569 14.8233 7.00617 14.7257 6.52264L14.6852 6.32212H14.4806H13.0498V5.17909H14.4806H14.6852L14.7257 4.97857C14.8233 4.49504 15.0103 4.03551 15.2761 3.62483L15.3845 3.45743L15.2454 3.31456L14.2232 2.26492L15.0055 1.46163L16.0184 2.50177L16.1649 2.65226L16.3384 2.53383C16.7375 2.2614 17.1834 2.07027 17.652 1.97052L17.8499 1.92838V1.726V0.25H18.95V1.726V1.92838L19.1479 1.97052C19.6165 2.07027 20.0624 2.2614 20.4614 2.53383L20.6349 2.65226L20.7815 2.50177L21.7944 1.46163L22.5767 2.26492L21.5545 3.31456L21.4154 3.45743L21.5238 3.62483C21.7896 4.03551 21.9766 4.49504 22.0742 4.97857L22.1147 5.17909H22.3192H23.7501V6.32212H22.3192H22.1147L22.0742 6.52264C21.9766 7.00617 21.7896 7.46569 21.5238 7.87637L21.4154 8.04378L21.5545 8.18665L22.5767 9.23629L21.7944 10.0396L20.7815 8.99944L20.6349 8.84894L20.4614 8.96738C20.0624 9.23981 19.6165 9.43093 19.1479 9.53068L18.95 9.57282V9.7752V11.2512H17.8499V9.7752V9.57282L17.652 9.53068C17.1834 9.43093 16.7375 9.23981 16.3384 8.96738L16.1649 8.84894L16.0184 8.99944L15.0055 10.0396ZM18.3999 8.46515H18.4002C19.1049 8.46442 19.7792 8.17657 20.2754 7.667C20.7715 7.15765 21.0493 6.4684 21.05 5.75085V5.7506C21.05 5.21517 20.8954 4.69124 20.6051 4.24503C20.3147 3.79874 19.9012 3.44989 19.4163 3.24361C18.9312 3.03729 18.3971 2.9832 17.8817 3.08847C17.3663 3.19373 16.8939 3.45338 16.5237 3.83349C16.1536 4.21353 15.9023 4.69694 15.8006 5.22225C15.6988 5.74753 15.751 6.29207 15.9507 6.78727C16.1505 7.28252 16.4892 7.70688 16.9251 8.00594C17.3611 8.30506 17.8743 8.46515 18.3999 8.46515ZM14.6498 14.2158H18.95V15.3588H14.6498V14.2158ZM18.95 17.5018V18.6448H16.2499V17.5018H18.95Z" fill="white" fill-opacity="0.58" stroke="white" stroke-width="0.5"/>
</svg>
