<svg width="46" height="46" viewBox="0 0 46 46" fill="none" xmlns="http://www.w3.org/2000/svg">
<path opacity="0.21" fill-rule="evenodd" clip-rule="evenodd" d="M46 23C46 35.7025 35.7025 46 23 46C10.2975 46 0 35.7025 0 23C0 10.2975 10.2975 0 23 0C35.7025 0 46 10.2975 46 23Z" fill="#804605"/>
<g clip-path="url(#clip0_0_1)">
<path d="M24.405 10.4876C24.4719 10.5437 24.5381 10.6006 24.6034 10.6585C24.7161 10.7473 24.7667 10.781 24.9114 10.7789C25.0007 10.761 25.0894 10.7407 25.1777 10.7186C26.1273 10.5002 27.1049 10.712 27.9268 11.2202C28.38 11.5349 28.9092 12.0088 29.08 12.5571C29.0841 12.5831 29.0883 12.6092 29.0925 12.636C29.1429 12.632 29.1933 12.628 29.2451 12.6238C30.0951 12.6268 30.8454 13.1332 31.4393 13.6919C31.9233 14.1894 32.3378 14.9152 32.3688 15.6262C32.3672 15.72 32.3656 15.8137 32.364 15.9075C32.4061 15.9192 32.4481 15.9309 32.4914 15.943C33.2048 16.2109 33.7399 16.924 34.0501 17.5883C34.3855 18.4054 34.4316 19.214 34.2311 20.0703C34.216 20.2445 34.2597 20.2937 34.369 20.4272C34.9812 21.2422 35.1156 22.2072 34.9857 23.2006C34.8933 23.7082 34.685 24.2146 34.3416 24.602C34.2525 24.7143 34.2173 24.7652 34.2283 24.9103C34.2386 24.9528 34.2489 24.9952 34.2596 25.039C34.4674 26.0262 34.3263 27.0637 33.78 27.9192C33.431 28.4218 32.9655 28.9179 32.364 29.0911C32.3681 29.1415 32.3721 29.1918 32.3762 29.2437C32.3732 30.0937 31.8668 30.844 31.3081 31.4379C30.8107 31.9218 30.0849 32.3364 29.3739 32.3674C29.3237 32.3665 29.3237 32.3665 29.2726 32.3657C29.2132 32.3646 29.1538 32.3636 29.0925 32.3626C29.0808 32.4046 29.0691 32.4467 29.0571 32.49C28.7895 33.2024 28.0751 33.7427 27.4093 34.0485C27.3241 34.0841 27.3241 34.0841 27.2371 34.1204C27.1868 34.1416 27.1365 34.1628 27.0847 34.1847C26.4577 34.4049 25.686 34.3965 25.0415 34.2566C24.847 34.2165 24.847 34.2165 24.6587 34.273C24.6254 34.3032 24.592 34.3334 24.5576 34.3646C23.7836 34.9867 22.8722 35.0711 21.9148 34.9993C21.3673 34.9277 20.8126 34.7077 20.3981 34.3401C20.2858 34.2511 20.2348 34.2159 20.0897 34.2269C20.0473 34.2372 20.0048 34.2475 19.9611 34.2581C18.9739 34.466 17.9363 34.3248 17.0808 33.7786C16.5783 33.4296 16.0822 32.964 15.9089 32.3626C15.8586 32.3666 15.8082 32.3707 15.7564 32.3748C14.9064 32.3718 14.1561 31.8654 13.5621 31.3067C13.0782 30.8093 12.6637 30.0834 12.6327 29.3725C12.6343 29.2787 12.6359 29.1849 12.6375 29.0911C12.5954 29.0794 12.5534 29.0677 12.5101 29.0556C11.7969 28.7878 11.2604 28.0743 10.9514 27.4096C10.6144 26.5923 10.5602 25.794 10.7704 24.9352C10.7851 24.7561 10.7448 24.7086 10.6325 24.5715C10.0203 23.7565 9.88589 22.7914 10.0158 21.798C10.1082 21.2904 10.3165 20.784 10.6599 20.3967C10.7495 20.2832 10.7824 20.2328 10.7803 20.0869C10.7624 19.9971 10.7422 19.9078 10.72 19.8189C10.5032 18.8972 10.7027 17.9355 11.1879 17.1343C11.5166 16.656 11.9807 16.1006 12.5587 15.9199C12.5977 15.9138 12.5977 15.9138 12.6375 15.9075C12.6334 15.8572 12.6294 15.8068 12.6253 15.7549C12.6283 14.9049 13.1347 14.1547 13.6934 13.5607C14.1908 13.0768 14.9166 12.6623 15.6276 12.6313C15.661 12.6318 15.6945 12.6324 15.7289 12.633C15.818 12.6345 15.818 12.6345 15.9089 12.636C15.9207 12.594 15.9324 12.5519 15.9444 12.5086C16.2123 11.7954 16.9257 11.2593 17.5903 10.9499C18.4041 10.6148 19.2146 10.5628 20.0666 10.7689C20.2445 10.7838 20.2924 10.7426 20.4286 10.631C21.5689 9.7745 23.197 9.75274 24.405 10.4876Z" fill="#804606"/>
<path d="M28.3111 16.0732C28.3927 16.1482 28.4741 16.2234 28.5552 16.299C28.5938 16.3344 28.6324 16.3698 28.6721 16.4062C29.8167 17.4972 30.6056 19.0169 30.9569 20.5471C30.9645 20.5801 30.9721 20.613 30.9799 20.647C31.1162 21.2801 31.1631 21.9067 31.1614 22.5521C31.1614 22.6079 31.1614 22.6079 31.1613 22.6649C31.1593 23.2945 31.107 23.8908 30.9478 24.5022C30.9373 24.5434 30.9268 24.5847 30.9161 24.6272C30.5139 26.1757 29.7094 27.5075 28.604 28.6526C28.5729 28.6868 28.5417 28.721 28.5096 28.7563C27.3422 30.0044 25.6516 30.6962 24.0142 31.0451C23.9718 31.0543 23.9293 31.0635 23.8856 31.073C21.7565 31.4595 19.4034 30.9062 17.6279 29.6888C17.4913 29.5911 17.3584 29.4895 17.2271 29.385C17.1875 29.3537 17.1875 29.3537 17.1471 29.3217C15.3658 27.8972 14.2371 25.9087 13.8945 23.6538C13.6336 21.2697 14.2432 18.9417 15.7435 17.066C17.1606 15.3283 19.1829 14.1532 21.4232 13.8943C23.9775 13.6361 26.3851 14.3683 28.3111 16.0732Z" fill="#F9F0F0"/>
<path d="M22.5 10C23.2689 10 24.0095 10.1333 24.6027 10.6592C24.7154 10.7479 24.766 10.7817 24.9107 10.7795C24.9999 10.7616 25.0887 10.7414 25.177 10.7193C26.1265 10.5009 27.1041 10.7127 27.926 11.2209C28.3792 11.5356 28.9084 12.0095 29.0792 12.5578C29.0834 12.5838 29.0875 12.6099 29.0918 12.6367C29.1422 12.6327 29.1925 12.6287 29.2444 12.6245C30.0944 12.6275 30.8446 13.1339 31.4386 13.6926C31.9225 14.1901 32.337 14.9159 32.368 15.6269C32.3665 15.7206 32.3649 15.8144 32.3633 15.9082C32.4053 15.9199 32.4474 15.9316 32.4907 15.9437C33.204 16.2116 33.7392 16.9247 34.0494 17.589C34.3848 18.4061 34.4308 19.2147 34.2304 20.071C34.2153 20.2451 34.259 20.2944 34.3683 20.4279C34.9804 21.2428 35.1149 22.2079 34.9849 23.2013C34.8926 23.7089 34.6843 24.2153 34.3408 24.6027C34.2518 24.7149 34.2166 24.7659 34.2275 24.911C34.2379 24.9535 34.2482 24.9959 34.2588 25.0396C34.4667 26.0268 34.3255 27.0644 33.7793 27.9199C33.4303 28.4225 32.9647 28.9186 32.3633 29.0918C32.3673 29.1422 32.3713 29.1925 32.3755 29.2444C32.3725 30.0944 31.8661 30.8446 31.3074 31.4386C30.8099 31.9225 30.0841 32.337 29.3731 32.368C29.323 32.3672 29.323 32.3672 29.2719 32.3663C29.2124 32.3653 29.153 32.3643 29.0918 32.3633C29.0801 32.4053 29.0684 32.4474 29.0563 32.4907C28.7888 33.2031 28.0744 33.7434 27.4086 34.0492C27.3233 34.0848 27.3233 34.0848 27.2363 34.1211C27.186 34.1423 27.1357 34.1635 27.0839 34.1854C26.457 34.4056 25.6852 34.3972 25.0408 34.2573C24.8463 34.2171 24.8463 34.2171 24.658 34.2737C24.6246 34.3039 24.5913 34.3341 24.5569 34.3652C23.9373 34.8633 23.2789 35 22.5 35C22.5 33.7271 22.5 32.4541 22.5 31.1426C22.9189 31.1104 23.3379 31.0781 23.7695 31.0449C24.0683 30.9883 24.3564 30.9288 24.6484 30.8496C24.6825 30.8409 24.7167 30.8321 24.7518 30.8231C25.3142 30.6785 25.8355 30.4682 26.3574 30.2148C26.4064 30.1911 26.4064 30.1911 26.4563 30.1669C28.3926 29.2143 29.9365 27.4197 30.6394 25.3818C30.7564 25.0268 30.8591 24.6698 30.9473 24.3066C30.9554 24.2747 30.9635 24.2427 30.9719 24.2097C31.4925 22.085 30.8961 19.7561 29.8242 17.9102C29.6759 17.6711 29.511 17.4465 29.3359 17.2266C29.3148 17.1999 29.2937 17.1733 29.2719 17.1458C27.8193 15.3346 25.7519 14.2003 23.4457 13.9255C23.1309 13.8971 22.8153 13.8784 22.5 13.8574C22.5 12.5845 22.5 11.3115 22.5 10Z" fill="#804606"/>
<path d="M22.4997 13.8607C22.6173 13.8603 22.7349 13.86 22.8525 13.8597C22.8857 13.8596 22.9188 13.8595 22.953 13.8594C25.0568 13.8563 27.0492 14.8985 28.5543 16.3021C28.5929 16.3374 28.6315 16.3728 28.6713 16.4093C29.8159 17.5003 30.6047 19.0199 30.9561 20.5501C30.9637 20.5831 30.9712 20.616 30.979 20.65C31.1154 21.2831 31.1623 21.9098 31.1605 22.5551C31.1605 22.5923 31.1605 22.6296 31.1605 22.6679C31.1584 23.2976 31.1062 23.8938 30.9469 24.5052C30.9365 24.5465 30.926 24.5877 30.9152 24.6302C30.5131 26.1788 29.7085 27.5105 28.6032 28.6556C28.572 28.6898 28.5409 28.7241 28.5088 28.7593C27.3413 30.0074 25.6508 30.6992 24.0133 31.0482C23.9719 31.0573 23.9305 31.0665 23.8878 31.076C23.7416 31.1019 23.5969 31.1138 23.4488 31.1244C23.3671 31.1306 23.3671 31.1306 23.2838 31.1368C23.0227 31.1487 22.761 31.1458 22.4997 31.1458C22.4997 29.6312 22.4997 28.1165 22.4997 26.556C24.0465 26.556 25.5934 26.556 27.1872 26.556C27.1872 26.0726 27.1872 25.5892 27.1872 25.0911C26.9293 25.0911 26.6715 25.0911 26.4059 25.0911C26.4675 24.737 26.5394 24.3889 26.6267 24.0403C26.6386 23.9922 26.6506 23.944 26.6628 23.8943C26.7018 23.7371 26.741 23.5799 26.7801 23.4228C26.8074 23.313 26.8346 23.2032 26.8618 23.0934C26.9331 22.8059 27.0046 22.5184 27.0761 22.231C27.1493 21.9371 27.2222 21.6431 27.2951 21.3492C27.438 20.7735 27.5811 20.1979 27.7243 19.6224C27.5786 19.6224 27.5142 19.6415 27.3831 19.6969C27.3441 19.7132 27.3051 19.7295 27.2649 19.7464C27.2226 19.7644 27.1803 19.7824 27.1368 19.8009C27.0926 19.8195 27.0484 19.8381 27.0029 19.8572C26.8608 19.917 26.7188 19.9772 26.5768 20.0374C26.4842 20.0765 26.3916 20.1155 26.2989 20.1545C26.2069 20.1933 26.1149 20.2321 26.0229 20.2709C25.9549 20.2995 25.9549 20.2995 25.8854 20.3288C25.659 20.4243 25.433 20.5207 25.2077 20.6192C25.1651 20.6376 25.1224 20.6561 25.0785 20.6751C24.9979 20.71 24.9175 20.7452 24.8373 20.7809C24.5669 20.8974 24.5669 20.8974 24.404 20.8431C24.3243 20.7292 24.3243 20.7292 24.2373 20.5766C24.2213 20.549 24.2053 20.5213 24.1888 20.4928C24.1542 20.4327 24.1198 20.3725 24.0855 20.3122C23.9938 20.1509 23.9007 19.9903 23.8077 19.8297C23.7886 19.7965 23.7694 19.7633 23.7497 19.7292C23.5292 19.3479 23.2997 18.9721 23.0696 18.5966C23.0197 18.5151 22.9699 18.4336 22.92 18.3521C22.8918 18.3061 22.8636 18.2602 22.8345 18.2128C22.8046 18.1623 22.7747 18.1119 22.7438 18.0599C22.7225 18.0316 22.7013 18.0034 22.6794 17.9743C22.4256 17.6026 22.4689 17.1857 22.4758 16.7551C22.4763 16.6714 22.4766 16.5877 22.4769 16.5041C22.4778 16.2851 22.4802 16.0663 22.4829 15.8474C22.4854 15.6235 22.4865 15.3996 22.4877 15.1757C22.4903 14.7373 22.4945 14.299 22.4997 13.8607Z" fill="#E2DEF4"/>
<path d="M22.4512 17.6172C22.4834 17.6172 22.5156 17.6172 22.5488 17.6172C22.5709 17.6577 22.593 17.6983 22.6158 17.74C22.8795 18.2184 23.1605 18.6858 23.445 19.152C23.7864 19.7115 24.1215 20.2745 24.4531 20.8398C24.7652 20.7411 25.0663 20.6253 25.3673 20.4971C25.4335 20.4692 25.4335 20.4692 25.501 20.4407C25.6411 20.3816 25.7811 20.3224 25.921 20.2631C26.5343 20.0031 27.1476 19.75 27.7734 19.5215C27.6318 20.1753 27.4762 20.8251 27.3151 21.4744C27.2903 21.5746 27.2655 21.6748 27.2408 21.775C27.1893 21.983 27.1378 22.1909 27.0863 22.3988C27.0201 22.6654 26.9542 22.932 26.8883 23.1987C26.8373 23.4047 26.7863 23.6106 26.7353 23.8166C26.7109 23.915 26.6866 24.0134 26.6623 24.1118C26.6284 24.2485 26.5945 24.3852 26.5606 24.5219C26.5506 24.5624 26.5406 24.603 26.5303 24.6448C26.4931 24.7943 26.455 24.9416 26.4062 25.0879C26.6641 25.0879 26.9219 25.0879 27.1875 25.0879C27.1875 25.5713 27.1875 26.0547 27.1875 26.5527C24.0938 26.5527 21 26.5527 17.8125 26.5527C17.8125 26.0693 17.8125 25.5859 17.8125 25.0879C18.0703 25.0879 18.3281 25.0879 18.5938 25.0879C18.5732 25.007 18.5526 24.9261 18.5313 24.8427C17.8344 22.1046 17.8344 22.1046 17.5089 20.8088C17.4835 20.7076 17.458 20.6064 17.4324 20.5053C17.3972 20.3658 17.3622 20.2263 17.3273 20.0868C17.3118 20.0257 17.3118 20.0257 17.2959 19.9633C17.2584 19.8125 17.2266 19.6775 17.2266 19.5215C17.5272 19.6169 17.8175 19.7269 18.107 19.8518C18.1478 19.8692 18.1885 19.8867 18.2305 19.9046C18.3598 19.9598 18.489 20.0153 18.6182 20.0708C19.3533 20.3859 19.3533 20.3859 20.0906 20.6956C20.1255 20.7103 20.1605 20.725 20.1964 20.7401C20.366 20.8145 20.366 20.8145 20.5469 20.8398C20.6268 20.7262 20.6268 20.7262 20.7088 20.5782C20.7249 20.5504 20.7409 20.5227 20.7574 20.4941C20.7923 20.4337 20.827 20.3732 20.8616 20.3127C20.9541 20.1508 21.0478 19.9895 21.1414 19.8282C21.1607 19.7949 21.18 19.7615 21.1999 19.7272C21.4212 19.3458 21.6508 18.9694 21.8812 18.5934C22.0783 18.2717 22.2718 17.9492 22.4512 17.6172Z" fill="#804606"/>
<path d="M22.5 17.6641C22.642 17.806 22.735 17.9473 22.8345 18.1186C22.8527 18.1494 22.8709 18.1802 22.8896 18.2119C22.9287 18.2784 22.9678 18.3449 23.0067 18.4115C23.11 18.5879 23.214 18.7639 23.3179 18.9399C23.3391 18.9758 23.3602 19.0117 23.3821 19.0488C23.6347 19.4765 23.8931 19.9007 24.1519 20.3247C24.1844 20.3781 24.217 20.4315 24.2506 20.4866C24.2792 20.5334 24.3078 20.5802 24.3373 20.6284C24.4043 20.7402 24.4043 20.7402 24.4531 20.8379C24.7652 20.7391 25.0663 20.6233 25.3673 20.4951C25.4114 20.4765 25.4556 20.4579 25.501 20.4388C25.6411 20.3797 25.7811 20.3204 25.921 20.2611C26.5343 20.0012 27.1476 19.748 27.7734 19.5195C27.6316 20.1731 27.4769 20.8231 27.3168 21.4725C27.2922 21.5727 27.2675 21.6729 27.2428 21.7731C27.1916 21.981 27.1403 22.1889 27.0889 22.3968C27.0231 22.6634 26.9576 22.9301 26.8923 23.1967C26.8417 23.4027 26.7909 23.6087 26.74 23.8146C26.7157 23.913 26.6915 24.0114 26.6674 24.1099C26.6339 24.2466 26.6001 24.3833 26.5662 24.5199C26.5514 24.5808 26.5514 24.5808 26.5363 24.6428C26.4938 24.8127 26.4555 24.9389 26.3574 25.0859C26.2318 25.0999 26.1179 25.1044 25.9922 25.1026C25.9349 25.1026 25.9349 25.1026 25.8763 25.1026C25.7522 25.1025 25.6282 25.1014 25.5041 25.1002C25.4276 25.1 25.3511 25.0999 25.2746 25.0998C24.9906 25.099 24.7066 25.097 24.4226 25.0951C23.4709 25.0906 23.4709 25.0906 22.5 25.0859C22.5 22.6367 22.5 20.1875 22.5 17.6641Z" fill="#804606"/>
<path d="M27.1875 25.0864C27.1875 25.5698 27.1875 26.0532 27.1875 26.5513C25.6406 26.5513 24.0938 26.5513 22.5 26.5513C22.5 26.0679 22.5 25.5845 22.5 25.0864C22.9886 25.0789 23.4772 25.0716 23.9658 25.0648C24.1928 25.0616 24.4198 25.0583 24.6467 25.0548C24.8664 25.0514 25.0862 25.0482 25.3059 25.0453C25.389 25.0441 25.4722 25.0429 25.5553 25.0415C26.1025 25.0325 26.6413 25.0486 27.1875 25.0864Z" fill="#804606"/>
<path d="M19.5245 25.0423C19.611 25.0435 19.6975 25.0447 19.7839 25.0458C20.0087 25.0489 20.2334 25.0523 20.4582 25.0557C20.6887 25.0592 20.9191 25.0623 21.1496 25.0655C21.5997 25.0718 22.0499 25.0784 22.5 25.0853C22.5 25.5687 22.5 26.0521 22.5 26.5501C20.9531 26.5501 19.4062 26.5501 17.8125 26.5501C17.8125 26.0667 17.8125 25.5833 17.8125 25.0853C18.3856 25.0425 18.9502 25.033 19.5245 25.0423Z" fill="#804606"/>
</g>
<defs>
<clipPath id="clip0_0_1">
<rect width="25" height="25" fill="white" transform="translate(10 10)"/>
</clipPath>
</defs>
</svg>
