<svg width="15" height="27" viewBox="0 0 15 27" fill="none" xmlns="http://www.w3.org/2000/svg">
<path fill-rule="evenodd" clip-rule="evenodd" d="M0.572663 14.9587C0.205987 14.5784 0 14.0627 0 13.5249C0 12.9872 0.205987 12.4715 0.572663 12.0912L11.6372 0.619107C11.8177 0.425418 12.0335 0.270924 12.2721 0.164642C12.5107 0.0583598 12.7674 0.00241644 13.0271 7.65677e-05C13.2868 -0.0022633 13.5444 0.0490476 13.7847 0.151014C14.0251 0.252981 14.2435 0.403562 14.4271 0.593971C14.6108 0.784379 14.756 1.0108 14.8544 1.26003C14.9527 1.50926 15.0022 1.77629 14.9999 2.04556C14.9977 2.31483 14.9437 2.58094 14.8412 2.82835C14.7387 3.07577 14.5897 3.29954 14.4029 3.48661L4.72114 13.5249L14.4029 23.5632C14.7592 23.9457 14.9563 24.458 14.9519 24.9897C14.9474 25.5214 14.7417 26.03 14.3791 26.406C14.0164 26.782 13.5259 26.9953 13.013 26.9999C12.5002 27.0045 12.0061 26.8001 11.6372 26.4307L0.572663 14.9587Z" fill="black"/>
</svg>
