<svg width="304" height="353" viewBox="0 0 304 353" fill="none" xmlns="http://www.w3.org/2000/svg">
<g clip-path="url(#clip0_3165_56913)">
<rect width="304" height="353" fill="white"/>
<path d="M117.742 289.731C111.693 283.652 102.927 280.166 93.6918 280.166L93.3356 280.167C87.2528 280.169 81.2785 278.597 76.0237 275.612L75.4769 275.301L75.9173 274.859C78.3016 272.456 80.2925 269.709 81.8202 266.716C80.7352 267.702 79.4411 268.443 78.0295 268.887C76.6179 269.332 75.1233 269.468 73.6515 269.287C72.0977 269.107 70.6059 268.586 69.2882 267.763C67.9705 266.941 66.861 265.839 66.043 264.539C62.8153 259.436 58.9678 252.195 58.9678 246.679C58.9728 242.017 59.9747 237.407 61.9096 233.143C63.8444 228.879 66.6699 225.054 70.2057 221.913C72.4443 219.946 74.2323 217.542 75.4532 214.857C76.6741 212.171 77.3005 209.266 77.2916 206.329L77.2898 205.911C77.2892 202.044 77.7741 198.192 78.7338 194.44L78.8312 194.061L79.2313 194.075C81.8111 194.16 84.3922 193.95 86.9215 193.447C84.549 193.164 82.2282 192.562 80.0247 191.66L79.5943 191.49L79.7404 191.06C89.8086 184.986 112.535 188.132 125.727 158.724C136.423 134.879 174.164 179.892 174.164 205.911C174.164 208.566 171.467 212.074 173.486 213.829C195.307 232.798 180.251 244.979 175.504 257.236C174.377 260.144 176.82 263.336 176.82 266.482C176.82 267.016 176.806 267.567 176.778 268.12L176.736 268.97L176.008 268.499C174.569 267.58 173.235 266.514 172.029 265.318C173.28 268.124 173.87 271.168 173.754 274.225C173.639 277.283 172.822 280.276 171.362 282.985C169.076 287.19 166.863 290.201 164.787 291.933C158.135 297.48 149.56 300.341 140.816 299.931C132.071 299.522 123.817 295.873 117.742 289.731H117.742Z" fill="#FFD233"/>
<path d="M154.276 353C154.425 353 154.568 352.947 154.681 352.852C154.793 352.757 154.866 352.626 154.887 352.482C154.913 352.303 157.485 334.228 155.175 310.206C153.042 288.021 146.191 256.067 125.669 229.824C125.62 229.761 125.558 229.708 125.488 229.668C125.418 229.628 125.34 229.602 125.26 229.591C125.179 229.581 125.097 229.586 125.019 229.606C124.94 229.626 124.867 229.661 124.802 229.709C124.737 229.757 124.683 229.817 124.642 229.885C124.602 229.954 124.575 230.03 124.564 230.108C124.553 230.186 124.558 230.266 124.579 230.343C124.6 230.419 124.636 230.491 124.685 230.554C145.031 256.57 151.826 288.29 153.945 310.318C156.241 334.2 153.689 352.134 153.663 352.313C153.651 352.398 153.657 352.485 153.683 352.568C153.708 352.651 153.751 352.727 153.809 352.792C153.867 352.857 153.939 352.91 154.019 352.945C154.1 352.981 154.187 353 154.276 353V353Z" fill="#3F3D56"/>
<path d="M137.528 266.841C137.659 266.841 137.786 266.801 137.892 266.726C137.998 266.652 138.076 266.546 138.117 266.425C138.157 266.304 138.157 266.174 138.117 266.053C138.076 265.932 137.998 265.827 137.892 265.752C132.045 261.895 125.727 258.762 119.086 256.424C108.71 252.723 92.9327 249.367 76.6898 254.404C76.6122 254.428 76.5403 254.467 76.4781 254.518C76.4159 254.568 76.3646 254.631 76.3272 254.701C76.2898 254.772 76.267 254.848 76.2601 254.927C76.2531 255.006 76.2623 255.086 76.2869 255.161C76.3116 255.237 76.3512 255.307 76.4037 255.367C76.4561 255.428 76.5203 255.477 76.5926 255.514C76.6648 255.55 76.7437 255.572 76.8247 255.579C76.9057 255.585 76.9872 255.576 77.0646 255.552C92.9747 250.618 108.466 253.918 118.661 257.555C125.196 259.853 131.411 262.933 137.165 266.726C137.271 266.801 137.398 266.841 137.528 266.841Z" fill="#3F3D56"/>
<path d="M165.817 198.193C165.826 198.066 165.794 197.94 165.725 197.831C165.656 197.723 165.554 197.639 165.433 197.591C165.312 197.543 165.179 197.534 165.052 197.564C164.925 197.595 164.812 197.664 164.728 197.761C160.359 203.166 156.696 209.08 153.825 215.366C149.289 225.183 144.718 240.275 148.704 256.423C148.723 256.5 148.757 256.573 148.805 256.637C148.853 256.701 148.913 256.755 148.982 256.796C149.052 256.838 149.129 256.865 149.209 256.878C149.289 256.89 149.371 256.887 149.45 256.869C149.529 256.85 149.603 256.817 149.669 256.77C149.735 256.723 149.79 256.665 149.833 256.597C149.875 256.53 149.903 256.455 149.916 256.376C149.929 256.298 149.925 256.218 149.906 256.142C146.002 240.324 150.495 225.506 154.952 215.86C157.775 209.675 161.376 203.856 165.673 198.537C165.757 198.44 165.807 198.32 165.817 198.193Z" fill="#3F3D56"/>
<path d="M285.033 352.361H235.83L235.619 351.987C234.99 350.875 234.382 349.698 233.815 348.487C228.746 337.915 226.604 325.823 224.714 315.155L223.291 307.113C223.119 306.14 223.248 305.138 223.664 304.236C224.079 303.335 224.761 302.574 225.623 302.053C226.484 301.531 227.486 301.272 228.499 301.308C229.513 301.344 230.492 301.674 231.312 302.256C238.79 307.558 246.27 312.854 253.753 318.146C256.587 320.155 259.823 322.48 262.922 324.992C263.221 323.577 263.534 322.158 263.846 320.758C264.062 319.792 264.569 318.911 265.302 318.226C266.034 317.542 266.96 317.087 267.96 316.919C268.96 316.75 269.989 316.876 270.915 317.281C271.841 317.685 272.622 318.35 273.158 319.19L278.915 328.202C283.114 334.783 286.82 341.268 286.065 348.263C286.068 348.348 286.062 348.433 286.045 348.517C285.894 349.666 285.614 350.795 285.21 351.884L285.033 352.361Z" fill="#F0F0F0"/>
<path d="M262.11 163.884L252.614 129.638C252.208 128.188 251.232 126.952 249.899 126.197C248.565 125.442 246.98 125.228 245.486 125.601C244.713 125.795 243.989 126.139 243.357 126.614C242.725 127.089 242.199 127.684 241.811 128.363C241.423 129.043 241.181 129.792 241.1 130.565C241.019 131.339 241.1 132.12 241.339 132.862L252.322 168.141L258.068 189.852C257.231 190.474 256.611 191.333 256.293 192.311C255.974 193.289 255.972 194.338 256.287 195.317C256.602 196.297 257.219 197.157 258.053 197.783C258.888 198.409 259.9 198.769 260.952 198.815C262.004 198.86 263.045 198.589 263.933 198.039C264.821 197.488 265.514 196.684 265.918 195.736C266.321 194.788 266.415 193.743 266.187 192.741C265.959 191.739 265.42 190.83 264.643 190.137L262.11 163.884Z" fill="#FFCBA5"/>
<path d="M182.205 156.506L211.057 134.87C212.277 133.95 213.076 132.6 213.283 131.11C213.489 129.621 213.087 128.112 212.162 126.909C211.683 126.287 211.08 125.767 210.388 125.379C209.696 124.992 208.931 124.745 208.138 124.656C207.346 124.566 206.543 124.634 205.778 124.857C205.013 125.079 204.303 125.451 203.691 125.949L174.428 149.319L156.033 162.788C155.122 162.272 154.071 162.042 153.022 162.129C151.973 162.216 150.976 162.615 150.168 163.273C149.36 163.93 148.779 164.815 148.505 165.805C148.23 166.796 148.275 167.844 148.634 168.809C148.992 169.774 149.647 170.608 150.509 171.197C151.37 171.787 152.398 172.103 153.451 172.104C154.504 172.105 155.531 171.79 156.394 171.202C157.257 170.614 157.913 169.782 158.274 168.818L182.205 156.506Z" fill="#FFCBA5"/>
<path d="M205.721 161.483L204.449 189.158L244.381 180.702C240.982 169.581 238.671 167.685 241.225 159.945L205.721 161.483Z" fill="#FFCBA5"/>
<path d="M230.273 110.742H216.968L211.254 120.269L208.531 120.123C207.2 120.051 205.867 120.245 204.615 120.692C203.363 121.139 202.217 121.831 201.249 122.724C200.28 123.617 199.508 124.694 198.981 125.887C198.454 127.081 198.182 128.367 198.182 129.666L201.536 134.732C201.536 134.732 195.537 144.92 204.179 149.932C204.179 149.932 202.638 159.376 204.179 159.274C205.72 159.173 209.271 157.251 205.72 159.173C202.17 161.095 202.435 161.353 202.894 161.8L203.353 162.248L240.686 168.356C240.686 168.356 241.778 161.304 241.896 160.046C242.013 158.788 241.224 161.863 242.013 158.788C242.802 155.713 243.986 156.866 242.802 155.713C241.619 154.56 250.471 140.274 246.834 134.732L252.665 129.191C252.665 123.875 243.903 119.566 238.447 119.566H237.749L230.273 110.742Z" fill="#3E1654"/>
<path d="M198.216 341.693H192.831L190.269 321.453L198.217 321.454L198.216 341.693Z" fill="#A0616A"/>
<path d="M181.961 349.437C181.964 350.024 182.204 350.587 182.63 351.004C183.056 351.42 183.634 351.655 184.237 351.659H194.375L194.689 351.025L196.123 348.141L196.678 351.025L196.801 351.659H200.625L200.57 351.02L199.551 339.106L198.217 339.026L192.454 338.694L191.038 338.609V342.167C189.964 343.28 181.533 347.489 181.961 349.437Z" fill="#2F2E41"/>
<path d="M278.252 327.952L273.723 330.79L260.33 315.119L267.015 310.93L278.252 327.952Z" fill="#A0616A"/>
<path d="M268.881 343.031C269.209 343.524 269.724 343.871 270.314 343.996C270.903 344.121 271.52 344.015 272.029 343.7L280.555 338.356L280.467 337.657L280.072 334.476L282.14 336.608L282.595 337.077L285.811 335.061L285.411 334.552L277.938 325.07L276.772 325.706L271.74 328.465L270.503 329.14L272.478 332.132C272.193 333.634 267.44 341.619 268.881 343.031Z" fill="#2F2E41"/>
<path d="M303.374 352.735L136.618 352.893C136.451 352.892 136.292 352.827 136.174 352.712C136.057 352.597 135.991 352.442 135.991 352.28C135.991 352.117 136.057 351.962 136.174 351.847C136.292 351.732 136.451 351.667 136.618 351.666L303.374 351.508C303.54 351.509 303.7 351.574 303.817 351.689C303.934 351.804 304 351.959 304 352.121C304 352.283 303.934 352.439 303.817 352.554C303.7 352.669 303.54 352.734 303.374 352.735Z" fill="#CACACA"/>
<path d="M243.755 177.578C243.755 177.578 218.23 190.734 204.729 181.758C204.729 181.758 201.776 195.695 200.592 196.848C199.409 198.002 197.523 198.504 198.861 199.79C200.198 201.077 200.942 202.814 198.4 205.02C195.858 207.227 193.324 206.527 195.775 208.799C198.225 211.071 188.363 266.806 188.363 266.806C188.363 266.806 189.941 318.637 188.363 320.205C186.785 321.773 184.676 322.124 186.717 324.062C188.758 326.001 188.758 324.497 188.758 327.171V329.845L189.691 332.502H202.5C202.5 332.502 205.591 329.003 202.5 325.964C199.409 322.926 203.441 322.094 204.383 319.243C205.326 316.391 206.904 319.466 205.326 316.391C203.748 313.316 202.99 313.901 202.975 311.879C202.959 309.857 226.234 230.674 226.234 230.674L229.053 274.501L262.961 322.498L272.942 315.204C272.942 315.204 265.676 305.237 267.375 303.867C269.074 302.496 262.367 300.778 264.482 299.232C266.597 297.686 261.505 296.129 263.424 294.08C265.343 292.031 260.78 286.866 258.136 286.866C255.492 286.866 251.782 278.258 251.782 278.258L257.321 210.25L243.755 177.578Z" fill="#2F2E41"/>
<path d="M216.701 82.7684C216.52 82.9995 215.081 82.8751 213.351 82.6288C209.929 82.142 209.462 82.7205 206.904 84.9877C203.199 88.272 205.306 108.304 203.485 112.644L202.896 113.066C204.063 112.849 205.209 112.537 206.322 112.132C206.951 110.199 207.581 108.26 208.216 106.329C208.815 107.831 209.192 109.41 209.335 111.016C210.216 110.677 211.091 109.85 214.772 108.74C216.625 107.515 230.033 106.283 231.757 105.744C236.132 91.2412 229.082 85.376 216.701 82.7684Z" fill="#2F2E41"/>
<path d="M221.228 105.134C228.305 105.134 234.041 99.544 234.041 92.6489C234.041 85.7537 228.305 80.1641 221.228 80.1641C214.152 80.1641 208.415 85.7537 208.415 92.6489C208.415 99.544 214.152 105.134 221.228 105.134Z" fill="#FFCBA5"/>
<path d="M229.295 81.6669C228.573 81.5631 227.878 81.3257 227.247 80.9674C226.934 80.7835 226.681 80.5176 226.516 80.2001C226.352 79.8826 226.282 79.5264 226.315 79.1721C226.472 78.285 227.502 77.7553 228.424 77.8093C229.342 77.9383 230.215 78.2823 230.967 78.8119C230.884 77.9546 230.508 77.1493 229.899 76.5252C229.291 75.9011 228.484 75.4945 227.61 75.3707C228.823 75.307 230.084 75.2508 231.206 75.7054C232.327 76.16 233.262 77.2857 233.06 78.4529C234.946 78.2162 236.805 79.4965 237.584 81.1867C238.362 82.877 238.208 84.862 237.586 86.6127C237.525 86.8809 237.405 87.133 237.235 87.352C237.065 87.5711 236.848 87.752 236.6 87.8824C235.965 88.1171 235.283 87.7235 234.733 87.3356C231.86 85.309 229.245 82.9561 226.944 80.3268" fill="#2F2E41"/>
<path d="M234.881 105.923C234.338 106.172 234.621 107.099 234.199 107.514C234.015 107.69 233.794 107.824 233.552 107.906C233.488 107.132 233.303 106.373 233.003 105.654C232.948 105.523 232.857 105.377 232.715 105.388C232.55 105.408 232.506 105.619 232.502 105.777C232.469 106.558 232.291 107.328 231.978 108.048C231.974 108.056 231.97 108.067 231.966 108.075C231.843 108.071 231.717 108.067 231.599 108.064C230.684 108.029 228.656 105.738 228.206 106.515C229.792 103.774 231.725 99.6533 232.021 96.5206C232.124 95.8648 232.074 95.1949 231.875 94.5603C231.771 94.2446 231.577 93.9645 231.315 93.7533C231.052 93.5421 230.733 93.4086 230.396 93.3687C230.229 93.3613 230.063 93.3899 229.909 93.4524C229.755 93.5149 229.617 93.6097 229.505 93.7302C229.393 93.8507 229.31 93.9938 229.261 94.1492C229.213 94.3047 229.2 94.4687 229.224 94.6295L228.995 94.5988C226.873 92.9152 228.703 89.99 226.234 88.833C225.398 88.4409 220.277 89.7517 219.374 89.5211C219.354 88.5938 219.16 87.6779 218.802 86.8189C218.746 86.6882 218.656 86.5421 218.514 86.5536C218.348 86.5729 218.305 86.7843 218.301 86.9418C218.267 87.7236 218.09 88.4932 217.776 89.2136C216.524 89.0406 215.25 89.1058 214.024 89.4057C212.944 89.6825 211.918 90.1591 210.833 90.4128C210.297 90.5729 209.733 90.6248 209.175 90.5654C208.617 90.5059 208.078 90.3363 207.59 90.0669C206.213 89.1674 205.973 87.1763 206.659 85.708C207.156 84.7658 207.827 83.9213 208.64 83.2172C209.259 82.6329 209.902 82.0717 210.545 81.5105C211.121 81.007 211.697 80.5034 212.273 79.9999C212.998 79.335 213.77 78.721 214.585 78.1626C215.884 77.3323 217.345 76.7697 218.876 76.5093C220.407 76.2489 221.976 76.2961 223.488 76.6481C225.303 77.0709 227.729 76.4751 229.39 77.3015C230.258 77.7359 232.179 79.4003 232.94 79.9922C234.889 81.5029 233.57 80.2719 235.702 81.1453C240.784 83.228 238.537 104.246 234.881 105.923Z" fill="#2F2E41"/>
<path d="M171.973 119.621C171.973 162.094 136.633 196.547 93.0116 196.547C49.3899 196.547 14.0498 162.094 14.0498 119.621C14.0498 77.1483 49.3899 42.6953 93.0116 42.6953C136.633 42.6953 171.973 77.1483 171.973 119.621Z" fill="white" stroke="black"/>
<path d="M93.0118 197.819C48.7591 197.819 12.7568 162.739 12.7568 119.62C12.7568 76.5017 48.7591 41.4219 93.0118 41.4219C137.264 41.4219 173.267 76.5017 173.267 119.62C173.267 162.739 137.264 197.819 93.0118 197.819ZM93.0118 42.9676C49.6339 42.9676 14.3432 77.354 14.3432 119.62C14.3432 161.887 49.6339 196.273 93.0118 196.273C136.39 196.273 171.68 161.887 171.68 119.62C171.68 77.354 136.39 42.9676 93.0118 42.9676Z" fill="#F4F4F5"/>
<path d="M82.1708 159.918C80.7986 159.918 79.4453 159.607 78.218 159.009C76.9908 158.411 75.9233 157.542 75.1003 156.472L53.4219 128.308C52.7255 127.403 52.2188 126.374 51.9308 125.278C51.6427 124.182 51.579 123.042 51.7432 121.923C51.9074 120.803 52.2963 119.726 52.8877 118.753C53.4791 117.78 54.2615 116.929 55.1901 116.251C56.1187 115.572 57.1754 115.079 58.2998 114.798C59.4242 114.517 60.5944 114.455 61.7434 114.615C62.8925 114.775 63.9979 115.154 64.9967 115.73C65.9955 116.307 66.868 117.069 67.5644 117.974L81.7471 136.398L118.174 83.159C119.475 81.2599 121.496 79.942 123.794 79.4949C126.092 79.0478 128.479 79.5081 130.428 80.7747C132.378 82.0412 133.732 84.0103 134.192 86.2492C134.653 88.488 134.182 90.8133 132.883 92.7139L89.5262 156.083C88.7418 157.229 87.687 158.175 86.45 158.842C85.213 159.509 83.8299 159.877 82.4168 159.915C82.3348 159.917 82.2528 159.918 82.1708 159.918Z" fill="#666666" fill-opacity="0.26"/>
<path d="M174.88 47.0346C175.101 45.5543 173.51 44.1034 171.326 43.7938C169.142 43.4842 167.193 44.4332 166.972 45.9135C166.75 47.3937 168.342 48.8447 170.525 49.1543C172.709 49.4639 174.659 48.5149 174.88 47.0346Z" fill="#990ECA"/>
<path d="M200.881 44.5659C201.102 43.0856 199.511 41.6347 197.327 41.3251C195.143 41.0155 193.194 41.9645 192.972 43.4447C192.751 44.925 194.343 46.376 196.526 46.6856C198.71 46.9952 200.66 46.0462 200.881 44.5659Z" fill="#3F3D56"/>
<path d="M167.76 26.5268C167.981 25.0465 166.39 23.5956 164.206 23.286C162.022 22.9764 160.072 23.9254 159.851 25.4057C159.63 26.8859 161.222 28.3369 163.405 28.6465C165.589 28.9561 167.539 28.0071 167.76 26.5268Z" fill="#FF6584"/>
<path d="M156.462 18.12C156.473 16.761 155.695 15.6536 154.725 15.6464C153.754 15.6393 152.959 16.7351 152.949 18.0941C152.938 19.453 153.716 20.5605 154.686 20.5676C155.657 20.5748 156.452 19.4789 156.462 18.12Z" fill="#990ECA"/>
<path d="M152.631 2.47154C152.642 1.11259 151.864 0.00514036 150.894 -0.00200821C149.923 -0.00915679 149.128 1.0867 149.118 2.44565C149.107 3.8046 149.885 4.91205 150.855 4.91919C151.826 4.92634 152.621 3.83049 152.631 2.47154Z" fill="#3F3D56"/>
<path d="M182.425 30.0106C182.436 28.6517 181.658 27.5442 180.688 27.5371C179.717 27.5299 178.922 28.6258 178.912 29.9847C178.901 31.3437 179.679 32.4511 180.649 32.4583C181.62 32.4654 182.415 31.3696 182.425 30.0106Z" fill="#990ECA"/>
<path d="M169.861 36.1278C169.871 34.7689 169.093 33.6614 168.123 33.6543C167.153 33.6471 166.358 34.743 166.347 36.1019C166.337 37.4609 167.115 38.5683 168.085 38.5754C169.055 38.5826 169.85 37.4868 169.861 36.1278Z" fill="#FF6584"/>
<path d="M187.351 47.4247C187.361 46.0657 186.584 44.9583 185.613 44.9511C184.643 44.944 183.848 46.0398 183.837 47.3988C183.827 48.7578 184.605 49.8652 185.575 49.8723C186.545 49.8795 187.34 48.7836 187.351 47.4247Z" fill="#3F3D56"/>
<path d="M25.7628 230.457C25.9838 228.976 24.3926 227.525 22.2088 227.216C20.0249 226.906 18.0754 227.855 17.8543 229.335C17.6333 230.816 19.2245 232.267 21.4083 232.576C23.5922 232.886 25.5417 231.937 25.7628 230.457Z" fill="#990ECA"/>
<path d="M51.7637 227.988C51.9847 226.507 50.3936 225.056 48.2097 224.747C46.0259 224.437 44.0763 225.386 43.8553 226.867C43.6343 228.347 45.2254 229.798 47.4093 230.107C49.5931 230.417 51.5427 229.468 51.7637 227.988Z" fill="#3F3D56"/>
<path d="M18.6436 209.949C18.8646 208.468 17.2735 207.017 15.0896 206.708C12.9058 206.398 10.9562 207.347 10.7352 208.828C10.5141 210.308 12.1053 211.759 14.2892 212.068C16.473 212.378 18.4226 211.429 18.6436 209.949Z" fill="#FF6584"/>
<path d="M7.34507 201.55C7.35562 200.191 6.57765 199.083 5.60744 199.076C4.63722 199.069 3.84214 200.165 3.8316 201.524C3.82105 202.883 4.59903 203.99 5.56924 203.997C6.53946 204.004 7.33452 202.909 7.34507 201.55Z" fill="#990ECA"/>
<path d="M3.51327 185.901C3.52395 184.542 2.7461 183.435 1.77588 183.428C0.805668 183.421 0.0104942 184.516 -0.000188521 185.875C-0.0108712 187.234 0.766982 188.342 1.7372 188.349C2.70741 188.356 3.50259 187.26 3.51327 185.901Z" fill="#3F3D56"/>
<path d="M33.3079 213.44C33.3185 212.081 32.5405 210.974 31.5703 210.967C30.6001 210.96 29.805 212.055 29.7945 213.414C29.7839 214.773 30.5619 215.881 31.5321 215.888C32.5023 215.895 33.2974 214.799 33.3079 213.44Z" fill="#990ECA"/>
<path d="M20.7435 219.55C20.7541 218.191 19.9761 217.083 19.0059 217.076C18.0357 217.069 17.2406 218.165 17.23 219.524C17.2195 220.883 17.9975 221.99 18.9677 221.997C19.9379 222.004 20.733 220.909 20.7435 219.55Z" fill="#FF6584"/>
<path d="M38.2337 230.847C38.2443 229.488 37.4663 228.38 36.4961 228.373C35.5259 228.366 34.7308 229.462 34.7203 230.821C34.7097 232.18 35.4877 233.287 36.4579 233.294C37.4281 233.301 38.2232 232.205 38.2337 230.847Z" fill="#3F3D56"/>
</g>
<defs>
<clipPath id="clip0_3165_56913">
<rect width="304" height="353" fill="white"/>
</clipPath>
</defs>
</svg>
