<svg width="493" height="482" viewBox="0 0 493 482" fill="none" xmlns="http://www.w3.org/2000/svg">
<path opacity="0.2" d="M460.573 11.5365C459.573 11.5375 458.598 11.8531 457.788 12.4384C456.977 13.0238 456.37 13.8493 456.054 14.7982H221.798C221.435 13.7196 220.7 12.8052 219.725 12.2183C218.749 11.6314 217.597 11.4103 216.474 11.5945C215.351 11.7786 214.33 12.356 213.593 13.2235C212.856 14.091 212.451 15.1922 212.451 16.3304C212.451 17.4687 212.856 18.5699 213.593 19.4374C214.33 20.3049 215.351 20.8823 216.474 21.0664C217.597 21.2505 218.749 21.0294 219.725 20.4426C220.7 19.8557 221.435 18.9413 221.798 17.8626H456.054C456.339 18.6934 456.847 19.4298 457.522 19.9908C458.198 20.5519 459.015 20.9159 459.884 21.043C460.753 21.17 461.64 21.0552 462.448 20.7111C463.256 20.3669 463.953 19.8068 464.463 19.0922C464.974 18.3777 465.278 17.5363 465.341 16.6604C465.405 15.7846 465.225 14.9082 464.823 14.1274C464.421 13.3467 463.812 12.6918 463.062 12.2348C462.312 11.7777 461.451 11.5361 460.573 11.5365Z" fill="white"/>
<g opacity="0.2">
<path d="M277.197 18.7083C280.542 99.9203 283.429 181.911 286.951 262.822L286.608 278.684C286.608 278.684 271.598 278.684 263.693 279.474C255.787 280.263 243.54 280.263 234.846 280.263C226.151 280.263 221.414 277.095 221.414 277.095L221.985 262.801C223.731 181.922 225.632 99.9203 226.857 18.6875" fill="white"/>
<path d="M277.197 18.7083C280.542 99.9203 283.429 181.911 286.951 262.822L286.608 278.684C286.608 278.684 271.598 278.684 263.693 279.474C255.787 280.263 243.54 280.263 234.846 280.263C226.151 280.263 221.414 277.095 221.414 277.095L221.985 262.801C223.731 181.922 225.632 99.9203 226.857 18.6875" stroke="black" stroke-linejoin="round"/>
<path d="M239.769 249.43L239.728 258.987" stroke="black" stroke-linejoin="round"/>
<path d="M240.591 63.1172L239.812 240.936" stroke="black" stroke-linejoin="round"/>
<path d="M240.787 16.9297L240.61 57.8058" stroke="black" stroke-linejoin="round"/>
<path d="M254.261 110.336L252.464 228.726" stroke="black" stroke-linejoin="round"/>
<path d="M255.652 17.9844L254.364 102.926" stroke="black" stroke-linejoin="round"/>
<path d="M266.829 143.266L267.328 253.148" stroke="black" stroke-linejoin="round"/>
<path d="M266.477 65.2344L266.788 134.241" stroke="black" stroke-linejoin="round"/>
<path d="M266.269 19.0547L266.435 56.7521" stroke="black" stroke-linejoin="round"/>
</g>
<g opacity="0.2">
<path d="M398.391 18.7031C395.181 104.694 391.119 191.546 388.003 277.08C393.57 277.923 399.183 278.44 404.81 278.627H438.374C443.585 278.513 448.778 277.978 453.903 277.028C452.397 191.546 451.369 104.694 448.709 18.7031" fill="white"/>
<path d="M398.391 18.7031C395.181 104.694 391.119 191.546 388.003 277.08C393.57 277.923 399.183 278.44 404.81 278.627H438.374C443.585 278.513 448.778 277.978 453.903 277.028C452.397 191.546 451.369 104.694 448.709 18.7031" stroke="black" stroke-linejoin="round"/>
<path d="M435.818 249.43L435.86 258.987" stroke="black" stroke-linejoin="round"/>
<path d="M435.008 63.1172L435.787 240.936" stroke="black" stroke-linejoin="round"/>
<path d="M434.8 16.9297L434.976 57.8058" stroke="black" stroke-linejoin="round"/>
<path d="M421.338 110.336L423.125 228.726" stroke="black" stroke-linejoin="round"/>
<path d="M419.936 17.9844L421.224 102.926" stroke="black" stroke-linejoin="round"/>
<path d="M408.758 143.266L408.26 253.148" stroke="black" stroke-linejoin="round"/>
<path d="M409.11 65.2344L408.799 134.241" stroke="black" stroke-linejoin="round"/>
<path d="M409.319 19.0547L409.152 56.7521" stroke="black" stroke-linejoin="round"/>
</g>
<g opacity="0.2">
<path d="M278.692 41.8047H302.262V69.3117H280.261" fill="white"/>
<path d="M278.692 41.8047H302.262V69.3117H280.261" stroke="black" stroke-linejoin="round"/>
<path d="M331.016 41.8672H306.376V69.4573H331.016V41.8672Z" fill="white" stroke="black" stroke-linejoin="round"/>
</g>
<g opacity="0.2">
<path d="M397.217 41.8047H373.647V69.3117H395.649" fill="white"/>
<path d="M397.217 41.8047H373.647V69.3117H395.649" stroke="black" stroke-linejoin="round"/>
<path d="M344.894 69.4609H369.534V41.8709H344.894V69.4609Z" fill="white" stroke="black" stroke-linejoin="round"/>
</g>
<g opacity="0.2">
<path d="M282.578 166.787H331.65V84.3281H280.428" fill="white"/>
<path d="M282.578 166.787H331.65V84.3281H280.428" stroke="black" stroke-linejoin="round"/>
</g>
<g opacity="0.2">
<path d="M394.735 83.625H344.593V166.78H390.964" fill="white"/>
<path d="M394.735 83.625H344.593V166.78H390.964" stroke="black" stroke-linejoin="round"/>
</g>
<g opacity="0.2">
<path d="M284.198 186.352H331.65V269.246H287.792" fill="white"/>
<path d="M284.198 186.352H331.65V269.246H287.792" stroke="black" stroke-linejoin="round"/>
</g>
<g opacity="0.2">
<path d="M391.504 185.656H344.593V270.016H387.359" fill="white"/>
<path d="M391.504 185.656H344.593V270.016H387.359" stroke="black" stroke-linejoin="round"/>
</g>
<path opacity="0.2" d="M287.574 275.281H388.014" stroke="black" stroke-linejoin="round"/>
<path opacity="0.2" d="M278.495 32.2578H397.166" stroke="black" stroke-linejoin="round"/>
<path opacity="0.2" d="M338.111 32.8281V274.137" stroke="black" stroke-linejoin="round"/>
<path opacity="0.2" d="M280.002 77.9453H395.432" stroke="black" stroke-linejoin="round"/>
<g opacity="0.2">
<path d="M356.851 379.352V299.169C356.851 297.655 356.552 296.156 355.973 294.758C355.393 293.359 354.544 292.089 353.473 291.019C352.402 289.949 351.131 289.101 349.732 288.522C348.333 287.944 346.834 287.647 345.32 287.648H239.967V380.194" stroke="white" stroke-linejoin="round"/>
<path d="M240.849 287.625H133.532C132.017 287.624 130.517 287.921 129.117 288.501C127.717 289.081 126.446 289.931 125.376 291.003C124.305 292.076 123.457 293.349 122.88 294.749C122.303 296.15 122.008 297.651 122.012 299.166V379.37" stroke="white" stroke-linejoin="round"/>
<path d="M367.259 387.007V414.016H240.019V379.352H359.603C361.634 379.352 363.581 380.158 365.017 381.594C366.452 383.03 367.259 384.977 367.259 387.007Z" stroke="white" stroke-linejoin="round"/>
<path d="M240.985 379.352H119.271C118.264 379.35 117.268 379.547 116.338 379.931C115.408 380.315 114.563 380.879 113.851 381.59C113.138 382.301 112.574 383.146 112.188 384.075C111.803 385.005 111.604 386.001 111.604 387.007V414.016H240.985" stroke="white" stroke-linejoin="round"/>
<path d="M367.478 413.984H111.604V457.437H367.478V413.984Z" stroke="white" stroke-linejoin="round"/>
<path d="M122.012 333.332C121.291 332.58 120.425 331.981 119.466 331.573C118.508 331.164 117.476 330.953 116.434 330.953H93.2588C91.2154 330.95 89.2543 331.758 87.8055 333.199C86.3567 334.64 85.5385 336.597 85.5303 338.64V449.686C85.533 451.734 86.3485 453.697 87.7976 455.144C89.2467 456.591 91.2109 457.404 93.2588 457.404H116.434" stroke="white" stroke-linejoin="round"/>
<path d="M359.748 457.435H382.923C384.97 457.435 386.933 456.622 388.381 455.175C389.828 453.727 390.641 451.764 390.641 449.717V338.64C390.633 336.599 389.816 334.643 388.37 333.203C386.923 331.762 384.965 330.953 382.923 330.953H359.748C358.755 330.951 357.77 331.141 356.85 331.514" stroke="white" stroke-linejoin="round"/>
</g>
<path d="M246.707 132.16V95.8853H243.424V49.4517C243.431 45.6891 242.696 41.962 241.261 38.4839C239.826 35.0057 237.719 31.8447 235.061 29.1818C232.402 26.5188 229.245 24.4061 225.77 22.9647C222.294 21.5232 218.569 20.7812 214.806 20.7813H61.066C57.3021 20.7799 53.5748 21.5208 50.0974 22.9615C46.6201 24.4022 43.461 26.5145 40.8009 29.1775C38.1409 31.8404 36.032 35.0018 34.5951 38.4807C33.1581 41.9596 32.4213 45.6877 32.4268 49.4517V361.855C32.4268 369.448 35.443 376.73 40.812 382.099C46.1809 387.468 53.4628 390.484 61.0556 390.484H214.796C218.555 390.484 222.277 389.743 225.75 388.305C229.223 386.866 232.378 384.757 235.036 382.098C237.693 379.44 239.801 376.284 241.239 372.81C242.676 369.337 243.415 365.614 243.414 361.855V163.095H246.697V141.644H243.414V132.16H246.707Z" fill="#707070" stroke="#263238" stroke-linejoin="round"/>
<path d="M208.407 24.7656H67.4439C49.9345 24.7656 35.7402 38.9598 35.7402 56.4693V354.828C35.7402 372.338 49.9345 386.532 67.4439 386.532H208.407C225.916 386.532 240.11 372.338 240.11 354.828V56.4693C240.11 38.9598 225.916 24.7656 208.407 24.7656Z" fill="#263238" stroke="#263238" stroke-linejoin="round"/>
<path d="M205.81 27.3672H149.051L148.989 27.5749C147.316 33.6207 143.442 37.5473 139.162 37.5473H136.731C132.441 37.5473 128.577 33.6207 126.894 27.5749L126.842 27.3672H70.0517C62.4589 27.3672 55.177 30.3834 49.8081 35.7524C44.4391 41.1213 41.4229 48.4032 41.4229 55.996V341.412C41.4229 345.171 42.1634 348.893 43.6023 352.366C45.0412 355.839 47.1501 358.994 49.8087 361.652C52.4673 364.31 55.6234 366.417 59.0967 367.855C62.5701 369.293 66.2926 370.032 70.0517 370.03H205.81C209.569 370.032 213.291 369.293 216.764 367.855C220.236 366.417 223.392 364.309 226.05 361.651C228.707 358.994 230.815 355.838 232.253 352.365C233.691 348.893 234.43 345.171 234.429 341.412V55.996C234.43 52.2369 233.691 48.5144 232.253 45.041C230.816 41.5677 228.708 38.4116 226.05 35.753C223.393 33.0944 220.237 30.9855 216.764 29.5466C213.292 28.1078 209.569 27.3672 205.81 27.3672Z" fill="white" stroke="#263238" stroke-linejoin="round"/>
<path d="M205.81 27.3672H149.051L148.989 27.5749C147.316 33.6207 143.442 37.5473 139.162 37.5473H136.731C132.441 37.5473 128.577 33.6207 126.894 27.5749L126.842 27.3672H70.0517C62.4589 27.3672 55.177 30.3834 49.8081 35.7524C44.4391 41.1213 41.4229 48.4032 41.4229 55.996V59.2163H234.429V55.996C234.43 52.2369 233.691 48.5144 232.253 45.041C230.816 41.5677 228.708 38.4116 226.05 35.753C223.393 33.0944 220.237 30.9855 216.764 29.5466C213.292 28.1078 209.569 27.3672 205.81 27.3672Z" fill="#BA68C8"/>
<path d="M201.956 189.059C201.956 182.826 210.454 175.492 208.916 169.716C207.316 163.743 196.253 161.676 193.231 156.441C190.208 151.205 193.864 140.537 189.553 136.226C185.242 131.915 174.657 135.634 169.339 132.559C164.02 129.484 162.067 118.473 156.073 116.874C150.298 115.336 142.995 123.833 136.731 123.833C130.467 123.833 123.165 115.336 117.389 116.874C111.416 118.473 109.349 129.536 104.113 132.559C98.8779 135.582 88.2096 131.925 83.8986 136.236C79.5877 140.547 83.3065 151.133 80.2317 156.451C77.1569 161.77 66.1458 163.723 64.5461 169.716C62.9775 175.492 71.5059 182.826 71.5059 189.059C71.5059 195.291 63.0087 202.625 64.5461 208.401C66.1458 214.374 77.2089 216.441 80.2317 221.676C83.2546 226.912 79.5981 237.58 83.909 241.891C88.22 246.202 98.8052 242.483 104.124 245.558C109.442 248.633 111.395 259.644 117.389 261.244C123.165 262.781 130.467 254.284 136.731 254.284C142.995 254.284 150.298 262.781 156.073 261.244C162.046 259.644 164.113 248.581 169.349 245.558C174.584 242.535 185.253 246.192 189.564 241.881C193.875 237.57 190.156 226.985 193.231 221.666C196.305 216.347 207.316 214.394 208.916 208.401C210.485 202.625 201.956 195.291 201.956 189.059Z" fill="#BA68C8"/>
<path d="M135.827 215.202L107.645 185.368C106.998 184.679 106.65 183.762 106.679 182.817C106.709 181.872 107.112 180.977 107.801 180.33C108.49 179.682 109.407 179.335 110.352 179.364C111.297 179.394 112.191 179.797 112.839 180.486L134.965 203.921L162.908 163.408C163.162 162.997 163.497 162.643 163.892 162.365C164.288 162.088 164.735 161.894 165.208 161.795C165.68 161.695 166.168 161.694 166.642 161.789C167.115 161.884 167.564 162.075 167.962 162.349C168.359 162.623 168.697 162.975 168.954 163.384C169.211 163.792 169.383 164.249 169.458 164.726C169.534 165.203 169.511 165.691 169.392 166.159C169.273 166.627 169.061 167.066 168.767 167.449L135.827 215.202Z" fill="white"/>
<path d="M63.1335 294.895L62.2817 295.757L56.423 301.616L49.6917 294.895C48.9178 294.117 48.4834 293.063 48.4834 291.966C48.4834 290.868 48.9178 289.815 49.6917 289.036C50.4702 288.262 51.5233 287.828 52.621 287.828C53.7188 287.828 54.7719 288.262 55.5504 289.036L56.423 289.899L57.2748 289.036C58.0533 288.262 59.1064 287.828 60.2042 287.828C61.3019 287.828 62.355 288.262 63.1335 289.036C63.9074 289.815 64.3418 290.868 64.3418 291.966C64.3418 293.063 63.9074 294.117 63.1335 294.895Z" stroke="#263238" stroke-linejoin="round"/>
<path d="M79.4733 303.57C84.2063 303.57 88.0432 299.733 88.0432 295C88.0432 290.267 84.2063 286.43 79.4733 286.43C74.7402 286.43 70.9033 290.267 70.9033 295C70.9033 299.733 74.7402 303.57 79.4733 303.57Z" stroke="#263238" stroke-linecap="round" stroke-linejoin="round"/>
<path d="M74.4668 296.562C74.68 297.724 75.3024 298.77 76.221 299.511C77.1397 300.253 78.2938 300.64 79.4737 300.603C80.6654 300.691 81.8459 300.323 82.7757 299.572C83.7056 298.822 84.3151 297.746 84.4807 296.562H74.4668Z" stroke="#263238" stroke-linecap="round" stroke-linejoin="round"/>
<path d="M77.4375 293.417C77.4375 294.393 77.1466 295.183 76.7935 295.183C76.4403 295.183 76.1494 294.393 76.1494 293.417C76.1494 292.44 76.4403 291.641 76.7935 291.641C77.1466 291.641 77.4375 292.43 77.4375 293.417Z" fill="#263238"/>
<path d="M82.2676 293.417C82.2676 294.393 81.9767 295.183 81.6235 295.183C81.2703 295.183 80.9795 294.393 80.9795 293.417C80.9795 292.44 81.2703 291.641 81.6235 291.641C81.9767 291.641 82.2676 292.43 82.2676 293.417Z" fill="#263238"/>
<path d="M49.8682 312.156H109.203" stroke="#263238" stroke-linejoin="round"/>
<path d="M156.811 319.953H176.901" stroke="#263238" stroke-linejoin="round"/>
<path d="M140.19 319.953H152.656" stroke="#263238" stroke-linejoin="round"/>
<path d="M90.3281 319.953H135.349" stroke="#263238" stroke-linejoin="round"/>
<path d="M49.8682 319.953H84.792" stroke="#263238" stroke-linejoin="round"/>
<path d="M125.646 328.266H164.777" stroke="#263238" stroke-linejoin="round"/>
<path d="M91.0244 328.266H120.806" stroke="#263238" stroke-linejoin="round"/>
<path d="M49.8682 328.266H86.1736" stroke="#263238" stroke-linejoin="round"/>
<path d="M216.374 336.57H221.215" stroke="#263238" stroke-linejoin="round"/>
<path d="M180.359 336.57H212.904" stroke="#263238" stroke-linejoin="round"/>
<path d="M116.651 336.57H172.05" stroke="#263238" stroke-linejoin="round"/>
<path d="M64.0156 336.57H111.104" stroke="#263238" stroke-linejoin="round"/>
<path d="M49.8682 336.57H58.4797" stroke="#263238" stroke-linejoin="round"/>
<path d="M61.804 97.2701C68.0918 97.2701 73.1891 92.1729 73.1891 85.8851C73.1891 79.5973 68.0918 74.5 61.804 74.5C55.5162 74.5 50.4189 79.5973 50.4189 85.8851C50.4189 92.1729 55.5162 97.2701 61.804 97.2701Z" fill="#595959"/>
<path d="M78.8809 86.4062H118.22" stroke="#263238" stroke-linejoin="round"/>
<path d="M137.345 31.4278C138.831 31.4278 140.035 30.2232 140.035 28.7373C140.035 27.2514 138.831 26.0469 137.345 26.0469C135.859 26.0469 134.654 27.2514 134.654 28.7373C134.654 30.2232 135.859 31.4278 137.345 31.4278Z" fill="#707070"/>
<path d="M58.5727 39.0431C58.5727 41.7544 55.5291 42.7412 55.4564 44.8084V44.9538H58.4273V45.8679H54.5215V45.0992C54.5215 42.1803 57.5755 41.6193 57.5755 39.0743C57.5755 38.1498 57.2639 37.6616 56.5367 37.6616C55.8096 37.6616 55.4979 38.1913 55.4979 38.9912V39.7911H54.563V39.0535C54.563 37.6719 55.1967 36.7578 56.6406 36.7578C58.0845 36.7578 58.5727 37.6616 58.5727 39.0431Z" fill="white"/>
<path d="M63.517 39.0199V39.2588C63.5593 39.6448 63.4747 40.0341 63.2761 40.3677C63.0774 40.7013 62.7754 40.9611 62.4159 41.1078C62.7771 41.2583 63.0797 41.5219 63.2782 41.8591C63.4768 42.1963 63.5606 42.5888 63.517 42.9776V43.6321C63.517 45.0136 62.8729 45.9174 61.4394 45.9174C60.0059 45.9174 59.3619 45.0136 59.3619 43.6321V43.0192H60.3072V43.6944C60.3072 44.5046 60.6396 45.0033 61.3459 45.0033C62.0523 45.0033 62.3847 44.5254 62.3847 43.6113V42.9153C62.3847 42.022 62.0108 41.5961 61.2524 41.5753H60.7123V40.6715H61.3044C61.4591 40.6744 61.6125 40.6426 61.7534 40.5785C61.8943 40.5144 62.019 40.4197 62.1186 40.3012C62.2182 40.1827 62.29 40.0435 62.3289 39.8937C62.3677 39.7439 62.3726 39.5873 62.3432 39.4354V39.0199C62.3432 38.0954 62.0211 37.6175 61.3044 37.6175C60.5876 37.6175 60.2656 38.1161 60.2656 38.9264V39.4769H59.3203V39.0614C59.3203 37.6902 59.9644 36.7969 61.3979 36.7969C62.8314 36.7969 63.517 37.6487 63.517 39.0199Z" fill="white"/>
<path d="M65.4602 39.7031V40.9497H64.4941V39.7031H65.4602ZM65.4602 44.6166V45.8631H64.4941V44.6685L65.4602 44.6166Z" fill="white"/>
<path d="M67.496 40.5185C67.6274 40.2813 67.8225 40.0855 68.0593 39.9534C68.2961 39.8212 68.5651 39.7579 68.836 39.7705C69.9995 39.7705 70.5085 40.6223 70.5085 41.9104V43.6348C70.5085 45.0164 69.854 45.9201 68.4309 45.9201C67.0078 45.9201 66.4157 45.0164 66.4157 43.6348V43.0323H67.3506V43.6971C67.3506 44.5074 67.683 45.006 68.3893 45.006C69.0957 45.006 69.4281 44.5074 69.4281 43.6971V41.9935C69.4281 41.1833 69.0853 40.6847 68.3893 40.6847C68.2568 40.6762 68.124 40.6948 67.9989 40.7394C67.8739 40.784 67.7592 40.8537 67.662 40.9441C67.5648 41.0345 67.487 41.1438 67.4335 41.2653C67.3799 41.3868 67.3517 41.518 67.3506 41.6507V41.8585H66.4053L66.6546 36.8516H70.2488V37.7553H67.6414L67.496 40.5185Z" fill="white"/>
<path d="M75.5257 39.012V39.1782H74.5804V38.9496C74.5804 38.1394 74.248 37.6616 73.5416 37.6616C72.8352 37.6616 72.4405 38.1498 72.4405 39.1158V41.1934C72.5457 40.8967 72.7443 40.6421 73.0065 40.4679C73.2688 40.2937 73.5805 40.2093 73.8948 40.2273C75.0582 40.2273 75.5672 41.0584 75.5672 42.3672V43.6346C75.5672 45.0161 74.892 45.9199 73.4897 45.9199C72.0873 45.9199 71.4121 45.0161 71.4121 43.6346V39.0743C71.4121 37.6512 72.0562 36.7578 73.4897 36.7578C74.9232 36.7578 75.5257 37.6304 75.5257 39.012ZM72.4093 42.388V43.7384C72.4093 44.5487 72.7418 45.0473 73.4481 45.0473C74.1545 45.0473 74.4869 44.5487 74.4869 43.7384V42.388C74.4869 41.5778 74.1337 41.0895 73.4481 41.0895C72.7625 41.0895 72.4197 41.557 72.4197 42.388H72.4093Z" fill="white"/>
<path d="M173.982 39.4062H171.437V45.774H173.982V39.4062Z" fill="white"/>
<path d="M177.379 38.1328H174.834V45.7783H177.379V38.1328Z" fill="white"/>
<path d="M180.775 37.2266H178.23V45.7757H180.775V37.2266Z" fill="white"/>
<path d="M184.172 35.6562H181.627V45.774H184.172V35.6562Z" fill="white"/>
<path d="M215.678 45.599H200.408V36.25H215.678V45.599ZM201.239 44.7576H214.827V37.1122H201.25L201.239 44.7576Z" fill="white"/>
<path d="M210.589 38.0391H202.528V43.8355H210.589V38.0391Z" fill="white"/>
<path d="M217.081 39.8359H215.159V42.0382H217.081V39.8359Z" fill="white"/>
<path d="M194.799 43.5744C194.696 43.571 194.597 43.5425 194.508 43.4913C191.392 41.6423 189.314 43.3562 189.262 43.429C189.208 43.4897 189.142 43.5384 189.068 43.5716C188.994 43.6049 188.914 43.622 188.833 43.6219C188.752 43.6217 188.672 43.6043 188.598 43.5708C188.524 43.5373 188.458 43.4885 188.405 43.4275C188.351 43.3666 188.311 43.2949 188.288 43.2173C188.264 43.1398 188.257 43.0581 188.267 42.9776C188.278 42.8972 188.305 42.8199 188.348 42.7508C188.39 42.6818 188.447 42.6226 188.514 42.5772C188.618 42.4733 191.246 40.2295 195.1 42.5148C195.229 42.5925 195.322 42.7179 195.359 42.8638C195.396 43.0097 195.374 43.1642 195.297 43.2939C195.245 43.379 195.171 43.4493 195.084 43.4984C194.997 43.5474 194.899 43.5736 194.799 43.5744Z" fill="white"/>
<path d="M195.941 41.6509C195.838 41.6527 195.737 41.6238 195.65 41.5678C191.152 38.8982 188.13 41.4847 188.098 41.5055C188.044 41.5567 187.979 41.5961 187.908 41.6214C187.837 41.6466 187.762 41.6571 187.687 41.6522C187.612 41.6474 187.539 41.6272 187.472 41.5931C187.406 41.5589 187.346 41.5114 187.299 41.4536C187.249 41.398 187.211 41.333 187.186 41.2625C187.162 41.1919 187.152 41.1172 187.156 41.0427C187.161 40.9682 187.181 40.8954 187.214 40.8286C187.248 40.7618 187.294 40.7024 187.351 40.6537C187.351 40.6537 191.028 37.5373 196.232 40.5914C196.297 40.6289 196.354 40.679 196.399 40.7387C196.444 40.7985 196.477 40.8667 196.495 40.9393C196.514 41.0119 196.517 41.0875 196.506 41.1615C196.495 41.2356 196.469 41.3066 196.429 41.3705C196.381 41.4568 196.31 41.5285 196.224 41.5778C196.138 41.6272 196.04 41.6524 195.941 41.6509Z" fill="white"/>
<path d="M196.981 39.4847C196.879 39.4879 196.778 39.4627 196.69 39.412C190.987 36.0256 187.206 39.2043 187.05 39.3497C186.936 39.4502 186.786 39.5013 186.634 39.4915C186.482 39.4818 186.34 39.4121 186.24 39.2977C186.139 39.1834 186.088 39.0338 186.098 38.8819C186.108 38.7299 186.177 38.5881 186.292 38.4875C186.344 38.4875 190.842 34.6024 197.272 38.4252C197.4 38.5029 197.493 38.6283 197.53 38.7741C197.567 38.92 197.545 39.0746 197.469 39.2043C197.42 39.2899 197.348 39.3609 197.263 39.4102C197.177 39.4594 197.08 39.4852 196.981 39.4847Z" fill="white"/>
<path d="M193.085 44.5273C193.085 44.8108 193.001 45.088 192.843 45.3237C192.686 45.5594 192.462 45.7432 192.2 45.8517C191.938 45.9602 191.65 45.9886 191.372 45.9332C191.094 45.8779 190.838 45.7414 190.638 45.5409C190.437 45.3404 190.301 45.085 190.245 44.8069C190.19 44.5289 190.218 44.2406 190.327 43.9787C190.435 43.7167 190.619 43.4929 190.855 43.3353C191.091 43.1778 191.368 43.0938 191.651 43.0938C192.031 43.0938 192.396 43.2448 192.665 43.5136C192.934 43.7825 193.085 44.1471 193.085 44.5273Z" fill="white"/>
<path d="M457.248 263.313C457.248 263.313 444.835 256.415 443.92 272.049C443.006 287.682 440.7 417.364 440.7 417.364" stroke="#263238" stroke-width="2" stroke-linecap="round" stroke-linejoin="round"/>
<path d="M437.47 273.422C437.47 273.422 447.598 324.021 442.996 415.984" stroke="#263238" stroke-width="2" stroke-linecap="round" stroke-linejoin="round"/>
<path d="M447.421 266.464C447.421 266.464 442.674 269.507 439.973 266.017C437.272 262.527 441.801 256.159 437.802 253.427C433.802 250.695 426.915 254.871 426.915 254.871C426.915 254.871 432.223 256.429 432.057 259.327C431.891 262.226 429.325 263.316 428.941 262.049C428.556 260.782 426.074 254.404 421.763 257.052C420.52 257.787 419.44 258.766 418.586 259.93C417.733 261.094 417.124 262.419 416.797 263.825C416.797 263.825 426.822 262.787 427.435 266.526C428.047 270.266 423.279 265.872 419.176 265.633C415.073 265.394 411.271 265.996 411.531 268.5C411.628 270.716 411.499 272.937 411.146 275.127C413.407 273.245 416.267 272.235 419.207 272.281C423.757 272.541 423.581 275.397 419.446 275.2C415.312 275.003 411.749 278.898 411.749 278.898C411.749 278.898 415.52 285.349 420.319 288.538C425.118 291.727 426.842 290.616 427.403 288.133C427.964 285.65 426.676 279.366 429.574 279.532C432.473 279.698 424.775 290.47 428.473 291.104C432.171 291.737 435.153 290.667 436.119 288.226L437.095 285.796C437.095 285.796 435.807 279.49 436.368 277.028C436.929 274.566 437.615 277.101 438.269 280.051C438.924 283.001 439.308 290.075 440.606 289.743C441.905 289.411 445.915 284.237 446.839 282.212C447.764 280.186 441.51 274.005 441.583 272.769C441.656 271.533 446.507 273.891 447.255 275.179C447.803 276.149 448.299 277.148 448.74 278.171C448.74 278.171 451.763 276.27 451.69 270.453C451.617 264.636 447.421 266.464 447.421 266.464Z" fill="#BA68C8"/>
<path opacity="0.3" d="M447.421 266.464C447.421 266.464 442.674 269.507 439.973 266.017C437.272 262.527 441.801 256.159 437.802 253.427C433.802 250.695 426.915 254.871 426.915 254.871C426.915 254.871 432.223 256.429 432.057 259.327C431.891 262.226 429.325 263.316 428.941 262.049C428.556 260.782 426.074 254.404 421.763 257.052C420.52 257.787 419.44 258.766 418.586 259.93C417.733 261.094 417.124 262.419 416.797 263.825C416.797 263.825 426.822 262.787 427.435 266.526C428.047 270.266 423.279 265.872 419.176 265.633C415.073 265.394 411.271 265.996 411.531 268.5C411.628 270.716 411.499 272.937 411.146 275.127C413.407 273.245 416.267 272.235 419.207 272.281C423.757 272.541 423.581 275.397 419.446 275.2C415.312 275.003 411.749 278.898 411.749 278.898C411.749 278.898 415.52 285.349 420.319 288.538C425.118 291.727 426.842 290.616 427.403 288.133C427.964 285.65 426.676 279.366 429.574 279.532C432.473 279.698 424.775 290.47 428.473 291.104C432.171 291.737 435.153 290.667 436.119 288.226L437.095 285.796C437.095 285.796 435.807 279.49 436.368 277.028C436.929 274.566 437.615 277.101 438.269 280.051C438.924 283.001 439.308 290.075 440.606 289.743C441.905 289.411 445.915 284.237 446.839 282.212C447.764 280.186 441.51 274.005 441.583 272.769C441.656 271.533 446.507 273.891 447.255 275.179C447.803 276.149 448.299 277.148 448.74 278.171C448.74 278.171 451.763 276.27 451.69 270.453C451.617 264.636 447.421 266.464 447.421 266.464Z" fill="#263238"/>
<path d="M423.343 280.104C426.459 276.281 431.009 271.097 434.832 268.625" stroke="#263238" stroke-linecap="round" stroke-linejoin="round"/>
<path d="M419.759 284.763C419.759 284.763 420.548 283.662 421.836 282" stroke="#263238" stroke-linecap="round" stroke-linejoin="round"/>
<path d="M436.847 269.586C436.847 269.586 441.448 276.089 442.3 282.778" stroke="#263238" stroke-linecap="round" stroke-linejoin="round"/>
<path d="M431.643 273.417C431.643 273.417 432.931 272.658 432.442 280.937" stroke="#263238" stroke-linecap="round" stroke-linejoin="round"/>
<path d="M434.998 265.725C434.998 265.725 437.637 263.388 436.245 258.734" stroke="#263238" stroke-linecap="round" stroke-linejoin="round"/>
<path d="M431.445 269.673L429.575 266.234" stroke="#263238" stroke-linecap="round" stroke-linejoin="round"/>
<path d="M427.498 273.203C427.498 273.203 421.535 268.705 417.806 268.477" stroke="#263238" stroke-linecap="round" stroke-linejoin="round"/>
<path d="M464.344 254.195C464.344 254.195 464.157 261.02 458.828 261.352C453.499 261.684 450.195 252.803 444.742 254.943C439.288 257.083 438.769 266.816 438.769 266.816C438.769 266.816 443.963 262.567 446.726 264.739C449.489 266.91 448.866 270.192 447.37 269.673C445.874 269.153 437.751 267.335 437.47 273.454C437.358 275.198 437.6 276.947 438.182 278.595C438.764 280.243 439.674 281.755 440.857 283.042C440.857 283.042 446.632 272.27 450.819 274.233C455.005 276.196 447.359 277.91 444.295 281.889C441.231 285.867 439.267 290.054 441.958 291.498C444.253 292.902 446.4 294.534 448.367 296.369C448.02 292.827 448.957 289.277 451.006 286.366C454.382 281.982 457.166 284.133 454.122 288.111C451.078 292.09 452.574 298.333 452.574 298.333C452.574 298.333 461.612 298.956 468.073 296.328C474.534 293.7 474.576 291.196 472.488 288.953C470.4 286.709 463.222 283.707 465.362 280.923C467.501 278.139 473.038 293.18 476.196 289.908C479.354 286.636 480.351 282.928 478.533 280.299L476.757 277.661C476.757 277.661 469.569 274.649 467.481 272.415C465.393 270.182 468.405 271.221 471.802 272.571C475.199 273.921 482.574 278.336 483.094 276.84C483.613 275.344 481.203 267.772 479.832 265.414C478.461 263.056 467.979 265.154 466.785 264.24C465.59 263.326 471.262 260.085 473.069 260.199C474.415 260.315 475.753 260.502 477.079 260.76C477.079 260.76 477.235 256.439 471.366 252.543C465.497 248.648 464.344 254.195 464.344 254.195Z" fill="#BA68C8"/>
<path opacity="0.2" d="M464.344 254.195C464.344 254.195 464.157 261.02 458.828 261.352C453.499 261.684 450.195 252.803 444.742 254.943C439.288 257.083 438.769 266.816 438.769 266.816C438.769 266.816 443.963 262.567 446.726 264.739C449.489 266.91 448.866 270.192 447.37 269.673C445.874 269.153 437.751 267.335 437.47 273.454C437.358 275.198 437.6 276.947 438.182 278.595C438.764 280.243 439.674 281.755 440.857 283.042C440.857 283.042 446.632 272.27 450.819 274.233C455.005 276.196 447.359 277.91 444.295 281.889C441.231 285.867 439.267 290.054 441.958 291.498C444.253 292.902 446.4 294.534 448.367 296.369C448.02 292.827 448.957 289.277 451.006 286.366C454.382 281.982 457.166 284.133 454.122 288.111C451.078 292.09 452.574 298.333 452.574 298.333C452.574 298.333 461.612 298.956 468.073 296.328C474.534 293.7 474.576 291.196 472.488 288.953C470.4 286.709 463.222 283.707 465.362 280.923C467.501 278.139 473.038 293.18 476.196 289.908C479.354 286.636 480.351 282.928 478.533 280.299L476.757 277.661C476.757 277.661 469.569 274.649 467.481 272.415C465.393 270.182 468.405 271.221 471.802 272.571C475.199 273.921 482.574 278.336 483.094 276.84C483.613 275.344 481.203 267.772 479.832 265.414C478.461 263.056 467.979 265.154 466.785 264.24C465.59 263.326 471.262 260.085 473.069 260.199C474.415 260.315 475.753 260.502 477.079 260.76C477.079 260.76 477.235 256.439 471.366 252.543C465.497 248.648 464.344 254.195 464.344 254.195Z" fill="#263238"/>
<path d="M461.601 287.595C459.877 281.892 457.799 273.789 457.934 268.273" stroke="#263238" stroke-linecap="round" stroke-linejoin="round"/>
<path d="M463.814 294.367C463.814 294.367 463.253 292.819 462.474 290.398" stroke="#263238" stroke-linecap="round" stroke-linejoin="round"/>
<path d="M460.261 266.9C460.261 266.9 469.911 266.723 477.193 270.432" stroke="#263238" stroke-linecap="round" stroke-linejoin="round"/>
<path d="M460.562 274.733C460.562 274.733 460.687 272.925 468.644 279.064" stroke="#263238" stroke-linecap="round" stroke-linejoin="round"/>
<path d="M455.151 266.132C455.151 266.132 454.6 261.904 449.001 260.117" stroke="#263238" stroke-linecap="round" stroke-linejoin="round"/>
<path d="M456.677 272.374L451.961 271.906" stroke="#263238" stroke-linecap="round" stroke-linejoin="round"/>
<path d="M457.498 278.711C457.498 278.711 448.917 281.62 446.154 285.193" stroke="#263238" stroke-linecap="round" stroke-linejoin="round"/>
<path d="M407.138 299.641C407.138 299.641 434.26 345.638 433.824 415.07" stroke="#263238" stroke-width="2" stroke-linecap="round" stroke-linejoin="round"/>
<path d="M440.587 294.905C440.587 294.905 439.724 302.759 433.544 302.644C427.363 302.53 424.392 291.966 417.9 293.908C411.407 295.851 409.87 307.049 409.87 307.049C409.87 307.049 416.248 302.634 419.219 305.376C422.19 308.119 421.172 311.869 419.489 311.121C417.806 310.373 408.623 307.516 407.719 314.559C407.419 316.568 407.53 318.617 408.046 320.581C408.562 322.545 409.473 324.384 410.722 325.986C410.722 325.986 418.398 314.102 423.052 316.761C427.706 319.421 418.699 320.667 414.794 324.968C410.888 329.268 408.218 333.922 411.189 335.844C413.686 337.684 415.99 339.772 418.066 342.077C418.066 342.077 417.754 335.501 422.065 330.775C426.376 326.048 429.337 328.78 425.462 333.081C421.587 337.381 422.719 344.736 422.719 344.736C422.719 344.736 433.107 346.304 440.794 343.884C448.481 341.464 448.772 338.565 446.591 335.792C444.409 333.018 436.379 328.863 439.122 325.851C441.864 322.838 446.819 340.716 450.767 337.277C454.714 333.839 456.168 329.611 454.371 326.412L452.574 323.202C452.574 323.202 444.555 319.047 442.373 316.273C440.192 313.5 443.547 314.985 447.339 316.865C451.13 318.746 459.222 324.532 459.97 322.849C460.718 321.166 458.641 312.212 457.28 309.396C455.919 306.581 443.63 307.984 442.332 306.81C441.033 305.636 447.889 302.426 449.967 302.738C452.044 303.049 454.537 303.777 454.537 303.777C454.537 303.777 455.129 298.811 448.72 293.763C442.311 288.714 440.587 294.905 440.587 294.905Z" fill="#BA68C8"/>
<path opacity="0.3" d="M440.587 294.905C440.587 294.905 439.724 302.759 433.544 302.644C427.363 302.53 424.392 291.966 417.9 293.908C411.407 295.851 409.87 307.049 409.87 307.049C409.87 307.049 416.248 302.634 419.219 305.376C422.19 308.119 421.172 311.869 419.489 311.121C417.806 310.373 408.623 307.516 407.719 314.559C407.419 316.568 407.53 318.617 408.046 320.581C408.562 322.545 409.473 324.384 410.722 325.986C410.722 325.986 418.398 314.102 423.052 316.761C427.706 319.421 418.699 320.667 414.794 324.968C410.888 329.268 408.218 333.922 411.189 335.844C413.686 337.684 415.99 339.772 418.066 342.077C418.066 342.077 417.754 335.501 422.065 330.775C426.376 326.048 429.337 328.78 425.462 333.081C421.587 337.381 422.719 344.736 422.719 344.736C422.719 344.736 433.107 346.304 440.794 343.884C448.481 341.464 448.772 338.565 446.591 335.792C444.409 333.018 436.379 328.863 439.122 325.851C441.864 322.838 446.819 340.716 450.767 337.277C454.714 333.839 456.168 329.611 454.371 326.412L452.574 323.202C452.574 323.202 444.555 319.047 442.373 316.273C440.192 313.5 443.547 314.985 447.339 316.865C451.13 318.746 459.222 324.532 459.97 322.849C460.718 321.166 458.641 312.212 457.28 309.396C455.919 306.581 443.63 307.984 442.332 306.81C441.033 305.636 447.889 302.426 449.967 302.738C452.044 303.049 454.537 303.777 454.537 303.777C454.537 303.777 455.129 298.811 448.72 293.763C442.311 288.714 440.587 294.905 440.587 294.905Z" fill="#263238"/>
<path d="M434.261 333.185C432.817 326.443 431.144 316.896 431.851 310.539" stroke="#263238" stroke-linecap="round" stroke-linejoin="round"/>
<path d="M436.182 341.213C436.182 341.213 435.673 339.364 435.008 336.508" stroke="#263238" stroke-linecap="round" stroke-linejoin="round"/>
<path d="M434.676 309.18C434.676 309.18 445.822 309.886 453.872 314.862" stroke="#263238" stroke-linecap="round" stroke-linejoin="round"/>
<path d="M434.271 318.25C434.271 318.25 434.593 316.172 443.194 324.004" stroke="#263238" stroke-linecap="round" stroke-linejoin="round"/>
<path d="M428.838 307.81C428.838 307.81 428.609 302.876 422.314 300.289" stroke="#263238" stroke-linecap="round" stroke-linejoin="round"/>
<path d="M430.011 315.159L424.62 314.172" stroke="#263238" stroke-linecap="round" stroke-linejoin="round"/>
<path d="M430.365 322.547C430.365 322.547 420.195 325.092 416.674 328.956" stroke="#263238" stroke-linecap="round" stroke-linejoin="round"/>
<path d="M440.587 360.624C440.587 360.624 439.724 368.487 433.544 368.373C427.363 368.259 424.392 357.684 417.9 359.637C411.407 361.59 409.87 372.777 409.87 372.777C409.87 372.777 416.248 368.363 419.219 371.105C422.19 373.847 421.172 377.597 419.489 376.85C417.806 376.102 408.623 373.245 407.719 380.288C407.419 382.297 407.53 384.345 408.046 386.31C408.562 388.274 409.473 390.113 410.722 391.715C410.722 391.715 418.398 379.831 423.052 382.49C427.706 385.149 418.699 386.396 414.794 390.696C410.888 394.997 408.218 399.651 411.189 401.573C413.688 403.409 415.993 405.498 418.066 407.805C418.066 407.805 417.754 401.23 422.065 396.503C426.376 391.777 429.337 394.509 425.462 398.809C421.587 403.11 422.719 410.465 422.719 410.465C422.719 410.465 433.107 412.033 440.794 409.613C448.481 407.192 448.772 404.294 446.591 401.521C444.409 398.747 436.379 394.592 439.122 391.579C441.864 388.567 446.819 406.444 450.767 403.006C454.714 399.568 456.168 395.34 454.371 392.13L452.574 388.931C452.574 388.931 444.555 384.775 442.373 382.002C440.192 379.228 443.547 380.703 447.339 382.584C451.13 384.464 459.222 390.26 459.97 388.577C460.718 386.895 458.641 377.94 457.28 375.125C455.919 372.31 443.63 373.702 442.332 372.528C441.033 371.354 447.889 368.155 449.967 368.467C451.507 368.733 453.033 369.079 454.537 369.505C454.537 369.505 455.129 364.54 448.72 359.491C442.311 354.443 440.587 360.624 440.587 360.624Z" fill="#BA68C8"/>
<path opacity="0.3" d="M440.587 360.624C440.587 360.624 439.724 368.487 433.544 368.373C427.363 368.259 424.392 357.684 417.9 359.637C411.407 361.59 409.87 372.777 409.87 372.777C409.87 372.777 416.248 368.363 419.219 371.105C422.19 373.847 421.172 377.597 419.489 376.85C417.806 376.102 408.623 373.245 407.719 380.288C407.419 382.297 407.53 384.345 408.046 386.31C408.562 388.274 409.473 390.113 410.722 391.715C410.722 391.715 418.398 379.831 423.052 382.49C427.706 385.149 418.699 386.396 414.794 390.696C410.888 394.997 408.218 399.651 411.189 401.573C413.688 403.409 415.993 405.498 418.066 407.805C418.066 407.805 417.754 401.23 422.065 396.503C426.376 391.777 429.337 394.509 425.462 398.809C421.587 403.11 422.719 410.465 422.719 410.465C422.719 410.465 433.107 412.033 440.794 409.613C448.481 407.192 448.772 404.294 446.591 401.521C444.409 398.747 436.379 394.592 439.122 391.579C441.864 388.567 446.819 406.444 450.767 403.006C454.714 399.568 456.168 395.34 454.371 392.13L452.574 388.931C452.574 388.931 444.555 384.775 442.373 382.002C440.192 379.228 443.547 380.703 447.339 382.584C451.13 384.464 459.222 390.26 459.97 388.577C460.718 386.895 458.641 377.94 457.28 375.125C455.919 372.31 443.63 373.702 442.332 372.528C441.033 371.354 447.889 368.155 449.967 368.467C451.507 368.733 453.033 369.079 454.537 369.505C454.537 369.505 455.129 364.54 448.72 359.491C442.311 354.443 440.587 360.624 440.587 360.624Z" fill="#263238"/>
<path d="M434.261 398.895C432.817 392.143 431.144 382.607 431.851 376.25" stroke="#263238" stroke-linecap="round" stroke-linejoin="round"/>
<path d="M436.182 406.95C436.182 406.95 435.673 405.101 435.008 402.234" stroke="#263238" stroke-linecap="round" stroke-linejoin="round"/>
<path d="M434.676 374.914C434.676 374.914 445.822 375.62 453.872 380.586" stroke="#263238" stroke-linecap="round" stroke-linejoin="round"/>
<path d="M434.271 383.984C434.271 383.984 434.593 381.906 443.194 389.739" stroke="#263238" stroke-linecap="round" stroke-linejoin="round"/>
<path d="M428.838 373.526C428.838 373.526 428.609 368.602 422.314 366.016" stroke="#263238" stroke-linecap="round" stroke-linejoin="round"/>
<path d="M430.011 380.883L424.62 379.906" stroke="#263238" stroke-linecap="round" stroke-linejoin="round"/>
<path d="M430.365 388.281C430.365 388.281 420.195 390.816 416.674 394.691" stroke="#263238" stroke-linecap="round" stroke-linejoin="round"/>
<path d="M417.713 354.351C417.713 354.351 435.185 395.777 437.024 415.514L433.347 321.234" stroke="#263238" stroke-width="2" stroke-linecap="round" stroke-linejoin="round"/>
<path d="M460.012 344.706C437.023 340.55 437.023 415.53 437.023 415.53" stroke="#263238" stroke-width="2" stroke-linecap="round" stroke-linejoin="round"/>
<path d="M439.776 415.075C439.776 415.075 426.448 289.984 465.07 289.984" stroke="#263238" stroke-width="2" stroke-linecap="round" stroke-linejoin="round"/>
<path d="M451.254 341.916C448.138 338.384 441.438 338.384 437.511 347.411C433.584 356.438 437.116 354.87 437.116 354.87C437.116 354.87 444.575 352.512 449.291 350.943C454.007 349.375 460.281 345.448 460.717 347.827C461.154 350.206 457.601 352.533 453.259 353.322C448.917 354.112 437.552 357.249 438.716 359.555C439.879 361.861 442.643 368.966 442.643 368.966C446 366.12 449.544 363.5 453.249 361.123C458.349 358.007 461.486 359.16 458.744 362.692C456.001 366.224 448.138 370.15 449.717 374.856C451.296 379.562 460.707 385.462 460.707 385.462C460.707 385.462 461.881 375.646 464.634 372.508C467.386 369.371 467.376 372.893 466.597 378.388C466.202 380.729 465.938 383.091 465.807 385.462L476.798 389.389C478.595 386.65 480.562 384.027 482.688 381.535L484.651 379.572C484.651 379.572 476.008 372.114 475.624 367.398C475.24 362.682 481.514 367.398 483.467 368.187C485.42 368.977 488.578 374.472 488.578 374.472C488.578 374.472 490.541 365.434 490.925 362.297L491.32 359.181C491.32 359.181 483.082 356.064 479.893 356.064C476.704 356.064 475.188 358.423 475.188 355.285C475.188 352.148 478.304 350.185 481.857 350.569C485.054 351.106 488.205 351.894 491.278 352.927C491.278 352.927 493.636 350.964 492.847 345.074C492.057 339.184 490.105 339.195 485.388 340.763C480.672 342.332 477.546 345.864 474.014 345.864C470.482 345.864 472.435 341.542 474.793 340.368C477.151 339.195 483.041 336.837 484.215 336.442C485.388 336.047 477.982 330.552 474.014 329.773C470.046 328.994 464.997 331.747 465.371 335.652C466.171 343.848 454.391 345.448 451.254 341.916Z" fill="#BA68C8"/>
<path d="M476.519 382.328C476.643 383.512 476.726 384.697 476.768 385.87" stroke="#263238" stroke-linecap="round" stroke-linejoin="round"/>
<path d="M468.634 354.141C472.089 361.916 474.573 370.087 476.03 378.469" stroke="#263238" stroke-linecap="round" stroke-linejoin="round"/>
<path d="M467.221 350.997C465.278 346.842 463.813 344.266 463.813 344.266C465.956 343.252 467.736 341.606 468.914 339.549C469.831 337.691 471.177 336.078 472.841 334.844" stroke="#263238" stroke-linecap="round" stroke-linejoin="round"/>
<path d="M450.071 357.621C450.071 357.621 464.209 351.731 464.209 352.905" stroke="#263238" stroke-linecap="round" stroke-linejoin="round"/>
<path d="M472.062 350.155C472.062 350.155 478.294 347.039 483.831 347.039" stroke="#263238" stroke-linecap="round" stroke-linejoin="round"/>
<path d="M469.704 359.578C466.98 361.815 464.482 364.313 462.245 367.037C459.95 369.738 458.095 372.784 456.75 376.064" stroke="#263238" stroke-linecap="round" stroke-linejoin="round"/>
<path d="M474.025 361.147C474.025 361.147 482.263 358.789 486.584 362.716" stroke="#263238" stroke-linecap="round" stroke-linejoin="round"/>
<path d="M488.952 308.11C484.683 305.575 479.956 305.523 477.64 302.853C475.323 300.184 479.863 298.833 482.304 299.841C484.745 300.849 490.375 303.757 491.445 304.38C492.515 305.004 491.767 295.779 489.793 292.299C487.82 288.82 482.387 286.804 479.686 289.64C473.973 295.644 465.06 287.781 465.673 283.085C466.286 278.39 461.871 273.362 452.522 276.323C443.173 279.283 446.632 280.925 446.632 280.925C446.632 280.925 453.291 285.007 457.57 287.531C461.85 290.056 468.924 292.237 467.408 294.076C465.891 295.914 461.788 294.792 458.36 291.998C454.932 289.204 445.105 282.722 444.097 285.153C443.09 287.583 439.558 294.294 439.558 294.294C443.91 294.961 448.213 295.915 452.439 297.151C458.152 298.948 459.326 302.085 454.849 302.344C450.372 302.604 442.269 299.228 439.745 303.508C437.221 307.788 438.945 318.757 438.945 318.757C438.945 318.757 447.131 313.21 451.306 313.231C455.482 313.252 452.802 315.558 448.138 318.57C446.116 319.808 444.163 321.157 442.29 322.611L446.538 333.456C449.782 333.014 453.05 332.778 456.324 332.75L459.087 332.947C459.087 332.947 459.087 321.52 462.359 318.155C465.631 314.789 466.223 322.601 466.919 324.595C467.615 326.59 465.517 332.563 465.517 332.563C465.517 332.563 473.62 328.127 476.248 326.33L478.876 324.564C478.876 324.564 475.843 316.254 473.786 313.906C471.729 311.558 468.924 311.891 471.293 309.834C473.661 307.777 477.203 308.868 479.229 311.787C480.919 314.555 482.388 317.452 483.623 320.45C483.623 320.45 486.646 320.939 490.583 316.482C494.52 312.026 493.221 310.603 488.952 308.11ZM451.805 320.669C448.689 319.1 456.116 315.963 456.116 315.963C458.869 315.568 454.942 322.237 451.805 320.669ZM457.093 306.011C455.752 305.347 459.773 304.006 459.773 304.006C465.569 305.118 458.433 306.687 457.093 306.011Z" fill="#BA68C8"/>
<path d="M451.723 328.664C450.902 329.526 450.06 330.368 449.198 331.178" stroke="#263238" stroke-linecap="round" stroke-linejoin="round"/>
<path d="M467.834 304.234C464.225 311.935 459.69 319.166 454.33 325.768" stroke="#263238" stroke-linecap="round" stroke-linejoin="round"/>
<path d="M469.277 301.108C471.168 296.891 472.134 294.117 472.134 294.117C474.301 295.072 476.708 295.34 479.032 294.886C481.036 294.359 483.136 294.317 485.16 294.761" stroke="#263238" stroke-linecap="round" stroke-linejoin="round"/>
<path d="M453.041 292.492C453.041 292.492 466.753 299.296 465.87 300.075" stroke="#263238" stroke-linecap="round" stroke-linejoin="round"/>
<path d="M473.09 304.203C473.09 304.203 479.572 306.883 483.176 311.038" stroke="#263238" stroke-linecap="round" stroke-linejoin="round"/>
<path d="M464.426 308.593C460.951 308.008 457.427 307.761 453.903 307.856C450.37 307.899 446.865 308.495 443.516 309.622" stroke="#263238" stroke-linecap="round" stroke-linejoin="round"/>
<path d="M466.078 312.891C466.078 312.891 473.256 317.576 473.121 323.413" stroke="#263238" stroke-linecap="round" stroke-linejoin="round"/>
<path d="M427.956 362.536C424.517 360.459 420.684 360.459 418.846 358.309C417.007 356.158 420.643 355.078 422.606 355.888C424.569 356.699 429.098 359.005 429.961 359.545C430.823 360.085 430.22 352.616 428.631 349.822C427.042 347.027 422.668 345.386 420.497 347.671C415.895 352.502 408.728 346.176 409.227 342.405C409.725 338.634 406.193 334.572 398.631 336.951C391.069 339.33 393.894 340.649 393.894 340.649C393.894 340.649 399.265 343.942 402.703 345.968C406.141 347.993 411.834 349.749 410.618 351.234C409.403 352.72 406.1 351.806 403.347 349.604C400.594 347.401 392.679 342.124 391.92 344.088C391.162 346.051 388.264 351.442 388.264 351.442C391.773 351.977 395.244 352.744 398.652 353.738C403.254 355.182 404.188 357.717 400.594 357.893C397 358.07 390.476 355.379 388.44 358.828C386.404 362.277 387.796 371.096 387.796 371.096C387.796 371.096 394.382 366.629 397.738 366.65C401.093 366.671 398.953 368.52 395.193 370.94C393.568 371.941 391.997 373.026 390.487 374.192L393.904 382.949C396.515 382.593 399.144 382.403 401.778 382.377L404.012 382.543C404.012 382.543 404.012 373.361 406.64 370.629C409.268 367.897 409.756 374.212 410.307 375.823C410.857 377.433 409.175 382.232 409.175 382.232C409.175 382.232 415.698 378.658 417.817 377.246L419.895 375.823C419.895 375.823 417.454 369.164 415.792 367.253C414.13 365.341 411.875 365.632 413.787 363.97C415.698 362.308 418.544 363.191 420.165 365.549C421.531 367.77 422.715 370.097 423.707 372.509C423.707 372.509 426.148 372.904 429.306 369.32C432.464 365.736 431.394 364.531 427.956 362.536ZM398.06 372.644C395.535 371.387 401.529 368.852 401.529 368.852C403.7 368.499 400.584 373.87 398.06 372.602V372.644ZM402.319 360.854C401.28 360.313 404.469 359.233 404.469 359.233C409.133 360.095 403.389 361.352 402.319 360.812V360.854Z" fill="#BA68C8"/>
<path d="M397.986 379.047C397.331 379.743 396.656 380.418 395.96 381.062" stroke="#263238" stroke-linecap="round" stroke-linejoin="round"/>
<path d="M410.971 359.43C408.064 365.628 404.408 371.447 400.085 376.757" stroke="#263238" stroke-linecap="round" stroke-linejoin="round"/>
<path d="M412.124 356.854C413.641 353.468 414.42 351.234 414.42 351.234C416.166 352.001 418.106 352.215 419.977 351.847C421.588 351.427 423.275 351.395 424.901 351.754" stroke="#263238" stroke-linecap="round" stroke-linejoin="round"/>
<path d="M399.056 349.93C399.056 349.93 410.088 355.414 409.371 356.038" stroke="#263238" stroke-linecap="round" stroke-linejoin="round"/>
<path d="M415.188 359.352C415.188 359.352 420.382 361.512 423.312 364.857" stroke="#263238" stroke-linecap="round" stroke-linejoin="round"/>
<path d="M408.217 362.898C405.421 362.426 402.586 362.227 399.751 362.306C396.899 362.334 394.07 362.815 391.368 363.729" stroke="#263238" stroke-linecap="round" stroke-linejoin="round"/>
<path d="M409.548 366.352C409.548 366.352 415.323 370.112 415.22 374.807" stroke="#263238" stroke-linecap="round" stroke-linejoin="round"/>
<path d="M413.931 297.679C413.931 297.679 409.61 300.795 406.868 297.679C404.125 294.563 408.041 288.257 404.115 285.899C400.188 283.541 393.914 287.863 393.914 287.863C393.914 287.863 399.014 289.036 399.014 291.789C399.014 294.542 396.656 295.716 396.262 294.532C395.867 293.347 393.145 287.468 389.198 290.221C388.064 290.982 387.096 291.966 386.354 293.112C385.611 294.258 385.108 295.544 384.877 296.89C384.877 296.89 394.298 295.321 395.088 298.853C395.877 302.385 391.161 298.458 387.235 298.458C383.308 298.458 379.776 299.248 380.171 301.575C380.385 303.664 380.385 305.77 380.171 307.859C382.206 305.964 384.851 304.859 387.629 304.743C391.951 304.743 391.951 307.485 388.024 307.485C384.097 307.485 380.96 311.412 380.96 311.412C380.96 311.412 384.877 317.302 389.593 320.055C394.309 322.807 395.877 321.623 396.262 319.265C396.646 316.907 395.088 311.017 397.841 311.017C400.593 311.017 393.914 321.623 397.467 322.028C401.019 322.433 403.699 321.239 404.53 318.912L405.32 316.554C405.32 316.554 403.699 310.602 404.115 308.275C404.53 305.948 405.299 308.275 406.078 311.017C406.857 313.759 407.647 320.439 408.831 320.055C410.015 319.67 413.537 314.559 414.326 312.596C415.116 310.633 408.831 305.138 408.831 303.953C408.831 302.769 413.537 304.743 414.326 305.917C415.116 307.09 415.895 308.669 415.895 308.669C415.895 308.669 418.637 306.706 418.253 301.211C417.868 295.716 413.931 297.679 413.931 297.679Z" fill="#BA68C8"/>
<path d="M391.94 311.911C394.652 308.119 398.682 302.977 402.152 300.422" stroke="#263238" stroke-linecap="round" stroke-linejoin="round"/>
<path d="M388.804 316.511C388.804 316.511 389.5 315.472 390.622 313.789" stroke="#263238" stroke-linecap="round" stroke-linejoin="round"/>
<path d="M404.115 301.25C404.115 301.25 408.831 307.14 410.005 313.414" stroke="#263238" stroke-linecap="round" stroke-linejoin="round"/>
<path d="M399.409 305.131C399.409 305.131 400.583 304.342 400.583 312.195" stroke="#263238" stroke-linecap="round" stroke-linejoin="round"/>
<path d="M402.151 297.679C402.151 297.679 404.509 295.321 402.941 291" stroke="#263238" stroke-linecap="round" stroke-linejoin="round"/>
<path d="M399.014 301.598L397.051 298.461" stroke="#263238" stroke-linecap="round" stroke-linejoin="round"/>
<path d="M395.483 305.135C395.483 305.135 389.593 301.25 386.04 301.25" stroke="#263238" stroke-linecap="round" stroke-linejoin="round"/>
<path d="M452.19 381.101C452.19 381.101 447.869 384.217 445.116 381.101C442.363 377.985 446.3 371.679 442.374 369.321C438.447 366.963 432.162 371.285 432.162 371.285C432.162 371.285 437.273 372.458 437.273 375.211C437.273 377.964 434.915 379.138 434.52 377.953C434.126 376.769 431.404 370.89 427.457 373.643C426.323 374.404 425.355 375.388 424.612 376.534C423.87 377.68 423.367 378.965 423.135 380.312C423.135 380.312 432.557 378.743 433.347 382.275C434.136 385.807 429.42 381.88 425.493 381.88C421.567 381.88 418.035 382.67 418.43 384.996C418.641 387.069 418.641 389.157 418.43 391.229C420.464 389.334 423.11 388.229 425.888 388.113C430.199 388.113 430.199 390.855 426.283 390.855C422.367 390.855 419.209 394.782 419.209 394.782C419.209 394.782 423.135 400.672 427.851 403.424C432.567 406.177 434.084 404.993 434.52 402.635C434.957 400.277 433.347 394.397 436.089 394.397C438.831 394.397 432.162 404.993 435.694 405.388C439.226 405.782 441.979 404.598 442.768 402.271L443.547 399.924C443.547 399.924 441.979 394.034 442.374 391.676C442.768 389.318 443.547 391.676 444.337 394.429C445.126 397.181 445.905 403.84 447.079 403.456C448.253 403.071 451.795 397.96 452.574 395.997C453.354 394.034 447.079 388.539 447.079 387.354C447.079 386.17 451.795 388.144 452.574 389.318C453.147 390.208 453.674 391.127 454.153 392.071C454.153 392.071 456.896 390.107 456.501 384.612C456.106 379.117 452.19 381.101 452.19 381.101Z" fill="#BA68C8"/>
<path d="M430.198 395.333C432.909 391.541 436.93 386.399 440.409 383.844" stroke="#263238" stroke-linecap="round" stroke-linejoin="round"/>
<path d="M427.062 399.935C427.062 399.935 427.747 398.844 428.879 397.203" stroke="#263238" stroke-linecap="round" stroke-linejoin="round"/>
<path d="M442.374 384.641C442.374 384.641 447.08 390.531 448.264 396.805" stroke="#263238" stroke-linecap="round" stroke-linejoin="round"/>
<path d="M437.657 388.561C437.657 388.561 438.841 387.772 438.841 395.625" stroke="#263238" stroke-linecap="round" stroke-linejoin="round"/>
<path d="M440.409 381.109C440.409 381.109 442.767 378.751 441.188 374.43" stroke="#263238" stroke-linecap="round" stroke-linejoin="round"/>
<path d="M437.272 385.03L435.309 381.883" stroke="#263238" stroke-linecap="round" stroke-linejoin="round"/>
<path d="M433.741 388.567C433.741 388.567 427.851 384.641 424.319 384.641" stroke="#263238" stroke-linecap="round" stroke-linejoin="round"/>
<path d="M453.57 413.758H423.228V457.439H453.57V413.758Z" fill="#263238"/>
<path d="M76.4831 457.438H15.2988" stroke="#263238" stroke-linejoin="round"/>
<path d="M475.376 457.438H87.9102" stroke="#263238" stroke-linejoin="round"/>
<path d="M285.495 286.715C285.495 286.715 281.642 309.641 284.457 322.792C287.272 335.943 293.162 353.229 293.806 355.961C294.45 358.693 291.635 370.805 292.767 379.77C293.899 388.734 296.486 416.917 296.486 416.917C296.486 416.917 296.008 423.939 297.078 425.653C298.058 427.297 298.565 429.181 298.543 431.096C298.626 433.101 297.203 435.158 298.543 436.602C299.883 438.045 300.901 439.261 300.963 440.757C301.025 442.252 301.077 443.748 301.119 444.746C301.16 445.743 293.359 457.315 293.494 460.816C293.629 464.316 296.61 464.451 300.838 463.028C305.066 461.605 308.785 455.206 308.785 455.206L309.159 458.198C309.325 458.26 309.502 458.288 309.679 458.28C309.857 458.272 310.03 458.229 310.19 458.152C310.35 458.075 310.493 457.967 310.611 457.834C310.728 457.701 310.817 457.546 310.873 457.377C311.203 455.558 311.297 453.704 311.153 451.861C311.153 450.822 312.036 448.828 311.912 445.577C311.755 443.147 311.408 440.733 310.873 438.357C310.873 438.357 311.756 435.324 311.912 434.067C312.068 432.81 310.873 431.854 311.704 428.572C312.535 425.289 313.782 425.227 313.782 423.232C313.799 421.214 313.551 419.202 313.044 417.249C312.483 415.525 314.914 401.169 314.841 399.164C314.768 397.159 315.038 391.653 315.038 391.653C315.038 391.653 317.698 382.782 317.563 379.292C317.428 375.802 317.261 352.772 317.261 352.772L316.929 344.274C316.929 344.274 317.677 356.74 319.183 363.461C320.689 370.182 323.463 389.316 325.125 393.502C326.787 397.689 329.187 407.609 330.09 411.577C330.994 415.545 332.303 423.253 332.303 423.253C331.831 424.882 331.729 426.596 332.002 428.27C332.097 429.614 332.316 430.946 332.656 432.249C332.656 432.249 331.046 435.812 331.337 436.799C331.604 438.452 331.753 440.121 331.784 441.795C331.784 442.543 330.173 445.358 328.833 449.669C327.493 453.98 322.954 459.153 326.87 463.257C330.786 467.36 337.476 459.33 338.556 455.04C339.637 450.75 342.088 442.886 342.306 442.128C343.246 440.486 343.853 438.675 344.093 436.799C344.311 434.887 344.311 432.956 344.093 431.044C344.571 429.645 344.919 428.206 345.132 426.743C345.309 424.988 345.132 421.238 345.132 421.238C345.132 421.238 348.975 404.617 349.287 399.06C349.599 393.502 347.615 382.107 347.282 380.112C346.95 378.118 347.282 373.36 346.462 371.896C345.641 370.431 343.958 365.486 343.958 365.486C343.958 365.486 356.424 337.72 358.283 322.626C360.142 307.533 359.457 295.057 358.605 292.585C357.753 290.112 356.922 287.9 356.922 287.9C356.922 287.9 346.451 295.317 323.806 292.2C301.16 289.084 292.351 287.941 290.076 287.276C288.585 286.867 287.042 286.678 285.495 286.715Z" fill="#263238" stroke="#263238" stroke-linejoin="round"/>
<path d="M306.749 134.012C306.749 134.012 300.755 134.51 295.021 141.532C289.287 148.555 286.514 157.81 288.186 160.355C289.859 162.9 291.853 167.273 291.895 168.312C291.936 169.351 284.135 176.986 286.358 180.289C288.581 183.593 289.183 185.67 287.397 186.003C285.61 186.335 282.556 189.067 283.148 190.875C283.74 192.682 286.929 194.126 285.714 196.266C284.499 198.406 283.439 198.177 283.532 200.795C283.626 203.413 286.213 205.407 284.852 205.843C283.491 206.28 280.904 206.882 281.735 208.7C282.518 210.149 283.447 211.513 284.509 212.772C284.509 212.772 294.575 222.827 314.499 224.396C334.422 225.965 352.799 207.994 355.562 205.272C358.325 202.55 358.823 201.74 358.761 200.182C358.699 198.624 357.587 196.827 356.985 194.988C356.382 193.149 357.037 189.503 356.985 188.755C356.933 188.007 355.042 185.961 353.692 184.974C352.341 183.987 351.978 181.12 352.393 178.482C352.809 175.843 350.129 174.129 349.059 173.392C347.989 172.654 347.106 170.327 347.802 167.949C348.498 165.57 345.267 163.347 343.917 162.36C342.567 161.373 342.224 159.025 342.639 156.397C343.055 153.769 339.45 148.419 337.528 146.145C335.607 143.87 332.968 136.39 322.923 133.679C312.878 130.968 306.749 134.012 306.749 134.012Z" fill="#263238" stroke="#263238" stroke-linejoin="round"/>
<path d="M319.474 189.984C319.474 189.984 308.224 196.425 300.568 198.98C292.912 201.536 292.58 218.572 292.746 222.81C292.912 227.048 288.695 253.506 291.333 256.903C293.972 260.3 317.968 259.604 326.205 259.032C334.443 258.461 340.26 260.227 345.682 257.993C351.105 255.76 351.78 254.005 351.676 251.252C351.572 248.499 352.133 218.457 351.905 212.703C351.676 206.948 350.108 198.762 348.04 197.121C345.973 195.48 341.662 194.119 335.336 192.374C329.01 190.628 319.474 189.984 319.474 189.984Z" fill="white" stroke="#263238" stroke-linejoin="round"/>
<path d="M288.954 266.508C288.954 266.508 284.799 288.187 284.882 290.182C284.907 291.612 284.796 293.042 284.55 294.451C284.55 294.451 293.67 297.1 297.431 297.453C301.191 297.806 309.47 297.973 313.012 298.835C316.555 299.697 331.285 298.835 336.489 297.661C341.693 296.487 345.412 295.313 348.373 294.441C350.808 293.654 353.194 292.725 355.519 291.657L358.449 289.579L352.31 267.308C352.31 267.308 341.621 268.98 331.139 269.884C320.658 270.788 300.796 268.326 298.033 267.941C295.27 267.557 288.954 266.508 288.954 266.508Z" fill="white" stroke="#263238" stroke-linejoin="round"/>
<path d="M298.334 284.008L298.033 286.833" stroke="#263238" stroke-linejoin="round"/>
<path d="M299.644 271.617L298.595 281.569" stroke="#263238" stroke-linejoin="round"/>
<path d="M298.013 272.242L295.582 280.594" stroke="#263238" stroke-linejoin="round"/>
<path d="M332.178 272.539L331.814 284.402" stroke="#263238" stroke-linejoin="round"/>
<path d="M340.53 284.656L341.05 287.897" stroke="#263238" stroke-linejoin="round"/>
<path d="M338.483 271.742L340.01 281.351" stroke="#263238" stroke-linejoin="round"/>
<path d="M351.677 251.27C351.562 248.528 352.134 218.476 351.905 212.721C351.791 209.823 351.521 210.976 350.866 207.984C347.231 211.392 339.18 217.022 323.339 218.85C312.951 219.997 302.464 217.876 293.339 212.784C292.877 216.104 292.693 219.457 292.788 222.808C292.954 227.056 288.737 253.504 291.375 256.901C294.014 260.297 318.01 259.601 326.247 259.03C334.485 258.459 340.302 260.225 345.724 257.991C351.147 255.758 351.76 254.023 351.677 251.27Z" fill="white" stroke="#263238" stroke-linejoin="round"/>
<path d="M324.751 250.406C327.395 250.178 330.024 249.8 332.625 249.273" stroke="#263238" stroke-linejoin="round"/>
<path d="M299.28 249.078C306.647 250.457 314.149 250.976 321.635 250.626" stroke="#263238" stroke-linejoin="round"/>
<path d="M302.406 245.703C303.544 247.243 305.051 248.473 306.788 249.279C308.525 250.085 310.437 250.441 312.347 250.315" stroke="#263238" stroke-linejoin="round"/>
<path d="M314 247.75C315.315 248.823 316.781 249.695 318.353 250.337" stroke="#263238" stroke-linejoin="round"/>
<path d="M328.085 249.7C329.903 247.977 331.429 245.97 332.604 243.758" stroke="#263238" stroke-linejoin="round"/>
<path d="M289.277 255.482C289.277 255.482 311.954 259.346 323.194 258.9C334.433 258.453 351.48 252.781 351.48 252.781L352.3 267.272C352.3 267.272 342.255 272.664 321.251 272.996C300.247 273.328 288.332 269.537 288.332 269.537L289.277 255.482Z" fill="#263238" stroke="#263238" stroke-linejoin="round"/>
<path d="M311.08 205.571C311.08 205.571 310.842 199.339 310.613 193.573C310.622 190.804 310.273 188.046 309.574 185.367C312.192 186.188 314.905 186.67 317.646 186.8C321.655 186.884 327.659 180.651 328.116 179.622C328.574 178.594 329.259 176.828 329.259 176.828C329.259 176.828 329.893 186.562 330.797 190.28C331.7 193.999 332.282 196.233 332.282 196.233" fill="white"/>
<path d="M311.08 205.571C311.08 205.571 310.842 199.339 310.613 193.573C310.622 190.804 310.273 188.046 309.574 185.367C312.192 186.188 314.905 186.67 317.646 186.8C321.655 186.884 327.659 180.651 328.116 179.622C328.574 178.594 329.259 176.828 329.259 176.828C329.259 176.828 329.893 186.562 330.797 190.28C331.7 193.999 332.282 196.233 332.282 196.233" stroke="#263238" stroke-miterlimit="10"/>
<path d="M314.757 195.303C320.845 191.958 326.09 184.198 326.09 184.198L326.444 181.57C324.283 183.752 320.439 186.868 317.604 186.764C314.863 186.633 312.15 186.152 309.532 185.331C310.231 188.01 310.58 190.768 310.571 193.537C310.623 194.836 310.675 196.155 310.716 197.422C311.745 196.944 313.033 196.248 314.757 195.303Z" fill="#263238" stroke="#263238" stroke-linejoin="round"/>
<path d="M333.061 159.408L329.072 159.824C329.072 159.824 328.989 159.252 328.75 158.328L328.241 157.85C327.462 157.133 327.203 157.393 325.966 157.185C324.73 156.977 324.128 155.014 324.045 153.03C323.962 151.046 321.448 150.63 318.622 148.74C316.306 147.192 315.267 143.92 314.966 142.777C314.035 142.666 313.097 142.632 312.161 142.673C311.748 144.764 310.967 146.766 309.855 148.584C307.964 151.409 306.209 151.233 305.773 152.739C305.336 154.245 304.152 156.053 303.155 156.344C302.158 156.634 299.675 156.738 299.716 157.985C299.758 159.231 299.104 161.257 298.366 161.787L297.815 162.192C298.262 165.007 298.854 167.282 298.854 167.781C298.854 168.819 299.145 175.27 302.043 178.916C304.941 182.562 310.509 190.592 317.012 190.343C323.515 190.094 328.657 181.129 329.571 178.844C330.485 176.558 330.724 170.035 330.724 170.035C332.049 168.708 333.107 167.138 333.84 165.412C334.921 162.587 333.061 159.408 333.061 159.408Z" fill="white" stroke="#263238" stroke-linejoin="round"/>
<path d="M297.971 158.544C297.898 156.789 299.529 153.724 300.277 153.693C301.812 153.217 303.113 152.183 303.923 150.795C304.37 149.528 304.068 148.292 305.305 147.741C306.541 147.19 306.458 145.445 306.458 145.445C306.458 145.445 303.102 149.081 301.139 150.161C299.75 150.878 298.515 151.859 297.503 153.049C297.175 155.291 297.175 157.57 297.503 159.812C297.681 159.656 297.817 159.459 297.898 159.238C297.98 159.016 298.005 158.778 297.971 158.544Z" fill="white" stroke="#263238" stroke-linejoin="round"/>
<path d="M311.974 177.258C311.974 177.258 313.553 179.45 316.492 177.58" stroke="#263238" stroke-linejoin="round"/>
<path d="M312.119 181.007C312.119 181.007 317.199 182.815 319.048 178.93" stroke="#263238" stroke-linejoin="round"/>
<path d="M306.843 167.978C306.988 169.017 306.656 169.9 306.105 169.973C305.555 170.045 305.015 169.329 304.869 168.29C304.724 167.251 305.056 166.379 305.596 166.295C306.137 166.212 306.708 166.95 306.843 167.978Z" fill="#263238"/>
<path d="M319.298 166.37C319.433 167.409 319.111 168.281 318.56 168.354C318.01 168.427 317.449 167.658 317.314 166.64C317.179 165.622 317.501 164.718 318.051 164.645C318.602 164.573 319.153 165.341 319.298 166.37Z" fill="#263238"/>
<path d="M301.44 164.136C301.44 164.136 302.604 161.841 306.634 162.183" stroke="#263238" stroke-linejoin="round"/>
<path d="M315.402 161.364C315.402 161.364 319.329 159.453 322.425 161.842" stroke="#263238" stroke-linejoin="round"/>
<path d="M307.394 162.672C307.394 162.672 310.78 166.048 310.915 169.549" stroke="#263238" stroke-linejoin="round"/>
<path d="M322.071 300.211C322.071 300.211 317.968 304.127 317.095 313.715C316.223 323.303 316.223 342.531 316.223 342.531C316.223 342.531 316.846 348.878 317.126 352.753" stroke="#808080" stroke-linejoin="round"/>
<path d="M317.843 305.774C316.468 304.808 315.227 303.662 314.155 302.367" stroke="#808080" stroke-linejoin="round"/>
<path d="M326.693 398.681C328.002 403.241 329.332 408.798 329.955 411.53C330.859 415.499 332.168 423.206 332.168 423.206C331.696 424.836 331.593 426.55 331.866 428.224C331.962 429.567 332.181 430.899 332.521 432.202C332.521 432.202 330.911 435.765 331.202 436.752C331.469 438.405 331.618 440.075 331.648 441.749C331.648 442.497 330.038 445.312 328.698 449.623C327.358 453.934 322.819 459.107 326.735 463.21C330.651 467.313 337.341 459.283 338.421 454.993C339.501 450.703 341.953 442.839 342.171 442.081C343.111 440.439 343.718 438.629 343.958 436.752C344.175 434.84 344.175 432.909 343.958 430.997C344.435 429.599 344.783 428.159 344.997 426.697C345.173 424.941 344.997 421.191 344.997 421.191C344.997 421.191 348.84 404.571 349.152 399.013C349.196 397.777 349.175 396.539 349.089 395.305C342.156 398.729 334.328 399.909 326.693 398.681Z" fill="#595959" stroke="#263238" stroke-linejoin="round"/>
<path d="M308.65 455.163L309.024 458.154C309.19 458.216 309.367 458.244 309.544 458.237C309.721 458.229 309.895 458.185 310.055 458.108C310.215 458.032 310.358 457.924 310.475 457.791C310.593 457.658 310.682 457.502 310.738 457.334C311.068 455.515 311.162 453.661 311.018 451.818C311.018 450.779 311.901 448.785 311.777 445.533C311.62 443.103 311.272 440.689 310.738 438.314C310.738 438.314 311.621 435.28 311.777 434.023C311.932 432.766 310.738 431.811 311.569 428.528C312.4 425.246 313.646 425.183 313.646 423.189C313.664 421.171 313.416 419.159 312.909 417.206C312.348 415.481 314.779 401.125 314.706 399.12C314.706 398.497 314.706 397.531 314.706 396.492C308.068 399.016 299.737 397.936 294.45 396.773C295.488 406.787 296.371 416.863 296.371 416.863C296.371 416.863 295.894 423.885 296.963 425.599C297.944 427.244 298.451 429.127 298.428 431.042C298.511 433.047 297.088 435.104 298.428 436.548C299.768 437.992 300.786 439.207 300.849 440.703C300.911 442.199 300.963 443.694 301.004 444.692C301.046 445.689 293.245 457.261 293.38 460.762C293.515 464.262 296.496 464.397 300.724 462.974C304.952 461.551 308.65 455.163 308.65 455.163Z" fill="#595959" stroke="#263238" stroke-linejoin="round"/>
<path d="M310.406 194.844C310.406 194.844 304.931 208.349 303.352 218.892C301.773 229.436 299.197 247.833 298.158 251.375C297.12 254.917 294.201 259.041 290.721 278.695C287.241 298.349 289.682 321.285 289.682 321.285C289.682 321.285 288.716 322.324 284.436 321.742C281.486 321.267 278.6 320.455 275.835 319.322C275.835 319.322 277.466 297.237 279.398 289.197C281.33 281.157 285.838 261.919 285.838 261.919L285.724 252.663C284.306 256.523 282.59 260.267 280.592 263.861C277.788 268.733 274.858 270.592 270.111 270.779C265.364 270.966 262.009 262.095 265.208 254.46C268.408 246.825 271.524 236.946 273.321 231.607C275.118 226.268 280.696 209.294 284.82 205.876C288.944 202.459 308.39 194.419 310.406 194.844Z" fill="#BA68C8" stroke="#263238" stroke-linejoin="round"/>
<path d="M333.061 191.445C333.061 191.445 332.022 221.767 333.674 232.456C335.325 243.146 341.132 256.691 342.856 262.384C344.581 268.076 346.638 288.509 348.196 296.207C349.754 303.904 349.235 322.436 349.235 322.436C349.235 322.436 353.234 322.28 355.748 322.436C358.262 322.592 368.296 317.18 368.296 317.18C368.296 317.18 366.998 303.218 364.37 293.568C361.741 283.918 356.683 263.589 356.007 259.112C355.332 254.634 354.127 249.669 354.075 248.173C354.023 246.677 356.153 237.785 356.153 237.785C356.153 237.785 363.809 215.971 363.03 208.99C362.25 202.01 353.338 198.114 349.006 196.026C344.674 193.938 333.061 191.445 333.061 191.445Z" fill="#BA68C8" stroke="#263238" stroke-linejoin="round"/>
<path d="M354.793 235.136L360.735 258.924C360.735 258.924 359.374 262.477 360.413 263.443C361.018 264.025 361.387 264.808 361.452 265.645C361.452 265.645 360.589 269.187 361.659 270.839C362.729 272.491 367.612 307.643 367.612 307.643C367.612 307.643 363.529 311.798 363.591 313.554C363.619 315.267 363.348 316.972 362.792 318.592C362.345 319.87 360.714 322.435 361.452 322.654C362.189 322.872 365.16 321.5 365.368 320.493C365.578 319.697 365.885 318.929 366.282 318.208L366.957 316.431C367.176 318.755 367.27 321.089 367.238 323.422C367.102 324.745 366.729 326.033 366.136 327.224C365.43 328.502 363.768 330.569 365.035 331.016C366.303 331.462 370.105 326.32 370.105 326.32C371.238 326.033 372.318 325.567 373.304 324.939C375.008 323.9 376.42 320.316 376.576 319.049C376.732 317.782 376.576 312.816 376.576 312.048C376.576 311.279 375.537 305.576 375.537 305.576C375.537 305.576 378.488 278.942 378.197 271.442C377.997 266.769 377.56 262.109 376.888 257.48L375.911 251.767C375.911 251.767 373.657 219.824 370.136 212.948C366.614 206.071 360.891 200.804 356.351 199.734" fill="white"/>
<path d="M354.793 235.136L360.735 258.924C360.735 258.924 359.374 262.477 360.413 263.443C361.018 264.025 361.387 264.808 361.452 265.645C361.452 265.645 360.589 269.187 361.659 270.839C362.729 272.491 367.612 307.643 367.612 307.643C367.612 307.643 363.529 311.798 363.591 313.554C363.619 315.267 363.348 316.972 362.792 318.592C362.345 319.87 360.714 322.435 361.452 322.654C362.189 322.872 365.16 321.5 365.368 320.493C365.578 319.697 365.885 318.929 366.282 318.208L366.957 316.431C367.176 318.755 367.27 321.089 367.238 323.422C367.102 324.746 366.729 326.033 366.136 327.224C365.43 328.502 363.768 330.569 365.035 331.016C366.303 331.462 370.105 326.32 370.105 326.32C371.238 326.033 372.318 325.567 373.304 324.939C375.008 323.9 376.42 320.316 376.576 319.049C376.732 317.782 376.576 312.816 376.576 312.048C376.576 311.279 375.537 305.576 375.537 305.576C375.537 305.576 378.488 278.942 378.197 271.442C377.997 266.769 377.56 262.109 376.888 257.48L375.911 251.767C375.911 251.767 373.657 219.824 370.136 212.948C366.614 206.071 360.891 200.804 356.351 199.734" stroke="#263238" stroke-linejoin="round"/>
<path d="M354.367 234.365L360.735 258.922C360.735 258.922 359.374 262.474 360.413 263.44C361.018 264.022 361.388 264.806 361.452 265.643C361.452 265.643 360.589 269.185 361.659 270.837C361.964 271.631 362.18 272.457 362.303 273.298C365.285 271.356 372.12 267.98 377.283 273.475C377.534 273.762 377.846 273.99 378.197 274.14C378.197 273.101 378.197 272.166 378.197 271.439C377.997 266.766 377.561 262.106 376.888 257.478L375.912 251.765C375.912 251.765 373.657 219.822 370.136 212.945C366.614 206.068 359.665 200.854 355.115 199.773" fill="#BA68C8"/>
<path d="M354.367 234.365L360.735 258.922C360.735 258.922 359.374 262.474 360.413 263.44C361.018 264.022 361.388 264.806 361.452 265.643C361.452 265.643 360.589 269.185 361.659 270.837C361.964 271.631 362.18 272.457 362.303 273.298C365.285 271.356 372.12 267.98 377.283 273.475C377.534 273.762 377.846 273.99 378.197 274.14C378.197 273.101 378.197 272.166 378.197 271.439C377.997 266.766 377.561 262.106 376.888 257.478L375.912 251.765C375.912 251.765 373.657 219.822 370.136 212.945C366.614 206.068 359.665 200.854 355.115 199.773" stroke="#263238" stroke-linejoin="round"/>
<path d="M275.398 225.731L284.031 251.93L298.127 251.389L290.928 223.758L275.398 225.731Z" fill="#263238" stroke="#263238" stroke-linejoin="round"/>
<path d="M284.311 256.824C284.686 256.563 284.981 256.203 285.163 255.785C285.693 254.393 286.597 252.606 286.597 252.606C286.597 252.606 291.012 250.674 291.583 250.259C292.154 249.843 296.008 248.721 296.548 247.724C297.089 246.727 297.078 246.145 295.146 246.799C293.214 247.454 287.251 249.261 287.251 249.261C287.251 249.261 288.207 248.835 288.965 248.41C289.724 247.984 294.876 244.857 295.458 244.639C296.039 244.421 296.185 243.247 295.759 242.489C295.333 241.73 295.001 242.904 293.266 243.527C291.531 244.151 285.174 246.197 285.174 246.197L288.591 243.725C289.163 243.309 294.336 240.962 294.336 240.962C294.336 240.962 295.863 240.12 295.821 239.144C295.78 238.167 295.198 238.001 294.616 238.219C294.034 238.437 290.149 238.78 288.809 239.424C287.469 240.068 283.075 242.374 283.075 242.374L285.049 238.011C285.049 238.011 290.368 234.282 291.136 234.064C291.905 233.846 293.432 232.797 293.214 231.986C292.996 231.176 291.427 231.083 291.427 231.083C291.427 231.083 284.685 233.295 283.366 234.718C282.047 236.142 279.45 239.164 279.45 239.164C278.934 237.925 278.554 236.632 278.318 235.311C278.318 234.137 278.193 231.997 277.362 230.854C276.531 229.711 276.323 230.117 276.323 230.117C276.323 230.117 276.323 236.349 276.001 236.952C275.679 237.554 278.754 247.34 278.754 247.34L280.084 251.391C277.506 251.772 274.908 252.004 272.303 252.087C270.35 251.962 267.764 255.577 267.359 260.085C267.271 261.056 267.385 262.034 267.693 262.959C268 263.884 268.495 264.735 269.146 265.46C269.797 266.185 270.59 266.769 271.477 267.174C272.363 267.579 273.323 267.797 274.298 267.814C277.798 267.669 280.416 264.843 281.715 263.036C282.627 261.565 283.291 259.954 283.678 258.268L284.311 256.824Z" fill="white" stroke="#263238" stroke-linejoin="round"/>
</svg>
